<?xml version="1.0" encoding="UTF-8"?>
<svg width="1280px" height="640px" viewBox="0 0 1280 640" version="1.1" xmlns="http://www.w3.org/2000/svg" xmlns:xlink="http://www.w3.org/1999/xlink">
    <!-- Generator: Sketch 55.2 (78181) - https://sketchapp.com -->
    <title>cover</title>
    <desc>Created with Sketch.</desc>
    <g id="cover" stroke="none" stroke-width="1" fill="none" fill-rule="evenodd">
        <g id="Man" transform="translate(116.000000, 114.645805)">
            <path d="M131.475093,120.273354 C131.475093,120.273354 131.475093,120.273354 131.475093,120.273354 L63.7891163,58.887504 C57.1862758,66.8952124 47.1892814,72 36,72 C16.117749,72 0,55.882251 0,36 C0,16.117749 16.117749,0 36,0 C55.882251,0 72,16.117749 72,36 C72,44.6929696 68.918873,52.6663034 63.7891163,58.887504 L131.475093,120.273354 Z" id="Combined-Shape" stroke="#D8D8D8" stroke-width="4" stroke-linecap="square"></path>
            <g id="1-468" transform="translate(17.000000, 12.000000)">
                <path d="M9,26 C6,26 5,19 5,12 C5,6 10,0 19,0 C28,0 33,6 33,12 C33,19 32,26 29,26" id="Path" fill="#F1B31C" fill-rule="nonzero"></path>
                <path d="M0.1,49 L0.1,45.2 C0.1,40.2 5.1,36.2 10.1,36.2 C16.1,41.2 22.1,41.2 28.1,36.2 C33.1,36.2 38.1,40.2 38.1,45.2 L38.1,49 L0.1,49 Z" id="Path" fill="#92D3F5" fill-rule="nonzero"></path>
                <path d="M24.9,18 C24.9,19.1 24,20 22.9,20 C21.8,20 20.9,19.1 20.9,18 C20.9,16.9 21.8,16 22.9,16 C24,16 24.9,16.9 24.9,18" id="Path" fill="#040404" fill-rule="nonzero"></path>
                <path d="M16.9,18 C16.9,19.1 16,20 14.9,20 C13.8,20 12.9,19.1 12.9,18 C12.9,16.9 13.8,16 14.9,16 C16,16 16.9,16.9 16.9,18" id="Path" fill="#040404" fill-rule="nonzero"></path>
                <path d="M7.9,19 C7.8,27 12,33 18.9,33 C26,33 30,27 30,19 C30,14 27,9 27,9 C19,9 17,12 11,10 C11,10 8,14 7.9,19 Z" id="Path" fill="#FCEA2B" fill-rule="nonzero"></path>
                <path d="M15.9,26.2 C18,27 20,27 21.9,26.2" id="Path" stroke="#040404" stroke-width="2" stroke-linecap="round" stroke-linejoin="round"></path>
                <path d="M9,26 C6,26 5,19 5,12 C5,6 10,0 19,0 C28,0 33,6 33,12 C33,19 32,26 29,26" id="Path" stroke="#040404" stroke-width="2" stroke-linecap="round" stroke-linejoin="round"></path>
                <path d="M0,48 L0,45 C0,40 5,36 10,36 C16,41 22,41 28,36 C33,36 38,40 38,45 L38,48" id="Path" stroke="#040404" stroke-width="2" stroke-linecap="round" stroke-linejoin="round"></path>
                <path d="M24.9,18 C24.9,19.1 24,20 22.9,20 C21.8,20 20.9,19.1 20.9,18 C20.9,16.9 21.8,16 22.9,16 C24,16 24.9,16.9 24.9,18" id="Path" fill="#040404" fill-rule="nonzero"></path>
                <path d="M16.9,18 C16.9,19.1 16,20 14.9,20 C13.8,20 12.9,19.1 12.9,18 C12.9,16.9 13.8,16 14.9,16 C16,16 16.9,16.9 16.9,18" id="Path" fill="#040404" fill-rule="nonzero"></path>
                <path d="M7.9,19 C7.8,27 12.8,33 18.9,33 C24.9,33 30,27 30,19 C30,14 27,8 27,8 C19,8 17,11 11,9 C11,9 8,14 7.9,19 Z" id="Path" stroke="#040404" stroke-width="2" stroke-linejoin="round"></path>
                <path d="M15.9,26.2 C18,27 20,27 21.9,26.2" id="Path" stroke="#040404" stroke-width="2" stroke-linecap="round" stroke-linejoin="round"></path>
            </g>
        </g>
        <g id="Man" transform="translate(468.500000, 377.645805)">
            <path d="M0.964337728,0.525473084 C0.964337728,0.525473084 0.964337728,0.525473084 0.964337728,0.525473084 L50.7640654,23.0004096 C56.452021,10.6070103 68.970873,2 83.5,2 C103.382251,2 119.5,18.117749 119.5,38 C119.5,57.882251 103.382251,74 83.5,74 C63.617749,74 47.5,57.882251 47.5,38 C47.5,32.646876 48.6683902,27.5666442 50.7640654,23.0004096 L0.964337728,0.525473084 Z" id="Combined-Shape" stroke="#D8D8D8" stroke-width="4" stroke-linecap="square"></path>
            <g id="1-468" transform="translate(64.500000, 14.000000)">
                <path d="M9,26 C6,26 5,19 5,12 C5,6 10,0 19,0 C28,0 33,6 33,12 C33,19 32,26 29,26" id="Path" fill="#F1B31C" fill-rule="nonzero"></path>
                <path d="M0.1,49 L0.1,45.2 C0.1,40.2 5.1,36.2 10.1,36.2 C16.1,41.2 22.1,41.2 28.1,36.2 C33.1,36.2 38.1,40.2 38.1,45.2 L38.1,49 L0.1,49 Z" id="Path" fill="#92D3F5" fill-rule="nonzero"></path>
                <path d="M24.9,18 C24.9,19.1 24,20 22.9,20 C21.8,20 20.9,19.1 20.9,18 C20.9,16.9 21.8,16 22.9,16 C24,16 24.9,16.9 24.9,18" id="Path" fill="#040404" fill-rule="nonzero"></path>
                <path d="M16.9,18 C16.9,19.1 16,20 14.9,20 C13.8,20 12.9,19.1 12.9,18 C12.9,16.9 13.8,16 14.9,16 C16,16 16.9,16.9 16.9,18" id="Path" fill="#040404" fill-rule="nonzero"></path>
                <path d="M7.9,19 C7.8,27 12,33 18.9,33 C26,33 30,27 30,19 C30,14 27,9 27,9 C19,9 17,12 11,10 C11,10 8,14 7.9,19 Z" id="Path" fill="#FCEA2B" fill-rule="nonzero"></path>
                <path d="M15.9,26.2 C18,27 20,27 21.9,26.2" id="Path" stroke="#040404" stroke-width="2" stroke-linecap="round" stroke-linejoin="round"></path>
                <path d="M9,26 C6,26 5,19 5,12 C5,6 10,0 19,0 C28,0 33,6 33,12 C33,19 32,26 29,26" id="Path" stroke="#040404" stroke-width="2" stroke-linecap="round" stroke-linejoin="round"></path>
                <path d="M0,48 L0,45 C0,40 5,36 10,36 C16,41 22,41 28,36 C33,36 38,40 38,45 L38,48" id="Path" stroke="#040404" stroke-width="2" stroke-linecap="round" stroke-linejoin="round"></path>
                <path d="M24.9,18 C24.9,19.1 24,20 22.9,20 C21.8,20 20.9,19.1 20.9,18 C20.9,16.9 21.8,16 22.9,16 C24,16 24.9,16.9 24.9,18" id="Path" fill="#040404" fill-rule="nonzero"></path>
                <path d="M16.9,18 C16.9,19.1 16,20 14.9,20 C13.8,20 12.9,19.1 12.9,18 C12.9,16.9 13.8,16 14.9,16 C16,16 16.9,16.9 16.9,18" id="Path" fill="#040404" fill-rule="nonzero"></path>
                <path d="M7.9,19 C7.8,27 12.8,33 18.9,33 C24.9,33 30,27 30,19 C30,14 27,8 27,8 C19,8 17,11 11,9 C11,9 8,14 7.9,19 Z" id="Path" stroke="#040404" stroke-width="2" stroke-linejoin="round"></path>
                <path d="M15.9,26.2 C18,27 20,27 21.9,26.2" id="Path" stroke="#040404" stroke-width="2" stroke-linecap="round" stroke-linejoin="round"></path>
            </g>
        </g>
        <g id="Men" transform="translate(172.000000, 406.645805)">
            <path d="M77.5268965,0.147581802 C77.5268965,0.147581802 77.5268965,0.147581802 77.5268965,0.147581802 L63.2375683,13.4594641 C68.6972262,19.7709788 72,27.9997873 72,37 C72,56.882251 55.882251,73 36,73 C16.117749,73 -1.8189894e-12,56.882251 -1.8189894e-12,37 C-1.8189894e-12,17.117749 16.117749,1 36,1 C46.8820383,1 56.636368,5.82829489 63.2375683,13.4594641 L77.5268965,0.147581802 Z" id="Combined-Shape" stroke="#D8D8D8" stroke-width="4" stroke-linecap="square"></path>
            <g id="1-468" transform="translate(17.000000, 13.000000)">
                <path d="M9,26 C6,26 5,19 5,12 C5,6 10,0 19,0 C28,0 33,6 33,12 C33,19 32,26 29,26" id="Path" fill="#F1B31C" fill-rule="nonzero"></path>
                <path d="M0.1,49 L0.1,45.2 C0.1,40.2 5.1,36.2 10.1,36.2 C16.1,41.2 22.1,41.2 28.1,36.2 C33.1,36.2 38.1,40.2 38.1,45.2 L38.1,49 L0.1,49 Z" id="Path" fill="#92D3F5" fill-rule="nonzero"></path>
                <path d="M24.9,18 C24.9,19.1 24,20 22.9,20 C21.8,20 20.9,19.1 20.9,18 C20.9,16.9 21.8,16 22.9,16 C24,16 24.9,16.9 24.9,18" id="Path" fill="#040404" fill-rule="nonzero"></path>
                <path d="M16.9,18 C16.9,19.1 16,20 14.9,20 C13.8,20 12.9,19.1 12.9,18 C12.9,16.9 13.8,16 14.9,16 C16,16 16.9,16.9 16.9,18" id="Path" fill="#040404" fill-rule="nonzero"></path>
                <path d="M7.9,19 C7.8,27 12,33 18.9,33 C26,33 30,27 30,19 C30,14 27,9 27,9 C19,9 17,12 11,10 C11,10 8,14 7.9,19 Z" id="Path" fill="#FCEA2B" fill-rule="nonzero"></path>
                <path d="M15.9,26.2 C18,27 20,27 21.9,26.2" id="Path" stroke="#040404" stroke-width="2" stroke-linecap="round" stroke-linejoin="round"></path>
                <path d="M9,26 C6,26 5,19 5,12 C5,6 10,0 19,0 C28,0 33,6 33,12 C33,19 32,26 29,26" id="Path" stroke="#040404" stroke-width="2" stroke-linecap="round" stroke-linejoin="round"></path>
                <path d="M0,48 L0,45 C0,40 5,36 10,36 C16,41 22,41 28,36 C33,36 38,40 38,45 L38,48" id="Path" stroke="#040404" stroke-width="2" stroke-linecap="round" stroke-linejoin="round"></path>
                <path d="M24.9,18 C24.9,19.1 24,20 22.9,20 C21.8,20 20.9,19.1 20.9,18 C20.9,16.9 21.8,16 22.9,16 C24,16 24.9,16.9 24.9,18" id="Path" fill="#040404" fill-rule="nonzero"></path>
                <path d="M16.9,18 C16.9,19.1 16,20 14.9,20 C13.8,20 12.9,19.1 12.9,18 C12.9,16.9 13.8,16 14.9,16 C16,16 16.9,16.9 16.9,18" id="Path" fill="#040404" fill-rule="nonzero"></path>
                <path d="M7.9,19 C7.8,27 12.8,33 18.9,33 C24.9,33 30,27 30,19 C30,14 27,8 27,8 C19,8 17,11 11,9 C11,9 8,14 7.9,19 Z" id="Path" stroke="#040404" stroke-width="2" stroke-linejoin="round"></path>
                <path d="M15.9,26.2 C18,27 20,27 21.9,26.2" id="Path" stroke="#040404" stroke-width="2" stroke-linecap="round" stroke-linejoin="round"></path>
            </g>
        </g>
        <g id="Women" transform="translate(346.000000, 450.645805)">
            <path d="M23.9666875,0.511208253 C23.9666875,0.511208253 23.9666875,0.511208253 23.9666875,0.511208253 L28.9342458,23.6931471 C31.2189819,23.2384591 33.5816434,23 36,23 C55.882251,23 72,39.117749 72,59 C72,78.882251 55.882251,95 36,95 C16.117749,95 0,78.882251 0,59 C0,41.5361056 12.4352774,26.9766259 28.9342458,23.6931471 L23.9666875,0.511208253 Z" id="Combined-Shape" stroke="#D8D8D8" stroke-width="4" stroke-linecap="square"></path>
            <g id="1-467" transform="translate(17.000000, 35.000000)">
                <path d="M35.6,34.7 C38.5,31.6 39.3,27.9 37.6,23.9 C35.2,18.2 34.6,18.3 34.2,11.1 C34.2,6.9 31,3.4 26.8,3.1 C26.8,3.1 24.2,0.1 18.8,0.1 C12.4,0.1 6.6,3.6 5.1,9.1 C3.6,14.7 5.4,16.9 3.8,21.1 C2,25.8 -2,29.5 2.5,35 C5.3,38.5 11.7,42.1 19.7,42.1 C25.7,42 32.6,37.9 35.6,34.7 Z" id="Path" fill="#F1B31C" fill-rule="nonzero"></path>
                <path d="M1,48.9 L1,45 C1,40 4.8,36 9.8,36 C15.8,41 21.8,41 27.8,36 C32.8,36 37,40 37,45 L37,48.9 L1,48.9 Z" id="Path" fill="#92D3F5" fill-rule="nonzero"></path>
                <path d="M8,20 C8,28 12.8,32.9 18.8,32.9 C24.8,32.9 30,28 30,20 C30,16 29,14 29,14 C27,12 25,10 25,10 C25,10 13,12 9,14 C9,14 8,16 8,20 Z" id="Path" fill="#FCEA2B" fill-rule="nonzero"></path>
                <path d="M1,48 L1,44.9 C1,39.9 4.8,35.9 9.8,35.9 C15.8,40.9 21.8,40.9 27.8,35.9 C32.8,35.9 37,39.9 37,44.9 L37,48" id="Path" stroke="#040404" stroke-width="2" stroke-linecap="round" stroke-linejoin="round"></path>
                <path d="M25,19 C25,20.1 24.1,21 23,21 C21.9,21 21,20.1 21,19 C21,17.9 21.9,17 23,17 C24.1,17 25,17.9 25,19" id="Path" fill="#040404" fill-rule="nonzero"></path>
                <path d="M17,19 C17,20.1 16.1,21 15,21 C13.9,21 13,20.1 13,19 C13,17.9 13.9,17 15,17 C16.1,17 17,17.9 17,19" id="Path" fill="#040404" fill-rule="nonzero"></path>
                <path d="M8,20 C8,28 12.8,32.9 18.8,32.9 C24.8,32.9 30,28 30,20 C30,16 29,14 29,14 C27,12 25,10 25,10 C25,10 13,12 9,14 C9,14 8,16 8,20 Z" id="Path" stroke="#040404" stroke-width="2" stroke-linejoin="round"></path>
                <path d="M15.8,26.2 C17.7,27.2 19.9,27.2 21.8,26.2" id="Path" stroke="#040404" stroke-width="2" stroke-linecap="round" stroke-linejoin="round"></path>
                <path d="M3,34 C-1,28 1.2,25.7 3.1,21 C4.7,16.8 2.9,14.5 4.4,9 C5.9,3.5 11.7,0 18.1,0 C23.5,0 26.1,3 26.1,3 C30.3,3.4 33.5,6.9 33.5,11 C33.9,18.2 34.5,18.2 36.9,23.8 C38.7,27.9 37.9,30.6 35,33.9" id="Path" stroke="#040404" stroke-width="2" stroke-linecap="round" stroke-linejoin="round"></path>
            </g>
        </g>
        <g id="Women" transform="translate(382.000000, 95.000000)">
            <path d="M11.1647403,98.8068722 C11.1647403,98.8068722 11.1647403,98.8068722 11.1647403,98.8068722 L22.9601346,69.5657342 C9.52367262,64.3421179 0,51.2832454 0,36 C0,16.117749 16.117749,0 36,0 C55.882251,0 72,16.117749 72,36 C72,55.882251 55.882251,72 36,72 C31.4009944,72 27.0034096,71.1376151 22.9601346,69.5657342 L11.1647403,98.8068722 Z" id="Combined-Shape" stroke="#D8D8D8" stroke-width="4" stroke-linecap="square"></path>
            <g id="1-467" transform="translate(17.000000, 12.000000)">
                <path d="M35.6,34.7 C38.5,31.6 39.3,27.9 37.6,23.9 C35.2,18.2 34.6,18.3 34.2,11.1 C34.2,6.9 31,3.4 26.8,3.1 C26.8,3.1 24.2,0.1 18.8,0.1 C12.4,0.1 6.6,3.6 5.1,9.1 C3.6,14.7 5.4,16.9 3.8,21.1 C2,25.8 -2,29.5 2.5,35 C5.3,38.5 11.7,42.1 19.7,42.1 C25.7,42 32.6,37.9 35.6,34.7 Z" id="Path" fill="#F1B31C" fill-rule="nonzero"></path>
                <path d="M1,48.9 L1,45 C1,40 4.8,36 9.8,36 C15.8,41 21.8,41 27.8,36 C32.8,36 37,40 37,45 L37,48.9 L1,48.9 Z" id="Path" fill="#92D3F5" fill-rule="nonzero"></path>
                <path d="M8,20 C8,28 12.8,32.9 18.8,32.9 C24.8,32.9 30,28 30,20 C30,16 29,14 29,14 C27,12 25,10 25,10 C25,10 13,12 9,14 C9,14 8,16 8,20 Z" id="Path" fill="#FCEA2B" fill-rule="nonzero"></path>
                <path d="M1,48 L1,44.9 C1,39.9 4.8,35.9 9.8,35.9 C15.8,40.9 21.8,40.9 27.8,35.9 C32.8,35.9 37,39.9 37,44.9 L37,48" id="Path" stroke="#040404" stroke-width="2" stroke-linecap="round" stroke-linejoin="round"></path>
                <path d="M25,19 C25,20.1 24.1,21 23,21 C21.9,21 21,20.1 21,19 C21,17.9 21.9,17 23,17 C24.1,17 25,17.9 25,19" id="Path" fill="#040404" fill-rule="nonzero"></path>
                <path d="M17,19 C17,20.1 16.1,21 15,21 C13.9,21 13,20.1 13,19 C13,17.9 13.9,17 15,17 C16.1,17 17,17.9 17,19" id="Path" fill="#040404" fill-rule="nonzero"></path>
                <path d="M8,20 C8,28 12.8,32.9 18.8,32.9 C24.8,32.9 30,28 30,20 C30,16 29,14 29,14 C27,12 25,10 25,10 C25,10 13,12 9,14 C9,14 8,16 8,20 Z" id="Path" stroke="#040404" stroke-width="2" stroke-linejoin="round"></path>
                <path d="M15.8,26.2 C17.7,27.2 19.9,27.2 21.8,26.2" id="Path" stroke="#040404" stroke-width="2" stroke-linecap="round" stroke-linejoin="round"></path>
                <path d="M3,34 C-1,28 1.2,25.7 3.1,21 C4.7,16.8 2.9,14.5 4.4,9 C5.9,3.5 11.7,0 18.1,0 C23.5,0 26.1,3 26.1,3 C30.3,3.4 33.5,6.9 33.5,11 C33.9,18.2 34.5,18.2 36.9,23.8 C38.7,27.9 37.9,30.6 35,33.9" id="Path" stroke="#040404" stroke-width="2" stroke-linecap="round" stroke-linejoin="round"></path>
            </g>
        </g>
        <g id="Women" transform="translate(467.000000, 193.000000)">
            <path d="M0.0100075717,63.3650908 C0.0100075717,63.3650908 0.0100075717,63.3650908 0.0100075717,63.3650908 L19.1839813,53.5057464 C16.5131025,48.4760539 15,42.7376315 15,36.645805 C15,16.763554 31.117749,0.645804954 51,0.645804954 C70.882251,0.645804954 87,16.763554 87,36.645805 C87,56.5280559 70.882251,72.645805 51,72.645805 C37.2095755,72.645805 25.2302063,64.8917557 19.1839813,53.5057464 L0.0100075717,63.3650908 Z" id="Combined-Shape" stroke="#D8D8D8" stroke-width="4" stroke-linecap="square"></path>
            <g id="1-467" transform="translate(32.000000, 12.645805)">
                <path d="M35.6,34.7 C38.5,31.6 39.3,27.9 37.6,23.9 C35.2,18.2 34.6,18.3 34.2,11.1 C34.2,6.9 31,3.4 26.8,3.1 C26.8,3.1 24.2,0.1 18.8,0.1 C12.4,0.1 6.6,3.6 5.1,9.1 C3.6,14.7 5.4,16.9 3.8,21.1 C2,25.8 -2,29.5 2.5,35 C5.3,38.5 11.7,42.1 19.7,42.1 C25.7,42 32.6,37.9 35.6,34.7 Z" id="Path" fill="#F1B31C" fill-rule="nonzero"></path>
                <path d="M1,48.9 L1,45 C1,40 4.8,36 9.8,36 C15.8,41 21.8,41 27.8,36 C32.8,36 37,40 37,45 L37,48.9 L1,48.9 Z" id="Path" fill="#92D3F5" fill-rule="nonzero"></path>
                <path d="M8,20 C8,28 12.8,32.9 18.8,32.9 C24.8,32.9 30,28 30,20 C30,16 29,14 29,14 C27,12 25,10 25,10 C25,10 13,12 9,14 C9,14 8,16 8,20 Z" id="Path" fill="#FCEA2B" fill-rule="nonzero"></path>
                <path d="M1,48 L1,44.9 C1,39.9 4.8,35.9 9.8,35.9 C15.8,40.9 21.8,40.9 27.8,35.9 C32.8,35.9 37,39.9 37,44.9 L37,48" id="Path" stroke="#040404" stroke-width="2" stroke-linecap="round" stroke-linejoin="round"></path>
                <path d="M25,19 C25,20.1 24.1,21 23,21 C21.9,21 21,20.1 21,19 C21,17.9 21.9,17 23,17 C24.1,17 25,17.9 25,19" id="Path" fill="#040404" fill-rule="nonzero"></path>
                <path d="M17,19 C17,20.1 16.1,21 15,21 C13.9,21 13,20.1 13,19 C13,17.9 13.9,17 15,17 C16.1,17 17,17.9 17,19" id="Path" fill="#040404" fill-rule="nonzero"></path>
                <path d="M8,20 C8,28 12.8,32.9 18.8,32.9 C24.8,32.9 30,28 30,20 C30,16 29,14 29,14 C27,12 25,10 25,10 C25,10 13,12 9,14 C9,14 8,16 8,20 Z" id="Path" stroke="#040404" stroke-width="2" stroke-linejoin="round"></path>
                <path d="M15.8,26.2 C17.7,27.2 19.9,27.2 21.8,26.2" id="Path" stroke="#040404" stroke-width="2" stroke-linecap="round" stroke-linejoin="round"></path>
                <path d="M3,34 C-1,28 1.2,25.7 3.1,21 C4.7,16.8 2.9,14.5 4.4,9 C5.9,3.5 11.7,0 18.1,0 C23.5,0 26.1,3 26.1,3 C30.3,3.4 33.5,6.9 33.5,11 C33.9,18.2 34.5,18.2 36.9,23.8 C38.7,27.9 37.9,30.6 35,33.9" id="Path" stroke="#040404" stroke-width="2" stroke-linecap="round" stroke-linejoin="round"></path>
            </g>
        </g>
        <g id="JuiceShop" transform="translate(225.000000, 194.645805)">
            <circle id="Oval" stroke="#D8D8D8" stroke-width="4" fill="#FFFFFF" cx="125" cy="125" r="125"></circle>
            <g id="logo" transform="translate(47.000000, 37.000000)">
                <g id="Layer_3" transform="translate(0.000000, 122.000000)" fill="#CF3A23">
                    <path d="M156.753714,26.1159385 C159.264665,3.38012849 124.111646,-0.478759777 80.8645878,0.225653631 C43.8118387,0.829005587 35.6148807,8.00436872 23.3648359,22.6575251 C15.0483302,32.6054413 0.121195611,33.4100112 0.121195611,42.5607486 C0.121195611,54.4268715 35.0145954,43.2828101 67.532771,45.2940838 C83.2615344,46.266838 90.3524513,55.2314413 104.33474,53.8278939 C115.48129,52.7089777 110.523805,48.2928939 128.004587,42.0587598 C143.072392,36.6851564 155.446629,37.9523464 156.753714,26.1159385 Z" id="Path"></path>
                </g>
                <g id="Layer_4" transform="translate(21.000000, 122.000000)">
                    <path d="M135.754573,26.1159385 C138.256764,3.38012849 103.215491,-0.981050279 60.130213,0.225653631 C51.5041405,0.467296089 83.0636048,20.4468436 77.2653172,22.6575251 C72.5480132,24.4561173 46.7940022,25.5670391 34.2539363,22.6575251 C22.7557409,19.9898045 10.7071262,31.3878771 7.64093085,35.5223464 C-2.84375851,49.6593352 21.6093699,31.2264804 52.7654621,40.4496201 C68.3908321,45.0752179 69.5849748,55.2314413 83.5184808,53.8278939 C94.6261427,52.7089777 89.6859539,48.2928939 107.105748,42.0587598 C122.120984,36.6851564 134.452048,37.9523464 135.754573,26.1159385 Z" id="Path" fill="#DD6031"></path>
                    <path d="M125.270332,29.4826425 C122.772918,28.8863799 124.984299,26.622905 125.746854,23.3610335 C126.509409,20.099162 125.534718,17.0750112 128.032281,17.6709721 C130.529695,18.2672346 131.935824,21.3945587 131.17312,24.6564302 C130.410564,27.918 127.767745,30.0787542 125.270332,29.4826425 Z" id="Path" fill="#FFFFFF"></path>
                    <ellipse id="Oval" fill="#DD6031" cx="36.8913809" cy="19.9232849" rx="4.52830735" ry="2.04928492"></ellipse>
                    <ellipse id="Oval" fill="#DD6031" cx="42.4148321" cy="16.2150838" rx="2.68715697" ry="1"></ellipse>
                    <ellipse id="Oval" fill="#DD6031" cx="2.15733919" cy="43.0140168" rx="2.13972338" ry="1.45830168"></ellipse>
                    <ellipse id="Oval" fill="#FFFFFF" cx="118.613199" cy="31.567676" rx="2.87376509" ry="2.43905028"></ellipse>
                    <ellipse id="Oval" fill="#CF3A23" transform="translate(76.121281, 47.937098) rotate(18.663247) translate(-76.121281, -47.937098) " cx="76.1212814" cy="47.9370983" rx="6.22280836" ry="2.81018843"></ellipse>
                    <ellipse id="Oval" fill="#CF3A23" transform="translate(84.916098, 45.566353) rotate(18.663247) translate(-84.916098, -45.566353) " cx="84.9160976" cy="45.5663534" rx="3.69273513" ry="1"></ellipse>
                </g>
                <g id="Juice_Box" transform="translate(52.000000, 0.000000)">
                    <polygon id="Path" fill="#FDD84E" points="25.6015288 0.104597523 71.7548654 5.81092363 72.5496875 11.8962848 92.9326346 38.6124974 46.755601 40.8264035 25.1025481 8.92146543"></polygon>
                    <polygon id="Path" fill="#CCA941" points="28.4343029 13.7916099 47.5110769 41.674257 2.99850481 37.8675955 1.79829808 37.6769556"></polygon>
                    <polygon id="Path" fill="#BF8C3A" points="25.6015288 0.104597523 23.5777356 0.104597523 23.4664038 8.90335913 0.116846154 37.5591899 1.79829808 37.6769556 28.4343029 13.7916099 25.1025481 8.92146543"></polygon>
                    <path d="M63.9170817,23.7750619 C65.4857115,25.1381218 70.3884808,28.4812023 73.1164808,25.9548504 C73.1164808,25.9548504 68.9997404,30.4824716 68.1268221,31.4950774 C66.5443317,33.3308462 62.4255048,32.3550516 58.9274231,29.315289 C55.4294904,26.275676 53.8769567,22.3231166 55.4595962,20.4871981 C56.00925,19.8497368 60.4492548,14.9469711 60.4492548,14.9469711 C58.7634808,17.1336429 61.6339615,21.791001 63.9170817,23.7750619 Z" id="Path" fill="#712012"></path>
                    <ellipse id="Oval" fill="#CF3A23" transform="translate(66.778073, 20.452623) rotate(-49.124009) translate(-66.778073, -20.452623) " cx="66.7780728" cy="20.4526233" rx="4.38870548" ry="8.39085407"></ellipse>
                    <polygon id="Path" fill="#CCA941" points="8.463 133.003607 46.4350192 144.881935 84.6413269 134.151486 92.9326346 38.6124974 46.755601 40.8264035 0.116846154 37.5591899"></polygon>
                    <polygon id="Path" fill="#FDD84E" points="80.5976154 131.158261 46.755601 140.136589 47.5168894 44.6264809 88.7947308 42.422451"></polygon>
                </g>
                <g id="Layer_5" transform="translate(67.000000, 57.000000)" fill="#FFFFFF">
                    <polygon id="Path" points="63.2010354 60.0571435 36.6420708 65.8929567 36.6420708 54.74918 55.5310265 49.9385467 55.4404602 40.6170615 36.9739469 44.7265011 37.4779292 2.53070159 67.9905221 0.0879498861 67.0783894 11.5080547 46.3135664 14.4255854 46.2240531 31.4964328 65.7534425 28.0952528"></polygon>
                    <polygon id="Path" points="0.912283186 60.0571435 27.4713982 65.8929567 27.4713982 54.74918 27.1393717 44.7265011 26.6353894 2.53070159 17.3186372 1.82695216 17.7997522 14.4255854 18.221292 54.2482415 0.144424779 50.4414396"></polygon>
                </g>
                <g id="Layer_7" transform="translate(72.000000, 59.000000)">
                    <path d="M0.117090909,3.42692881 C0.117090909,1.54686102 0.817545455,0.0226711864 1.68168831,0.0226711864 L3.50705195,0.0226711864 C4.37104545,0.0226711864 5.0717987,1.54671186 5.0717987,3.42692881 L5.0717987,81.5382644 C5.0717987,83.4181831 4.37119481,84.9422237 3.50705195,84.9422237 L1.68168831,84.9422237 C0.817694805,84.9422237 0.117090909,83.4180339 0.117090909,81.5382644 L0.117090909,3.42692881 Z" id="Path" fill="#CF3A23"></path>
                    <path d="M41.0445455,53.1749695 C41.0445455,52.3735729 41.745,51.7238644 42.6091429,51.7238644 L44.4345065,51.7238644 C45.2985,51.7238644 45.9992532,52.3734237 45.9992532,53.1749695 L45.9992532,78.0810576 L45.9992532,80.3763661 L45.9992532,86.4738712 C45.9992532,87.2752678 45.2986494,87.9251254 44.4345065,87.9251254 L42.6091429,87.9251254 C41.7451494,87.9251254 41.0445455,87.2752678 41.0445455,86.4738712 L41.0445455,81.7603525 L41.0445455,79.6471593 L41.0445455,53.1749695 Z" id="Path" fill="#DD6031"></path>
                </g>
                <g id="Layer_6" transform="translate(2.000000, 17.000000)">
                    <path d="M39.8592569,0.00791517324 C39.8592569,0.00791517324 40.2533955,0.245519713 38.4996141,1.67906213 C36.7458326,3.11260454 36.0674392,3.10737754 36.0674392,3.10737754 L71.2748987,45.6238053 C71.2748987,45.6238053 72.8045533,46.0721326 74.091291,44.9770012 C75.3780288,43.8818698 75.3031695,42.8098865 75.3031695,42.8098865 L39.8592569,0.00791517324 Z" id="Path" fill="#050402"></path>
                    <path d="M140.030136,120.974462 L115.767013,91.6741338 C115.767013,91.6741338 115.03736,91.4090502 113.083203,92.2189367 C111.261777,92.9741637 111.523334,94.2280466 111.523334,94.2280466 L136.238319,124.073925 L140.967531,124.999701 L140.030136,120.974462 Z" id="Path" fill="#050402"></path>
                    <g id="Group" transform="translate(0.000000, 2.986858)" fill-rule="nonzero">
                        <polygon id="Path" fill="#712012" points="8.96492431 37.2979391 0.0637356077 52.5341995 30.2571269 72.6142473 39.8777463 57.8260155"></polygon>
                        <path d="M2.85246908,38.0053763 C2.85246908,38.0053763 10.9718443,26.5141876 17.0922665,19.765681 C23.2129893,13.0171744 36.0672889,0.120669056 36.0672889,0.120669056 L61.4157217,30.7314815 C61.4157217,30.7314815 49.2300448,40.3015233 45.1503646,44.3615591 C41.0706844,48.421595 32.0853166,60.0008961 32.0853166,60.0008961 L2.85246908,38.0053763 Z" id="Path" fill="#CF3A23"></path>
                    </g>
                </g>
            </g>
        </g>
        <path d="M697.015625,329.515625 C693.640608,329.515625 690.437515,329.187503 687.40625,328.53125 L687.40625,314.140625 C688.40625,314.328126 689.468744,314.539061 690.59375,314.773438 C691.718756,315.007814 692.937493,315.125 694.25,315.125 C697.312515,315.125 699.499993,314.203134 700.8125,312.359375 C702.125007,310.515616 702.78125,307.359397 702.78125,302.890625 L702.78125,239.46875 L721.390625,239.46875 L721.390625,301.296875 C721.390625,310.578171 719.359395,317.601539 715.296875,322.367188 C711.234355,327.132836 705.140666,329.515625 697.015625,329.515625 Z M772.353125,308 L770.05625,301.390625 L768.978125,301.390625 C767.446867,303.828137 765.314076,305.695306 762.579687,306.992188 C759.845299,308.289069 756.634393,308.9375 752.946875,308.9375 C747.103096,308.9375 742.556266,307.242204 739.30625,303.851562 C736.056234,300.460921 734.43125,295.671906 734.43125,289.484375 L734.43125,254.890625 L752.759375,254.890625 L752.759375,283.90625 C752.759375,287.375017 753.251558,289.999991 754.235937,291.78125 C755.220317,293.562509 756.837489,294.453125 759.0875,294.453125 C762.243766,294.453125 764.493743,293.21095 765.8375,290.726562 C767.181257,288.242175 767.853125,284.046905 767.853125,278.140625 L767.853125,254.890625 L786.18125,254.890625 L786.18125,308 L772.353125,308 Z M816.659375,308 L798.33125,308 L798.33125,254.890625 L816.659375,254.890625 L816.659375,308 Z M797.8625,241.671875 C797.8625,238.921861 798.628117,236.875007 800.159375,235.53125 C801.690633,234.187493 804.159358,233.515625 807.565625,233.515625 C810.971892,233.515625 813.456242,234.203118 815.01875,235.578125 C816.581258,236.953132 817.3625,238.984362 817.3625,241.671875 C817.3625,247.046902 814.096908,249.734375 807.565625,249.734375 C801.096843,249.734375 797.8625,247.046902 797.8625,241.671875 Z M853.04375,308.9375 C844.356207,308.9375 837.770335,306.593773 833.285937,301.90625 C828.80154,297.218727 826.559375,290.484419 826.559375,281.703125 C826.559375,272.890581 828.981226,266.062524 833.825,261.21875 C838.668774,256.374976 845.55933,253.953125 854.496875,253.953125 C860.653156,253.953125 866.449973,255.296862 871.8875,257.984375 L866.496875,271.53125 C864.278114,270.562495 862.231259,269.789065 860.35625,269.210938 C858.481241,268.63281 856.528135,268.34375 854.496875,268.34375 C851.52811,268.34375 849.231258,269.499988 847.60625,271.8125 C845.981242,274.125012 845.16875,277.390604 845.16875,281.609375 C845.16875,290.109418 848.309344,294.359375 854.590625,294.359375 C859.965652,294.359375 865.12185,292.796891 870.059375,289.671875 L870.059375,304.25 C865.340601,307.375016 859.668783,308.9375 853.04375,308.9375 Z M873.584375,254.890625 L892.896875,254.890625 L901.896875,285.359375 C902.334377,286.953133 902.631249,288.874989 902.7875,291.125 L903.1625,291.125 C903.412501,288.968739 903.787497,287.078133 904.2875,285.453125 L913.521875,254.890625 L932.225,254.890625 L911.225,311.375 C908.537487,318.562536 905.232832,323.64061 901.310937,326.609375 C897.389043,329.57814 892.271907,331.0625 885.959375,331.0625 C883.521863,331.0625 881.021888,330.796878 878.459375,330.265625 L878.459375,315.875 C880.115633,316.250002 882.006239,316.4375 884.13125,316.4375 C885.756258,316.4375 887.178119,316.125003 888.396875,315.5 C889.615631,314.874997 890.67812,313.992193 891.584375,312.851562 C892.490629,311.710932 893.45937,309.843763 894.490625,307.25 L873.584375,254.890625 Z M993.884375,253.671875 C989.478103,253.671875 986.040637,255.476544 983.571875,259.085938 C981.103113,262.695331 979.86875,267.671843 979.86875,274.015625 C979.86875,287.203191 984.884325,293.796875 994.915625,293.796875 C997.94689,293.796875 1000.88436,293.375004 1003.72812,292.53125 C1006.57189,291.687496 1009.43124,290.671881 1012.30625,289.484375 L1012.30625,305.140625 C1006.58747,307.671888 1000.11879,308.9375 992.9,308.9375 C982.556198,308.9375 974.62659,305.93753 969.110937,299.9375 C963.595285,293.93747 960.8375,285.265682 960.8375,273.921875 C960.8375,266.82809 962.173424,260.593777 964.845312,255.21875 C967.517201,249.843723 971.360912,245.710952 976.376562,242.820312 C981.392213,239.929673 987.290591,238.484375 994.071875,238.484375 C1001.47816,238.484375 1008.55622,240.093734 1015.30625,243.3125 L1009.63437,257.890625 C1007.10311,256.703119 1004.57189,255.703129 1002.04062,254.890625 C999.509362,254.078121 996.790639,253.671875 993.884375,253.671875 Z M1055.3,308 L1036.78437,308 L1036.78437,254.609375 L1020.05,254.609375 L1020.05,239.46875 L1071.9875,239.46875 L1071.9875,254.609375 L1055.3,254.609375 L1055.3,308 Z M1099.41875,308 L1081.18437,308 L1081.18437,239.46875 L1121.68437,239.46875 L1121.68437,254.328125 L1099.41875,254.328125 L1099.41875,267.40625 L1119.95,267.40625 L1119.95,282.265625 L1099.41875,282.265625 L1099.41875,308 Z" id="JuicyCTF" fill="#DD6031" fill-rule="nonzero"></path>
        <path d="M696.59375,364 L689.8125,346.28125 L689.703125,346.28125 C689.83073,347.684903 689.894531,349.352855 689.894531,351.285156 L689.894531,364 L687.748047,364 L687.748047,344.011719 L691.248047,344.011719 L697.578125,360.5 L697.6875,360.5 L704.072266,344.011719 L707.544922,344.011719 L707.544922,364 L705.220703,364 L705.220703,351.121094 C705.220703,349.644524 705.284505,348.040373 705.412109,346.308594 L705.302734,346.308594 L698.466797,364 L696.59375,364 Z M715.879513,349.015625 L715.879513,358.736328 C715.879513,359.957688 716.157505,360.869138 716.713498,361.470703 C717.26949,362.072269 718.139924,362.373047 719.324826,362.373047 C720.892542,362.373047 722.038689,361.944666 722.763302,361.087891 C723.487915,360.231116 723.850216,358.832041 723.850216,356.890625 L723.850216,349.015625 L726.119748,349.015625 L726.119748,364 L724.246701,364 L723.918576,361.990234 L723.795529,361.990234 C723.330683,362.728519 722.685833,363.293618 721.860959,363.685547 C721.036085,364.077476 720.095013,364.273438 719.037716,364.273438 C717.214791,364.273438 715.849896,363.840499 714.94299,362.974609 C714.036084,362.10872 713.582638,360.723317 713.582638,358.818359 L713.582638,349.015625 L715.879513,349.015625 Z M734.262933,364 L731.993402,364 L731.993402,342.726562 L734.262933,342.726562 L734.262933,364 Z M744.976431,362.400391 C745.377474,362.400391 745.76484,362.370769 746.13854,362.311523 C746.51224,362.252278 746.808461,362.190756 747.027212,362.126953 L747.027212,363.863281 C746.781117,363.981771 746.418816,364.079752 745.940298,364.157227 C745.46178,364.234701 745.03112,364.273438 744.648306,364.273438 C741.749854,364.273438 740.300649,362.74676 740.300649,359.693359 L740.300649,350.779297 L738.154165,350.779297 L738.154165,349.685547 L740.300649,348.742188 L741.257681,345.542969 L742.570181,345.542969 L742.570181,349.015625 L746.917837,349.015625 L746.917837,350.779297 L742.570181,350.779297 L742.570181,359.597656 C742.570181,360.500005 742.784371,361.192706 743.212759,361.675781 C743.641146,362.158857 744.229031,362.400391 744.976431,362.400391 Z M753.352038,364 L751.082507,364 L751.082507,349.015625 L753.352038,349.015625 L753.352038,364 Z M750.8911,344.955078 C750.8911,344.435544 751.018703,344.055014 751.273913,343.813477 C751.529122,343.571939 751.84813,343.451172 752.230944,343.451172 C752.595529,343.451172 752.909979,343.574218 753.174303,343.820312 C753.438628,344.066407 753.570788,344.444659 753.570788,344.955078 C753.570788,345.465497 753.438628,345.846027 753.174303,346.09668 C752.909979,346.347332 752.595529,346.472656 752.230944,346.472656 C751.84813,346.472656 751.529122,346.347332 751.273913,346.09668 C751.018703,345.846027 750.8911,345.465497 750.8911,344.955078 Z M782.99583,344.011719 L782.99583,356.945312 C782.99583,359.22397 782.307686,361.014967 780.931377,362.318359 C779.555068,363.621751 777.663811,364.273438 775.257549,364.273438 C772.851287,364.273438 770.989652,363.617194 769.672588,362.304688 C768.355524,360.992181 767.697002,359.187511 767.697002,356.890625 L767.697002,344.011719 L770.021221,344.011719 L770.021221,357.054688 C770.021221,358.722665 770.476945,360.003251 771.388408,360.896484 C772.299871,361.789718 773.639702,362.236328 775.40794,362.236328 C777.094146,362.236328 778.392961,361.787439 779.304424,360.889648 C780.215887,359.991857 780.671612,358.704435 780.671612,357.027344 L780.671612,344.011719 L782.99583,344.011719 Z M798.672219,359.912109 C798.672219,361.306648 798.152693,362.382158 797.113625,363.138672 C796.074557,363.895186 794.616238,364.273438 792.738625,364.273438 C790.751636,364.273438 789.202172,363.958988 788.090187,363.330078 L788.090187,361.224609 C788.810243,361.589195 789.582696,361.876301 790.40757,362.085938 C791.232444,362.295574 792.027684,362.400391 792.793312,362.400391 C793.978214,362.400391 794.889663,362.211265 795.527687,361.833008 C796.165711,361.454751 796.484719,360.878259 796.484719,360.103516 C796.484719,359.520179 796.231791,359.021161 795.72593,358.606445 C795.220068,358.19173 794.233424,357.701826 792.765969,357.136719 C791.37143,356.617185 790.380229,356.163739 789.792336,355.776367 C789.204442,355.388995 788.766947,354.949221 788.479836,354.457031 C788.192725,353.964841 788.049172,353.376957 788.049172,352.693359 C788.049172,351.471999 788.545912,350.508142 789.539406,349.801758 C790.532901,349.095374 791.895517,348.742188 793.627297,348.742188 C795.240586,348.742188 796.817393,349.070309 798.357766,349.726562 L797.551125,351.572266 C796.047211,350.952471 794.684595,350.642578 793.463234,350.642578 C792.387708,350.642578 791.576518,350.811196 791.029641,351.148438 C790.482763,351.485679 790.209328,351.950518 790.209328,352.542969 C790.209328,352.944012 790.311866,353.285806 790.516945,353.568359 C790.722024,353.850913 791.052425,354.11979 791.508156,354.375 C791.963888,354.63021 792.838879,354.999347 794.133156,355.482422 C795.910509,356.129561 797.111343,356.781247 797.735695,357.4375 C798.360047,358.093753 798.672219,358.918615 798.672219,359.912109 Z M809.754857,364.273438 C807.540002,364.273438 805.792298,363.598965 804.511693,362.25 C803.231088,360.901035 802.590795,359.028007 802.590795,356.630859 C802.590795,354.215483 803.185515,352.296882 804.374974,350.875 C805.564433,349.453118 807.161748,348.742188 809.166966,348.742188 C811.04458,348.742188 812.530242,349.359694 813.623998,350.594727 C814.717753,351.829759 815.264623,353.458974 815.264623,355.482422 L815.264623,356.917969 L804.942357,356.917969 C804.98793,358.677092 805.432262,360.012365 806.275365,360.923828 C807.118468,361.835291 808.305631,362.291016 809.836888,362.291016 C811.450178,362.291016 813.045214,361.953779 814.622045,361.279297 L814.622045,363.302734 C813.819957,363.64909 813.061176,363.89746 812.345677,364.047852 C811.630179,364.198243 810.766581,364.273438 809.754857,364.273438 Z M809.139623,350.642578 C807.936492,350.642578 806.977191,351.034501 806.261693,351.818359 C805.546195,352.602217 805.124649,353.686842 804.997045,355.072266 L812.831029,355.072266 C812.831029,353.641269 812.512022,352.545251 811.873998,351.78418 C811.235974,351.023108 810.324524,350.642578 809.139623,350.642578 Z M827.030855,348.742188 C827.696223,348.742188 828.293222,348.796874 828.82187,348.90625 L828.507417,351.011719 C827.887622,350.874999 827.340753,350.806641 826.866792,350.806641 C825.654547,350.806641 824.617773,351.298823 823.756441,352.283203 C822.895108,353.267583 822.464449,354.493482 822.464449,355.960938 L822.464449,364 L820.194917,364 L820.194917,349.015625 L822.067964,349.015625 L822.32773,351.791016 L822.437105,351.791016 C822.993097,350.81575 823.663012,350.063805 824.44687,349.535156 C825.230728,349.006508 826.092048,348.742188 827.030855,348.742188 Z M838.450038,369.263672 C837.593263,369.263672 836.91879,369.140626 836.4266,368.894531 L836.4266,366.912109 C837.073739,367.094402 837.748211,367.185547 838.450038,367.185547 C839.352386,367.185547 840.038252,366.912112 840.507655,366.365234 C840.977058,365.818357 841.211756,365.029953 841.211756,364 L841.211756,344.011719 L843.535975,344.011719 L843.535975,363.808594 C843.535975,365.540373 843.09848,366.882482 842.223475,367.834961 C841.348471,368.78744 840.090671,369.263672 838.450038,369.263672 Z M851.692832,349.015625 L851.692832,358.736328 C851.692832,359.957688 851.970824,360.869138 852.526817,361.470703 C853.082809,362.072269 853.953243,362.373047 855.138145,362.373047 C856.705861,362.373047 857.852008,361.944666 858.576621,361.087891 C859.301234,360.231116 859.663535,358.832041 859.663535,356.890625 L859.663535,349.015625 L861.933067,349.015625 L861.933067,364 L860.06002,364 L859.731895,361.990234 L859.608848,361.990234 C859.144002,362.728519 858.499152,363.293618 857.674278,363.685547 C856.849404,364.077476 855.908332,364.273438 854.851035,364.273438 C853.02811,364.273438 851.663215,363.840499 850.756309,362.974609 C849.849403,362.10872 849.395957,360.723317 849.395957,358.818359 L849.395957,349.015625 L851.692832,349.015625 Z M870.076252,364 L867.806721,364 L867.806721,349.015625 L870.076252,349.015625 L870.076252,364 Z M867.615314,344.955078 C867.615314,344.435544 867.742917,344.055014 867.998127,343.813477 C868.253337,343.571939 868.572344,343.451172 868.955158,343.451172 C869.319743,343.451172 869.634193,343.574218 869.898518,343.820312 C870.162842,344.066407 870.295002,344.444659 870.295002,344.955078 C870.295002,345.465497 870.162842,345.846027 869.898518,346.09668 C869.634193,346.347332 869.319743,346.472656 868.955158,346.472656 C868.572344,346.472656 868.253337,346.347332 867.998127,346.09668 C867.742917,345.846027 867.615314,345.465497 867.615314,344.955078 Z M881.938187,364.273438 C879.768906,364.273438 878.08956,363.605801 876.900101,362.270508 C875.710642,360.935215 875.115922,359.046236 875.115922,356.603516 C875.115922,354.096993 875.719757,352.160163 876.927445,350.792969 C878.135133,349.425774 879.855494,348.742188 882.088578,348.742188 C882.808634,348.742188 883.528678,348.819661 884.248734,348.974609 C884.96879,349.129558 885.533888,349.311848 885.944047,349.521484 L885.246781,351.449219 C884.745476,351.248697 884.198607,351.082357 883.606156,350.950195 C883.013705,350.818033 882.489622,350.751953 882.03389,350.751953 C878.989604,350.751953 877.467484,352.69334 877.467484,356.576172 C877.467484,358.417327 877.8389,359.830073 878.581742,360.814453 C879.324584,361.798833 880.425159,362.291016 881.8835,362.291016 C883.132204,362.291016 884.41279,362.022138 885.725297,361.484375 L885.725297,363.494141 C884.722687,364.013674 883.46033,364.273438 881.938187,364.273438 Z M896.671216,364.273438 C894.456361,364.273438 892.708658,363.598965 891.428052,362.25 C890.147447,360.901035 889.507154,359.028007 889.507154,356.630859 C889.507154,354.215483 890.101874,352.296882 891.291333,350.875 C892.480793,349.453118 894.078107,348.742188 896.083326,348.742188 C897.960939,348.742188 899.446601,349.359694 900.540357,350.594727 C901.634112,351.829759 902.180982,353.458974 902.180982,355.482422 L902.180982,356.917969 L891.858716,356.917969 C891.904289,358.677092 892.348621,360.012365 893.191724,360.923828 C894.034827,361.835291 895.22199,362.291016 896.753247,362.291016 C898.366537,362.291016 899.961573,361.953779 901.538404,361.279297 L901.538404,363.302734 C900.736316,363.64909 899.977535,363.89746 899.262037,364.047852 C898.546538,364.198243 897.68294,364.273438 896.671216,364.273438 Z M896.055982,350.642578 C894.852851,350.642578 893.893551,351.034501 893.178052,351.818359 C892.462554,352.602217 892.041009,353.686842 891.913404,355.072266 L899.747388,355.072266 C899.747388,353.641269 899.428381,352.545251 898.790357,351.78418 C898.152333,351.023108 897.240884,350.642578 896.055982,350.642578 Z M927.066962,358.681641 C927.066962,360.440764 926.428947,361.812495 925.152899,362.796875 C923.876851,363.781255 922.145098,364.273438 919.957587,364.273438 C917.587783,364.273438 915.764885,363.968102 914.488837,363.357422 L914.488837,361.115234 C915.309153,361.46159 916.202374,361.735025 917.168524,361.935547 C918.134675,362.136069 919.091697,362.236328 920.039618,362.236328 C921.589105,362.236328 922.75576,361.942386 923.539618,361.354492 C924.323476,360.766599 924.715399,359.948573 924.715399,358.900391 C924.715399,358.207679 924.576403,357.640302 924.298407,357.198242 C924.020411,356.756183 923.555572,356.348309 922.903876,355.974609 C922.25218,355.60091 921.260979,355.177086 919.930243,354.703125 C918.070859,354.037757 916.742421,353.249354 915.944891,352.337891 C915.147361,351.426428 914.748602,350.236987 914.748602,348.769531 C914.748602,347.229159 915.327373,346.00326 916.48493,345.091797 C917.642488,344.180334 919.173723,343.724609 921.07868,343.724609 C923.06567,343.724609 924.893125,344.089189 926.561102,344.818359 L925.836493,346.841797 C924.186745,346.149085 922.582595,345.802734 921.023993,345.802734 C919.793518,345.802734 918.831939,346.067055 918.139227,346.595703 C917.446516,347.124352 917.100165,347.858068 917.100165,348.796875 C917.100165,349.489587 917.227768,350.056964 917.482977,350.499023 C917.738187,350.941083 918.168847,351.346678 918.77497,351.71582 C919.381092,352.084963 920.308492,352.492836 921.557196,352.939453 C923.653561,353.686853 925.095929,354.488928 925.884345,355.345703 C926.67276,356.202478 927.066962,357.314446 927.066962,358.681641 Z M942.128116,364 L942.128116,354.306641 C942.128116,353.08528 941.850124,352.173831 941.294131,351.572266 C940.738139,350.9707 939.867705,350.669922 938.682803,350.669922 C937.105972,350.669922 935.955268,351.098303 935.230655,351.955078 C934.506042,352.811853 934.143741,354.215485 934.143741,356.166016 L934.143741,364 L931.874209,364 L931.874209,342.726562 L934.143741,342.726562 L934.143741,349.166016 C934.143741,349.940759 934.107283,350.583331 934.034366,351.09375 L934.171084,351.09375 C934.617701,350.373694 935.253437,349.806317 936.078311,349.391602 C936.903185,348.976886 937.844256,348.769531 938.901553,348.769531 C940.733594,348.769531 942.107603,349.204748 943.023624,350.075195 C943.939644,350.945642 944.397647,352.328767 944.397647,354.224609 L944.397647,364 L942.128116,364 Z M963.054504,356.494141 C963.054504,358.936861 962.439276,360.844069 961.208801,362.21582 C959.978326,363.587572 958.278473,364.273438 956.109192,364.273438 C954.769341,364.273438 953.5799,363.958988 952.540832,363.330078 C951.501765,362.701169 950.699689,361.798834 950.134582,360.623047 C949.569475,359.44726 949.286926,358.070971 949.286926,356.494141 C949.286926,354.05142 949.897597,352.14877 951.118957,350.786133 C952.340318,349.423496 954.035613,348.742188 956.204895,348.742188 C958.301259,348.742188 959.966933,349.439446 961.201965,350.833984 C962.436997,352.228523 963.054504,354.115222 963.054504,356.494141 Z M951.638488,356.494141 C951.638488,358.408213 952.021297,359.866531 952.786926,360.869141 C953.552555,361.87175 954.678195,362.373047 956.163879,362.373047 C957.649564,362.373047 958.777482,361.874028 959.547668,360.875977 C960.317854,359.877925 960.702942,358.417327 960.702942,356.494141 C960.702942,354.589183 960.317854,353.142258 959.547668,352.15332 C958.777482,351.164383 957.640449,350.669922 956.136535,350.669922 C954.650851,350.669922 953.529768,351.157547 952.773254,352.132812 C952.01674,353.108078 951.638488,354.561839 951.638488,356.494141 Z M975.06683,364.273438 C974.091565,364.273438 973.200623,364.093426 972.393978,363.733398 C971.587334,363.373371 970.910583,362.819665 970.363705,362.072266 L970.199642,362.072266 C970.309018,362.94727 970.363705,363.776689 970.363705,364.560547 L970.363705,370.726562 L968.094174,370.726562 L968.094174,349.015625 L969.939877,349.015625 L970.25433,351.066406 L970.363705,351.066406 C970.947041,350.24609 971.626071,349.653648 972.400814,349.289062 C973.175558,348.924477 974.064221,348.742188 975.06683,348.742188 C977.053819,348.742188 978.587332,349.421217 979.667416,350.779297 C980.747499,352.137377 981.287533,354.042305 981.287533,356.494141 C981.287533,358.95509 980.738385,360.866855 979.640072,362.229492 C978.541759,363.592129 977.017361,364.273438 975.06683,364.273438 Z M974.738705,350.669922 C973.207447,350.669922 972.100037,351.093746 971.416439,351.941406 C970.732842,352.789067 970.381934,354.138012 970.363705,355.988281 L970.363705,356.494141 C970.363705,358.59962 970.714613,360.10579 971.416439,361.012695 C972.118266,361.919601 973.243906,362.373047 974.793392,362.373047 C976.08767,362.373047 977.101657,361.848964 977.835385,360.800781 C978.569112,359.752599 978.935971,358.307952 978.935971,356.466797 C978.935971,354.598298 978.569112,353.165044 977.835385,352.166992 C977.101657,351.16894 976.069441,350.669922 974.738705,350.669922 Z M1007.66375,349.835938 C1007.66375,351.859385 1006.97332,353.415685 1005.59246,354.504883 C1004.21159,355.594081 1002.23603,356.138672 999.6657,356.138672 L997.314138,356.138672 L997.314138,364 L994.989919,364 L994.989919,344.011719 L1000.17156,344.011719 C1005.16638,344.011719 1007.66375,345.953106 1007.66375,349.835938 Z M997.314138,354.142578 L999.405935,354.142578 C1001.46584,354.142578 1002.95606,353.809899 1003.87664,353.144531 C1004.79722,352.479163 1005.2575,351.412768 1005.2575,349.945312 C1005.2575,348.623691 1004.82456,347.639326 1003.95867,346.992188 C1003.09278,346.345049 1001.74383,346.021484 999.911794,346.021484 L997.314138,346.021484 L997.314138,354.142578 Z M1014.83623,364 L1012.5667,364 L1012.5667,342.726562 L1014.83623,342.726562 L1014.83623,364 Z M1029.92473,364 L1029.47356,361.867188 L1029.36418,361.867188 C1028.61678,362.805994 1027.87167,363.44173 1027.12883,363.774414 C1026.38599,364.107098 1025.45859,364.273438 1024.3466,364.273438 C1022.86092,364.273438 1021.69654,363.890629 1020.85344,363.125 C1020.01034,362.359371 1019.58879,361.270189 1019.58879,359.857422 C1019.58879,356.831365 1022.00869,355.245443 1026.84856,355.099609 L1029.39152,355.017578 L1029.39152,354.087891 C1029.39152,352.912103 1029.1386,352.043948 1028.63274,351.483398 C1028.12687,350.922849 1027.31796,350.642578 1026.20598,350.642578 C1024.95727,350.642578 1023.54453,351.025387 1021.9677,351.791016 L1021.27043,350.054688 C1022.00872,349.653644 1022.81763,349.339194 1023.69719,349.111328 C1024.57675,348.883462 1025.45858,348.769531 1026.3427,348.769531 C1028.12916,348.769531 1029.45304,349.166012 1030.31438,349.958984 C1031.17571,350.751957 1031.60637,352.023429 1031.60637,353.773438 L1031.60637,364 L1029.92473,364 Z M1024.79777,362.400391 C1026.21054,362.400391 1027.32023,362.013025 1028.12688,361.238281 C1028.93352,360.463538 1029.33684,359.378913 1029.33684,357.984375 L1029.33684,356.630859 L1027.06731,356.726562 C1025.26261,356.790365 1023.96152,357.070636 1023.16399,357.567383 C1022.36646,358.06413 1021.9677,358.836583 1021.9677,359.884766 C1021.9677,360.705082 1022.21607,361.329425 1022.71281,361.757812 C1023.20956,362.1862 1023.90454,362.400391 1024.79777,362.400391 Z M1042.18315,362.400391 C1042.58419,362.400391 1042.97156,362.370769 1043.34526,362.311523 C1043.71896,362.252278 1044.01518,362.190756 1044.23393,362.126953 L1044.23393,363.863281 C1043.98783,363.981771 1043.62553,364.079752 1043.14701,364.157227 C1042.6685,364.234701 1042.23784,364.273438 1041.85502,364.273438 C1038.95657,364.273438 1037.50737,362.74676 1037.50737,359.693359 L1037.50737,350.779297 L1035.36088,350.779297 L1035.36088,349.685547 L1037.50737,348.742188 L1038.4644,345.542969 L1039.7769,345.542969 L1039.7769,349.015625 L1044.12455,349.015625 L1044.12455,350.779297 L1039.7769,350.779297 L1039.7769,359.597656 C1039.7769,360.500005 1039.99109,361.192706 1040.41947,361.675781 C1040.84786,362.158857 1041.43575,362.400391 1042.18315,362.400391 Z M1053.12907,362.400391 C1053.53011,362.400391 1053.91748,362.370769 1054.29118,362.311523 C1054.66488,362.252278 1054.9611,362.190756 1055.17985,362.126953 L1055.17985,363.863281 C1054.93375,363.981771 1054.57145,364.079752 1054.09293,364.157227 C1053.61442,364.234701 1053.18376,364.273438 1052.80094,364.273438 C1049.90249,364.273438 1048.45329,362.74676 1048.45329,359.693359 L1048.45329,350.779297 L1046.3068,350.779297 L1046.3068,349.685547 L1048.45329,348.742188 L1049.41032,345.542969 L1050.72282,345.542969 L1050.72282,349.015625 L1055.07047,349.015625 L1055.07047,350.779297 L1050.72282,350.779297 L1050.72282,359.597656 C1050.72282,360.500005 1050.93701,361.192706 1051.36539,361.675781 C1051.79378,362.158857 1052.38167,362.400391 1053.12907,362.400391 Z M1065.98905,350.779297 L1062.1746,350.779297 L1062.1746,364 L1059.90506,364 L1059.90506,350.779297 L1057.22538,350.779297 L1057.22538,349.753906 L1059.90506,348.933594 L1059.90506,348.099609 C1059.90506,344.417299 1061.51377,342.576172 1064.73124,342.576172 C1065.52421,342.576172 1066.45389,342.735675 1067.5203,343.054688 L1066.93241,344.873047 C1066.0574,344.590493 1065.31002,344.449219 1064.69022,344.449219 C1063.83345,344.449219 1063.19999,344.734047 1062.78983,345.303711 C1062.37967,345.873375 1062.1746,346.787103 1062.1746,348.044922 L1062.1746,349.015625 L1065.98905,349.015625 L1065.98905,350.779297 Z M1082.71817,356.494141 C1082.71817,358.936861 1082.10294,360.844069 1080.87247,362.21582 C1079.64199,363.587572 1077.94214,364.273438 1075.77286,364.273438 C1074.43301,364.273438 1073.24357,363.958988 1072.2045,363.330078 C1071.16543,362.701169 1070.36336,361.798834 1069.79825,360.623047 C1069.23314,359.44726 1068.95059,358.070971 1068.95059,356.494141 C1068.95059,354.05142 1069.56126,352.14877 1070.78262,350.786133 C1072.00398,349.423496 1073.69928,348.742188 1075.86856,348.742188 C1077.96493,348.742188 1079.6306,349.439446 1080.86563,350.833984 C1082.10066,352.228523 1082.71817,354.115222 1082.71817,356.494141 Z M1071.30216,356.494141 C1071.30216,358.408213 1071.68496,359.866531 1072.45059,360.869141 C1073.21622,361.87175 1074.34186,362.373047 1075.82755,362.373047 C1077.31323,362.373047 1078.44115,361.874028 1079.21134,360.875977 C1079.98152,359.877925 1080.36661,358.417327 1080.36661,356.494141 C1080.36661,354.589183 1079.98152,353.142258 1079.21134,352.15332 C1078.44115,351.164383 1077.30412,350.669922 1075.8002,350.669922 C1074.31452,350.669922 1073.19344,351.157547 1072.43692,352.132812 C1071.68041,353.108078 1071.30216,354.561839 1071.30216,356.494141 Z M1094.59378,348.742188 C1095.25915,348.742188 1095.85615,348.796874 1096.38479,348.90625 L1096.07034,351.011719 C1095.45055,350.874999 1094.90368,350.806641 1094.42972,350.806641 C1093.21747,350.806641 1092.1807,351.298823 1091.31936,352.283203 C1090.45803,353.267583 1090.02737,354.493482 1090.02737,355.960938 L1090.02737,364 L1087.75784,364 L1087.75784,349.015625 L1089.63089,349.015625 L1089.89065,351.791016 L1090.00003,351.791016 C1090.55602,350.81575 1091.22594,350.063805 1092.00979,349.535156 C1092.79365,349.006508 1093.65497,348.742188 1094.59378,348.742188 Z M1119.34829,364 L1119.34829,354.251953 C1119.34829,353.057937 1119.09309,352.162438 1118.58267,351.56543 C1118.07225,350.968421 1117.27929,350.669922 1116.20376,350.669922 C1114.79099,350.669922 1113.74738,351.075517 1113.0729,351.886719 C1112.39842,352.697921 1112.06118,353.946606 1112.06118,355.632812 L1112.06118,364 L1109.79165,364 L1109.79165,354.251953 C1109.79165,353.057937 1109.53645,352.162438 1109.02603,351.56543 C1108.51561,350.968421 1107.71809,350.669922 1106.63345,350.669922 C1105.21157,350.669922 1104.17024,351.096024 1103.50942,351.948242 C1102.84861,352.80046 1102.51821,354.197256 1102.51821,356.138672 L1102.51821,364 L1100.24868,364 L1100.24868,349.015625 L1102.09439,349.015625 L1102.46353,351.066406 L1102.5729,351.066406 C1103.00129,350.337236 1103.60512,349.76758 1104.38442,349.357422 C1105.16373,348.947264 1106.03644,348.742188 1107.00259,348.742188 C1109.34505,348.742188 1110.87628,349.589835 1111.59634,351.285156 L1111.70571,351.285156 C1112.15233,350.501298 1112.79946,349.881513 1113.64712,349.425781 C1114.49478,348.97005 1115.46092,348.742188 1116.54556,348.742188 C1118.24088,348.742188 1119.51007,349.177405 1120.35317,350.047852 C1121.19628,350.918299 1121.61782,352.310537 1121.61782,354.224609 L1121.61782,364 L1119.34829,364 Z" id="MultiUserJuiceShopPlattform" fill="#DD6031" fill-rule="nonzero"></path>
    </g>
</svg>