<?xml version="1.0" encoding="UTF-8"?>
<svg width="1280px" height="640px" viewBox="0 0 1280 640" version="1.1" xmlns="http://www.w3.org/2000/svg" xmlns:xlink="http://www.w3.org/1999/xlink">
    <!-- Generator: Sketch 61.2 (89653) - https://sketch.com -->
    <title>cover</title>
    <desc>Created with Sketch.</desc>
    <g id="cover" stroke="none" stroke-width="1" fill="none" fill-rule="evenodd">
        <g id="Group-3" transform="translate(83.000000, 94.000000)">
            <g id="Man" transform="translate(0.000000, 19.645805)">
                <g id="Group-2" transform="translate(35.500000, 34.645805)" stroke="#D8D8D8" stroke-linecap="square" stroke-width="4">
                    <line x1="29.5" y1="26.7083901" x2="95.5" y2="85.7083901" id="Line"></line>
                </g>
                <circle id="Oval" stroke="#D8D8D8" stroke-width="4" stroke-linecap="square" cx="36" cy="36" r="36"></circle>
                <g id="1-468" transform="translate(17.000000, 13.000000)">
                    <path d="M9,26 C6,26 5,19 5,12 C5,6 10,0 19,0 C28,0 33,6 33,12 C33,19 32,26 29,26" id="Path" fill="#F1B31C" fill-rule="nonzero"></path>
                    <path d="M0.1,49 L0.1,45.2 C0.1,40.2 5.1,36.2 10.1,36.2 C16.1,41.2 22.1,41.2 28.1,36.2 C33.1,36.2 38.1,40.2 38.1,45.2 L38.1,49 L0.1,49 Z" id="Path" fill="#D9614F" fill-rule="nonzero"></path>
                    <path d="M24.9,18 C24.9,19.1 24,20 22.9,20 C21.8,20 20.9,19.1 20.9,18 C20.9,16.9 21.8,16 22.9,16 C24,16 24.9,16.9 24.9,18" id="Path" fill="#040404" fill-rule="nonzero"></path>
                    <path d="M16.9,18 C16.9,19.1 16,20 14.9,20 C13.8,20 12.9,19.1 12.9,18 C12.9,16.9 13.8,16 14.9,16 C16,16 16.9,16.9 16.9,18" id="Path" fill="#040404" fill-rule="nonzero"></path>
                    <path d="M7.9,19 C7.8,27 12,33 18.9,33 C26,33 30,27 30,19 C30,14 27,9 27,9 C19,9 17,12 11,10 C11,10 8,14 7.9,19 Z" id="Path" fill="#FCEA2B" fill-rule="nonzero"></path>
                    <path d="M15.9,26.2 C18,27 20,27 21.9,26.2" id="Path" stroke="#040404" stroke-width="2" stroke-linecap="round" stroke-linejoin="round"></path>
                    <path d="M9,26 C6,26 5,19 5,12 C5,6 10,0 19,0 C28,0 33,6 33,12 C33,19 32,26 29,26" id="Path" stroke="#040404" stroke-width="2" stroke-linecap="round" stroke-linejoin="round"></path>
                    <path d="M0,48 L0,45 C0,40 5,36 10,36 C16,41 22,41 28,36 C33,36 38,40 38,45 L38,48" id="Path" stroke="#040404" stroke-width="2" stroke-linecap="round" stroke-linejoin="round"></path>
                    <path d="M24.9,18 C24.9,19.1 24,20 22.9,20 C21.8,20 20.9,19.1 20.9,18 C20.9,16.9 21.8,16 22.9,16 C24,16 24.9,16.9 24.9,18" id="Path" fill="#040404" fill-rule="nonzero"></path>
                    <path d="M16.9,18 C16.9,19.1 16,20 14.9,20 C13.8,20 12.9,19.1 12.9,18 C12.9,16.9 13.8,16 14.9,16 C16,16 16.9,16.9 16.9,18" id="Path" fill="#040404" fill-rule="nonzero"></path>
                    <path d="M7.9,19 C7.8,27 12.8,33 18.9,33 C24.9,33 30,27 30,19 C30,14 27,8 27,8 C19,8 17,11 11,9 C11,9 8,14 7.9,19 Z" id="Path" stroke="#040404" stroke-width="2" stroke-linejoin="round"></path>
                    <path d="M15.9,26.2 C18,27 20,27 21.9,26.2" id="Path" stroke="#040404" stroke-width="2" stroke-linecap="round" stroke-linejoin="round"></path>
                </g>
            </g>
            <g id="Man" transform="translate(226.500000, 224.645805)">
                <line x1="177.5" y1="81.354195" x2="127.5" y2="58.354195" id="Line" stroke="#D8D8D8" stroke-width="4" stroke-linecap="square"></line>
                <circle id="Oval" stroke="#D8D8D8" stroke-width="4" stroke-linecap="square" cx="210.5" cy="96" r="36"></circle>
                <g id="1-468" transform="translate(190.500000, 72.000000)">
                    <path d="M9,26 C6,26 5,19 5,12 C5,6 10,0 19,0 C28,0 33,6 33,12 C33,19 32,26 29,26" id="Path" fill="#F1B31C" fill-rule="nonzero"></path>
                    <path d="M0.1,49 L0.1,45.2 C0.1,40.2 5.1,36.2 10.1,36.2 C16.1,41.2 22.1,41.2 28.1,36.2 C33.1,36.2 38.1,40.2 38.1,45.2 L38.1,49 L0.1,49 Z" id="Path" fill="#E4805A" fill-rule="nonzero"></path>
                    <path d="M24.9,18 C24.9,19.1 24,20 22.9,20 C21.8,20 20.9,19.1 20.9,18 C20.9,16.9 21.8,16 22.9,16 C24,16 24.9,16.9 24.9,18" id="Path" fill="#040404" fill-rule="nonzero"></path>
                    <path d="M16.9,18 C16.9,19.1 16,20 14.9,20 C13.8,20 12.9,19.1 12.9,18 C12.9,16.9 13.8,16 14.9,16 C16,16 16.9,16.9 16.9,18" id="Path" fill="#040404" fill-rule="nonzero"></path>
                    <path d="M7.9,19 C7.8,27 12,33 18.9,33 C26,33 30,27 30,19 C30,14 27,9 27,9 C19,9 17,12 11,10 C11,10 8,14 7.9,19 Z" id="Path" fill="#FCEA2B" fill-rule="nonzero"></path>
                    <path d="M15.9,26.2 C18,27 20,27 21.9,26.2" id="Path" stroke="#040404" stroke-width="2" stroke-linecap="round" stroke-linejoin="round"></path>
                    <path d="M9,26 C6,26 5,19 5,12 C5,6 10,0 19,0 C28,0 33,6 33,12 C33,19 32,26 29,26" id="Path" stroke="#040404" stroke-width="2" stroke-linecap="round" stroke-linejoin="round"></path>
                    <path d="M0,48 L0,45 C0,40 5,36 10,36 C16,41 22,41 28,36 C33,36 38,40 38,45 L38,48" id="Path" stroke="#040404" stroke-width="2" stroke-linecap="round" stroke-linejoin="round"></path>
                    <path d="M24.9,18 C24.9,19.1 24,20 22.9,20 C21.8,20 20.9,19.1 20.9,18 C20.9,16.9 21.8,16 22.9,16 C24,16 24.9,16.9 24.9,18" id="Path" fill="#040404" fill-rule="nonzero"></path>
                    <path d="M16.9,18 C16.9,19.1 16,20 14.9,20 C13.8,20 12.9,19.1 12.9,18 C12.9,16.9 13.8,16 14.9,16 C16,16 16.9,16.9 16.9,18" id="Path" fill="#040404" fill-rule="nonzero"></path>
                    <path d="M7.9,19 C7.8,27 12.8,33 18.9,33 C24.9,33 30,27 30,19 C30,14 27,8 27,8 C19,8 17,11 11,9 C11,9 8,14 7.9,19 Z" id="Path" stroke="#040404" stroke-width="2" stroke-linejoin="round"></path>
                    <path d="M15.9,26.2 C18,27 20,27 21.9,26.2" id="Path" stroke="#040404" stroke-width="2" stroke-linecap="round" stroke-linejoin="round"></path>
                </g>
            </g>
            <g id="Men" transform="translate(56.000000, 224.645805)">
                <line x1="64" y1="100.354195" x2="77" y2="88.354195" id="Line" stroke="#D8D8D8" stroke-width="4" stroke-linecap="square"></line>
                <circle id="Oval" stroke="#D8D8D8" stroke-width="4" stroke-linecap="square" cx="36" cy="124" r="36"></circle>
                <g id="1-468" transform="translate(17.000000, 100.000000)">
                    <path d="M9,26 C6,26 5,19 5,12 C5,6 10,0 19,0 C28,0 33,6 33,12 C33,19 32,26 29,26" id="Path" fill="#F1B31C" fill-rule="nonzero"></path>
                    <path d="M0.1,49 L0.1,45.2 C0.1,40.2 5.1,36.2 10.1,36.2 C16.1,41.2 22.1,41.2 28.1,36.2 C33.1,36.2 38.1,40.2 38.1,45.2 L38.1,49 L0.1,49 Z" id="Path" fill="#92D3F5" fill-rule="nonzero"></path>
                    <path d="M24.9,18 C24.9,19.1 24,20 22.9,20 C21.8,20 20.9,19.1 20.9,18 C20.9,16.9 21.8,16 22.9,16 C24,16 24.9,16.9 24.9,18" id="Path" fill="#040404" fill-rule="nonzero"></path>
                    <path d="M16.9,18 C16.9,19.1 16,20 14.9,20 C13.8,20 12.9,19.1 12.9,18 C12.9,16.9 13.8,16 14.9,16 C16,16 16.9,16.9 16.9,18" id="Path" fill="#040404" fill-rule="nonzero"></path>
                    <path d="M7.9,19 C7.8,27 12,33 18.9,33 C26,33 30,27 30,19 C30,14 27,9 27,9 C19,9 17,12 11,10 C11,10 8,14 7.9,19 Z" id="Path" fill="#FCEA2B" fill-rule="nonzero"></path>
                    <path d="M15.9,26.2 C18,27 20,27 21.9,26.2" id="Path" stroke="#040404" stroke-width="2" stroke-linecap="round" stroke-linejoin="round"></path>
                    <path d="M9,26 C6,26 5,19 5,12 C5,6 10,0 19,0 C28,0 33,6 33,12 C33,19 32,26 29,26" id="Path" stroke="#040404" stroke-width="2" stroke-linecap="round" stroke-linejoin="round"></path>
                    <path d="M0,48 L0,45 C0,40 5,36 10,36 C16,41 22,41 28,36 C33,36 38,40 38,45 L38,48" id="Path" stroke="#040404" stroke-width="2" stroke-linecap="round" stroke-linejoin="round"></path>
                    <path d="M24.9,18 C24.9,19.1 24,20 22.9,20 C21.8,20 20.9,19.1 20.9,18 C20.9,16.9 21.8,16 22.9,16 C24,16 24.9,16.9 24.9,18" id="Path" fill="#040404" fill-rule="nonzero"></path>
                    <path d="M16.9,18 C16.9,19.1 16,20 14.9,20 C13.8,20 12.9,19.1 12.9,18 C12.9,16.9 13.8,16 14.9,16 C16,16 16.9,16.9 16.9,18" id="Path" fill="#040404" fill-rule="nonzero"></path>
                    <path d="M7.9,19 C7.8,27 12.8,33 18.9,33 C24.9,33 30,27 30,19 C30,14 27,8 27,8 C19,8 17,11 11,9 C11,9 8,14 7.9,19 Z" id="Path" stroke="#040404" stroke-width="2" stroke-linejoin="round"></path>
                    <path d="M15.9,26.2 C18,27 20,27 21.9,26.2" id="Path" stroke="#040404" stroke-width="2" stroke-linecap="round" stroke-linejoin="round"></path>
                </g>
            </g>
            <g id="Women" transform="translate(227.000000, 226.645805)">
                <line x1="34" y1="154.354195" x2="29" y2="130.354195" id="Line" stroke="#D8D8D8" stroke-width="4" stroke-linecap="square"></line>
                <circle id="Oval" stroke="#D8D8D8" stroke-width="4" stroke-linecap="square" cx="41" cy="190" r="36"></circle>
                <g id="1-467" transform="translate(20.000000, 164.000000)">
                    <path d="M35.6,34.7 C38.5,31.6 39.3,27.9 37.6,23.9 C35.2,18.2 34.6,18.3 34.2,11.1 C34.2,6.9 31,3.4 26.8,3.1 C26.8,3.1 24.2,0.1 18.8,0.1 C12.4,0.1 6.6,3.6 5.1,9.1 C3.6,14.7 5.4,16.9 3.8,21.1 C2,25.8 -2,29.5 2.5,35 C5.3,38.5 11.7,42.1 19.7,42.1 C25.7,42 32.6,37.9 35.6,34.7 Z" id="Path" fill="#F1B31C" fill-rule="nonzero"></path>
                    <path d="M1,48.9 L1,45 C1,40 4.8,36 9.8,36 C15.8,41 21.8,41 27.8,36 C32.8,36 37,40 37,45 L37,48.9 L1,48.9 Z" id="Path" fill="#FDE071" fill-rule="nonzero"></path>
                    <path d="M8,20 C8,28 12.8,32.9 18.8,32.9 C24.8,32.9 30,28 30,20 C30,16 29,14 29,14 C27,12 25,10 25,10 C25,10 13,12 9,14 C9,14 8,16 8,20 Z" id="Path" fill="#FCEA2B" fill-rule="nonzero"></path>
                    <path d="M1,48 L1,44.9 C1,39.9 4.8,35.9 9.8,35.9 C15.8,40.9 21.8,40.9 27.8,35.9 C32.8,35.9 37,39.9 37,44.9 L37,48" id="Path" stroke="#040404" stroke-width="2" stroke-linecap="round" stroke-linejoin="round"></path>
                    <path d="M25,19 C25,20.1 24.1,21 23,21 C21.9,21 21,20.1 21,19 C21,17.9 21.9,17 23,17 C24.1,17 25,17.9 25,19" id="Path" fill="#040404" fill-rule="nonzero"></path>
                    <path d="M17,19 C17,20.1 16.1,21 15,21 C13.9,21 13,20.1 13,19 C13,17.9 13.9,17 15,17 C16.1,17 17,17.9 17,19" id="Path" fill="#040404" fill-rule="nonzero"></path>
                    <path d="M8,20 C8,28 12.8,32.9 18.8,32.9 C24.8,32.9 30,28 30,20 C30,16 29,14 29,14 C27,12 25,10 25,10 C25,10 13,12 9,14 C9,14 8,16 8,20 Z" id="Path" stroke="#040404" stroke-width="2" stroke-linejoin="round"></path>
                    <path d="M15.8,26.2 C17.7,27.2 19.9,27.2 21.8,26.2" id="Path" stroke="#040404" stroke-width="2" stroke-linecap="round" stroke-linejoin="round"></path>
                    <path d="M3,34 C-1,28 1.2,25.7 3.1,21 C4.7,16.8 2.9,14.5 4.4,9 C5.9,3.5 11.7,0 18.1,0 C23.5,0 26.1,3 26.1,3 C30.3,3.4 33.5,6.9 33.5,11 C33.9,18.2 34.5,18.2 36.9,23.8 C38.7,27.9 37.9,30.6 35,33.9" id="Path" stroke="#040404" stroke-width="2" stroke-linecap="round" stroke-linejoin="round"></path>
                </g>
            </g>
            <g id="Women" transform="translate(225.000000, 0.000000)">
                <line x1="64" y1="70" x2="53" y2="98" id="Line" stroke="#D8D8D8" stroke-width="4" stroke-linecap="square"></line>
                <circle id="Oval" stroke="#D8D8D8" stroke-width="4" stroke-linecap="square" cx="77" cy="36" r="36"></circle>
                <g id="1-467" transform="translate(58.000000, 12.000000)">
                    <path d="M35.6,34.7 C38.5,31.6 39.3,27.9 37.6,23.9 C35.2,18.2 34.6,18.3 34.2,11.1 C34.2,6.9 31,3.4 26.8,3.1 C26.8,3.1 24.2,0.1 18.8,0.1 C12.4,0.1 6.6,3.6 5.1,9.1 C3.6,14.7 5.4,16.9 3.8,21.1 C2,25.8 -2,29.5 2.5,35 C5.3,38.5 11.7,42.1 19.7,42.1 C25.7,42 32.6,37.9 35.6,34.7 Z" id="Path" fill="#F1B31C" fill-rule="nonzero"></path>
                    <path d="M1,48.9 L1,45 C1,40 4.8,36 9.8,36 C15.8,41 21.8,41 27.8,36 C32.8,36 37,40 37,45 L37,48.9 L1,48.9 Z" id="Path" fill="#92D3F5" fill-rule="nonzero"></path>
                    <path d="M8,20 C8,28 12.8,32.9 18.8,32.9 C24.8,32.9 30,28 30,20 C30,16 29,14 29,14 C27,12 25,10 25,10 C25,10 13,12 9,14 C9,14 8,16 8,20 Z" id="Path" fill="#FCEA2B" fill-rule="nonzero"></path>
                    <path d="M1,48 L1,44.9 C1,39.9 4.8,35.9 9.8,35.9 C15.8,40.9 21.8,40.9 27.8,35.9 C32.8,35.9 37,39.9 37,44.9 L37,48" id="Path" stroke="#040404" stroke-width="2" stroke-linecap="round" stroke-linejoin="round"></path>
                    <path d="M25,19 C25,20.1 24.1,21 23,21 C21.9,21 21,20.1 21,19 C21,17.9 21.9,17 23,17 C24.1,17 25,17.9 25,19" id="Path" fill="#040404" fill-rule="nonzero"></path>
                    <path d="M17,19 C17,20.1 16.1,21 15,21 C13.9,21 13,20.1 13,19 C13,17.9 13.9,17 15,17 C16.1,17 17,17.9 17,19" id="Path" fill="#040404" fill-rule="nonzero"></path>
                    <path d="M8,20 C8,28 12.8,32.9 18.8,32.9 C24.8,32.9 30,28 30,20 C30,16 29,14 29,14 C27,12 25,10 25,10 C25,10 13,12 9,14 C9,14 8,16 8,20 Z" id="Path" stroke="#040404" stroke-width="2" stroke-linejoin="round"></path>
                    <path d="M15.8,26.2 C17.7,27.2 19.9,27.2 21.8,26.2" id="Path" stroke="#040404" stroke-width="2" stroke-linecap="round" stroke-linejoin="round"></path>
                    <path d="M3,34 C-1,28 1.2,25.7 3.1,21 C4.7,16.8 2.9,14.5 4.4,9 C5.9,3.5 11.7,0 18.1,0 C23.5,0 26.1,3 26.1,3 C30.3,3.4 33.5,6.9 33.5,11 C33.9,18.2 34.5,18.2 36.9,23.8 C38.7,27.9 37.9,30.6 35,33.9" id="Path" stroke="#040404" stroke-width="2" stroke-linecap="round" stroke-linejoin="round"></path>
                </g>
            </g>
            <g id="Women" transform="translate(225.000000, 98.000000)">
                <line x1="144" y1="54" x2="126" y2="63" id="Line" stroke="#D8D8D8" stroke-width="4" stroke-linecap="square"></line>
                <circle id="Oval" stroke="#D8D8D8" stroke-width="4" stroke-linecap="square" cx="177" cy="36.645805" r="36"></circle>
                <g id="1-467" transform="translate(158.000000, 12.645805)">
                    <path d="M35.6,34.7 C38.5,31.6 39.3,27.9 37.6,23.9 C35.2,18.2 34.6,18.3 34.2,11.1 C34.2,6.9 31,3.4 26.8,3.1 C26.8,3.1 24.2,0.1 18.8,0.1 C12.4,0.1 6.6,3.6 5.1,9.1 C3.6,14.7 5.4,16.9 3.8,21.1 C2,25.8 -2,29.5 2.5,35 C5.3,38.5 11.7,42.1 19.7,42.1 C25.7,42 32.6,37.9 35.6,34.7 Z" id="Path" fill="#F1B31C" fill-rule="nonzero"></path>
                    <path d="M1,48.9 L1,45 C1,40 4.8,36 9.8,36 C15.8,41 21.8,41 27.8,36 C32.8,36 37,40 37,45 L37,48.9 L1,48.9 Z" id="Path" fill="#D9614F" fill-rule="nonzero"></path>
                    <path d="M8,20 C8,28 12.8,32.9 18.8,32.9 C24.8,32.9 30,28 30,20 C30,16 29,14 29,14 C27,12 25,10 25,10 C25,10 13,12 9,14 C9,14 8,16 8,20 Z" id="Path" fill="#FCEA2B" fill-rule="nonzero"></path>
                    <path d="M1,48 L1,44.9 C1,39.9 4.8,35.9 9.8,35.9 C15.8,40.9 21.8,40.9 27.8,35.9 C32.8,35.9 37,39.9 37,44.9 L37,48" id="Path" stroke="#040404" stroke-width="2" stroke-linecap="round" stroke-linejoin="round"></path>
                    <path d="M25,19 C25,20.1 24.1,21 23,21 C21.9,21 21,20.1 21,19 C21,17.9 21.9,17 23,17 C24.1,17 25,17.9 25,19" id="Path" fill="#040404" fill-rule="nonzero"></path>
                    <path d="M17,19 C17,20.1 16.1,21 15,21 C13.9,21 13,20.1 13,19 C13,17.9 13.9,17 15,17 C16.1,17 17,17.9 17,19" id="Path" fill="#040404" fill-rule="nonzero"></path>
                    <path d="M8,20 C8,28 12.8,32.9 18.8,32.9 C24.8,32.9 30,28 30,20 C30,16 29,14 29,14 C27,12 25,10 25,10 C25,10 13,12 9,14 C9,14 8,16 8,20 Z" id="Path" stroke="#040404" stroke-width="2" stroke-linejoin="round"></path>
                    <path d="M15.8,26.2 C17.7,27.2 19.9,27.2 21.8,26.2" id="Path" stroke="#040404" stroke-width="2" stroke-linecap="round" stroke-linejoin="round"></path>
                    <path d="M3,34 C-1,28 1.2,25.7 3.1,21 C4.7,16.8 2.9,14.5 4.4,9 C5.9,3.5 11.7,0 18.1,0 C23.5,0 26.1,3 26.1,3 C30.3,3.4 33.5,6.9 33.5,11 C33.9,18.2 34.5,18.2 36.9,23.8 C38.7,27.9 37.9,30.6 35,33.9" id="Path" stroke="#040404" stroke-width="2" stroke-linecap="round" stroke-linejoin="round"></path>
                </g>
            </g>
            <g id="JuiceShop" transform="translate(109.000000, 99.645805)">
                <circle id="Oval" stroke="#D8D8D8" stroke-width="4" fill="#FFFFFF" cx="125" cy="125" r="125"></circle>
                <g id="logo" transform="translate(47.000000, 37.000000)">
                    <g id="Layer_3" transform="translate(0.000000, 122.000000)" fill="#CF3A23">
                        <path d="M156.753714,26.1159385 C159.264665,3.38012849 124.111646,-0.478759777 80.8645878,0.225653631 C43.8118387,0.829005587 35.6148807,8.00436872 23.3648359,22.6575251 C15.0483302,32.6054413 0.121195611,33.4100112 0.121195611,42.5607486 C0.121195611,54.4268715 35.0145954,43.2828101 67.532771,45.2940838 C83.2615344,46.266838 90.3524513,55.2314413 104.33474,53.8278939 C115.48129,52.7089777 110.523805,48.2928939 128.004587,42.0587598 C143.072392,36.6851564 155.446629,37.9523464 156.753714,26.1159385 Z" id="Path"></path>
                    </g>
                    <g id="Layer_4" transform="translate(21.000000, 122.000000)">
                        <path d="M135.754573,26.1159385 C138.256764,3.38012849 103.215491,-0.981050279 60.130213,0.225653631 C51.5041405,0.467296089 83.0636048,20.4468436 77.2653172,22.6575251 C72.5480132,24.4561173 46.7940022,25.5670391 34.2539363,22.6575251 C22.7557409,19.9898045 10.7071262,31.3878771 7.64093085,35.5223464 C-2.84375851,49.6593352 21.6093699,31.2264804 52.7654621,40.4496201 C68.3908321,45.0752179 69.5849748,55.2314413 83.5184808,53.8278939 C94.6261427,52.7089777 89.6859539,48.2928939 107.105748,42.0587598 C122.120984,36.6851564 134.452048,37.9523464 135.754573,26.1159385 Z" id="Path" fill="#DD6031"></path>
                        <path d="M125.270332,29.4826425 C122.772918,28.8863799 124.984299,26.622905 125.746854,23.3610335 C126.509409,20.099162 125.534718,17.0750112 128.032281,17.6709721 C130.529695,18.2672346 131.935824,21.3945587 131.17312,24.6564302 C130.410564,27.918 127.767745,30.0787542 125.270332,29.4826425 Z" id="Path" fill="#FFFFFF"></path>
                        <ellipse id="Oval" fill="#DD6031" cx="36.8913809" cy="19.9232849" rx="4.52830735" ry="2.04928492"></ellipse>
                        <ellipse id="Oval" fill="#DD6031" cx="42.4148321" cy="16.2150838" rx="2.68715697" ry="1"></ellipse>
                        <ellipse id="Oval" fill="#DD6031" cx="2.15733919" cy="43.0140168" rx="2.13972338" ry="1.45830168"></ellipse>
                        <ellipse id="Oval" fill="#FFFFFF" cx="118.613199" cy="31.567676" rx="2.87376509" ry="2.43905028"></ellipse>
                        <ellipse id="Oval" fill="#CF3A23" transform="translate(76.121281, 47.937098) rotate(18.663247) translate(-76.121281, -47.937098) " cx="76.1212814" cy="47.9370983" rx="6.22280836" ry="2.81018843"></ellipse>
                        <ellipse id="Oval" fill="#CF3A23" transform="translate(84.916098, 45.566353) rotate(18.663247) translate(-84.916098, -45.566353) " cx="84.9160976" cy="45.5663534" rx="3.69273513" ry="1"></ellipse>
                    </g>
                    <g id="Juice_Box" transform="translate(52.000000, 0.000000)">
                        <polygon id="Path" fill="#FDD84E" points="25.6015288 0.104597523 71.7548654 5.81092363 72.5496875 11.8962848 92.9326346 38.6124974 46.755601 40.8264035 25.1025481 8.92146543"></polygon>
                        <polygon id="Path" fill="#CCA941" points="28.4343029 13.7916099 47.5110769 41.674257 2.99850481 37.8675955 1.79829808 37.6769556"></polygon>
                        <polygon id="Path" fill="#BF8C3A" points="25.6015288 0.104597523 23.5777356 0.104597523 23.4664038 8.90335913 0.116846154 37.5591899 1.79829808 37.6769556 28.4343029 13.7916099 25.1025481 8.92146543"></polygon>
                        <path d="M63.9170817,23.7750619 C65.4857115,25.1381218 70.3884808,28.4812023 73.1164808,25.9548504 C73.1164808,25.9548504 68.9997404,30.4824716 68.1268221,31.4950774 C66.5443317,33.3308462 62.4255048,32.3550516 58.9274231,29.315289 C55.4294904,26.275676 53.8769567,22.3231166 55.4595962,20.4871981 C56.00925,19.8497368 60.4492548,14.9469711 60.4492548,14.9469711 C58.7634808,17.1336429 61.6339615,21.791001 63.9170817,23.7750619 Z" id="Path" fill="#712012"></path>
                        <ellipse id="Oval" fill="#CF3A23" transform="translate(66.778073, 20.452623) rotate(-49.124009) translate(-66.778073, -20.452623) " cx="66.7780728" cy="20.4526233" rx="4.38870548" ry="8.39085407"></ellipse>
                        <polygon id="Path" fill="#CCA941" points="8.463 133.003607 46.4350192 144.881935 84.6413269 134.151486 92.9326346 38.6124974 46.755601 40.8264035 0.116846154 37.5591899"></polygon>
                        <polygon id="Path" fill="#FDD84E" points="80.5976154 131.158261 46.755601 140.136589 47.5168894 44.6264809 88.7947308 42.422451"></polygon>
                    </g>
                    <g id="Layer_5" transform="translate(67.000000, 57.000000)" fill="#FFFFFF">
                        <polygon id="Path" points="63.2010354 60.0571435 36.6420708 65.8929567 36.6420708 54.74918 55.5310265 49.9385467 55.4404602 40.6170615 36.9739469 44.7265011 37.4779292 2.53070159 67.9905221 0.0879498861 67.0783894 11.5080547 46.3135664 14.4255854 46.2240531 31.4964328 65.7534425 28.0952528"></polygon>
                        <polygon id="Path" points="0.912283186 60.0571435 27.4713982 65.8929567 27.4713982 54.74918 27.1393717 44.7265011 26.6353894 2.53070159 17.3186372 1.82695216 17.7997522 14.4255854 18.221292 54.2482415 0.144424779 50.4414396"></polygon>
                    </g>
                    <g id="Layer_7" transform="translate(72.000000, 59.000000)">
                        <path d="M0.117090909,3.42692881 C0.117090909,1.54686102 0.817545455,0.0226711864 1.68168831,0.0226711864 L3.50705195,0.0226711864 C4.37104545,0.0226711864 5.0717987,1.54671186 5.0717987,3.42692881 L5.0717987,81.5382644 C5.0717987,83.4181831 4.37119481,84.9422237 3.50705195,84.9422237 L1.68168831,84.9422237 C0.817694805,84.9422237 0.117090909,83.4180339 0.117090909,81.5382644 L0.117090909,3.42692881 Z" id="Path" fill="#CF3A23"></path>
                        <path d="M41.0445455,53.1749695 C41.0445455,52.3735729 41.745,51.7238644 42.6091429,51.7238644 L44.4345065,51.7238644 C45.2985,51.7238644 45.9992532,52.3734237 45.9992532,53.1749695 L45.9992532,78.0810576 L45.9992532,80.3763661 L45.9992532,86.4738712 C45.9992532,87.2752678 45.2986494,87.9251254 44.4345065,87.9251254 L42.6091429,87.9251254 C41.7451494,87.9251254 41.0445455,87.2752678 41.0445455,86.4738712 L41.0445455,81.7603525 L41.0445455,79.6471593 L41.0445455,53.1749695 Z" id="Path" fill="#DD6031"></path>
                    </g>
                    <g id="Layer_6" transform="translate(2.000000, 17.000000)">
                        <path d="M39.8592569,0.00791517324 C39.8592569,0.00791517324 40.2533955,0.245519713 38.4996141,1.67906213 C36.7458326,3.11260454 36.0674392,3.10737754 36.0674392,3.10737754 L71.2748987,45.6238053 C71.2748987,45.6238053 72.8045533,46.0721326 74.091291,44.9770012 C75.3780288,43.8818698 75.3031695,42.8098865 75.3031695,42.8098865 L39.8592569,0.00791517324 Z" id="Path" fill="#050402"></path>
                        <path d="M140.030136,120.974462 L115.767013,91.6741338 C115.767013,91.6741338 115.03736,91.4090502 113.083203,92.2189367 C111.261777,92.9741637 111.523334,94.2280466 111.523334,94.2280466 L136.238319,124.073925 L140.967531,124.999701 L140.030136,120.974462 Z" id="Path" fill="#050402"></path>
                        <g id="Group" transform="translate(0.000000, 2.986858)" fill-rule="nonzero">
                            <polygon id="Path" fill="#712012" points="8.96492431 37.2979391 0.0637356077 52.5341995 30.2571269 72.6142473 39.8777463 57.8260155"></polygon>
                            <path d="M2.85246908,38.0053763 C2.85246908,38.0053763 10.9718443,26.5141876 17.0922665,19.765681 C23.2129893,13.0171744 36.0672889,0.120669056 36.0672889,0.120669056 L61.4157217,30.7314815 C61.4157217,30.7314815 49.2300448,40.3015233 45.1503646,44.3615591 C41.0706844,48.421595 32.0853166,60.0008961 32.0853166,60.0008961 L2.85246908,38.0053763 Z" id="Path" fill="#CF3A23"></path>
                        </g>
                    </g>
                </g>
            </g>
        </g>
        <g id="Group-4" transform="translate(649.000000, 206.000000)">
            <text id="MultiJuicer" font-family="OpenSans-Extrabold, Open Sans" font-size="96" font-weight="600">
                <tspan x="0" y="103" fill="#CF3A23">Multi</tspan>
                <tspan x="263.53125" y="103" fill="#872B12">Juicer</tspan>
            </text>
            <text id="Multi-User-Plattform" font-family="OpenSans, Open Sans" font-size="27" font-weight="normal" letter-spacing="0.19" fill="#872B12">
                <tspan x="5" y="158">Multi User Plattform for OWASP Juice Shop</tspan>
            </text>
        </g>
    </g>
</svg>