<svg width="1081" height="323" viewBox="0 0 1081 323" fill="none" xmlns="http://www.w3.org/2000/svg">
<path d="M124.198 162.493C118.71 173.47 115.974 185.14 115.771 196.666C115.771 197.216 115.757 197.768 115.757 198.332C115.757 199.027 115.771 199.737 115.8 200.432C115.8 200.793 115.814 201.142 115.843 201.488C115.888 202.38 115.956 203.268 116.04 204.15C118.004 230.214 132.685 254.71 156.966 268.126L161.788 258.525C160.978 258.076 160.182 257.598 159.399 257.106C129.223 238.557 117.668 199.562 133.813 167.315C139.691 155.557 148.496 146.203 158.892 139.701C177.833 127.843 202.116 125.439 223.764 135.111L228.6 125.482C189.751 107.86 143.442 124.034 124.198 162.493Z" fill="#F15A29"/>
<path d="M220.76 140.814C207.115 134.829 192.373 134.103 178.913 137.834L196.231 189.838L220.76 140.814Z" fill="#FBB040"/>
<path d="M187.231 197.637L147.295 210.929L135.219 214.955C131.496 201.503 132.22 186.763 138.201 173.108L145.861 176.945L187.231 197.637Z" fill="#FBB040"/>
<path d="M190.112 191.874L147.744 170.675L141.097 167.344C148.119 154.92 158.85 145.754 171.172 140.542C171.707 140.311 172.244 140.093 172.794 139.876L190.112 191.874Z" fill="#FBB040"/>
<path d="M189.272 203.762L170.289 241.686L164.743 252.777C151.769 245.449 142.342 234.083 137.26 221.08L149.683 216.939L189.272 203.762Z" fill="#FBB040"/>
<path d="M78.071 281.554C78.071 281.554 79.8615 287.653 84.189 291.868C83.7399 291.94 83.2907 292.02 82.8416 292.132C74.5926 294.2 69.6744 302.935 69.6744 302.935C69.6744 302.935 78.1305 308.318 86.3794 306.251C86.8286 306.138 87.2614 305.999 87.69 305.849C85.8626 311.608 87.1588 317.831 87.1588 317.831C87.1588 317.831 93.9659 315.737 97.1244 309.473C99.4707 304.822 99.1466 299.184 98.8246 296.589C99.2922 295.896 99.5466 295.449 99.5466 295.449C99.5466 295.449 99.1118 295.176 98.3714 294.786C97.432 292.346 95.0611 287.22 90.7992 284.226C85.0607 280.192 78.071 281.554 78.071 281.554Z" fill="#8DC63F"/>
<path d="M91.2403 276.042C92.4935 270.442 96.4969 266.183 105.511 263.922C114.106 261.769 125.756 261.802 136.21 264.043C136.925 264.195 137.627 264.355 138.324 264.536L138.418 264.556C145.835 266.931 150.22 275.408 150.373 283.536L144.249 285.07C144.971 288.915 144.873 292.849 145.031 296.76C145.094 298.323 145.209 299.906 145.627 301.402C143.938 305.019 142.01 308.563 140.236 312.11C140.123 312.327 140.022 312.548 139.909 312.766C133.375 317.102 126.277 320.428 120.058 321.987C109.049 324.748 103.245 321.353 99.5057 314.792C98.6033 313.195 97.8177 311.412 97.104 309.493C95.8099 305.967 94.77 301.957 93.7117 297.734C92.5242 292.978 91.4331 288.485 90.9983 284.383C90.6702 281.37 90.6825 278.57 91.2403 276.042Z" fill="#ED1C24"/>
<path d="M93.7117 297.733L98.9211 296.423L98.9334 296.425L107.728 294.216L144.249 285.071C144.971 288.914 144.873 292.848 145.031 296.759C145.094 298.322 145.209 299.905 145.627 301.401C143.937 305.018 142.01 308.565 140.235 312.109C140.123 312.328 140.022 312.547 139.909 312.765C133.377 317.103 126.277 320.429 120.058 321.988C109.049 324.749 103.244 321.352 99.5056 314.791C98.6032 313.196 97.8177 311.413 97.1039 309.494C95.8098 305.966 94.77 301.956 93.7117 297.733Z" fill="#ED3B48"/>
<path d="M91.2403 276.041C92.4935 270.442 96.4969 266.182 105.511 263.922C114.106 261.769 125.756 261.801 136.21 264.043C136.925 264.195 137.627 264.355 138.324 264.535L138.418 264.556C145.835 266.931 150.22 275.407 150.373 283.535L144.249 285.069L107.728 294.215L98.9314 296.424L98.9212 296.422L93.7117 297.734C92.5242 292.978 91.4331 288.484 90.9983 284.382C90.6702 281.37 90.6825 278.57 91.2403 276.041Z" fill="#ED1C24"/>
<path d="M110.543 184.6C106.601 180.129 102.712 174.846 99.2052 168.193C82.4078 136.28 65.9654 136.856 57.6529 140.035C57.2016 140.222 56.7525 140.407 56.3033 140.614C55.8337 140.759 55.3701 140.915 54.921 141.092C51.7502 142.3 47.9416 144.595 44.9431 148.912C41.1222 154.423 38.6139 163.232 40.3982 177.305C40.6382 179.174 40.9458 181.134 41.3478 183.196L41.3539 183.21C41.5365 183.864 41.7293 184.523 41.959 185.171C43.3105 188.983 46.0978 192.587 49.5618 194.472C49.2132 192.519 48.7763 190.503 48.2574 188.423C40.4884 157.661 50.3474 148.842 56.9186 146.321C57.4416 146.127 57.9113 145.983 58.3235 145.876C58.7009 145.675 59.148 145.468 59.6607 145.269C66.2381 142.763 79.4688 142.72 94.2439 170.795C99.0144 179.865 104.384 186.457 109.673 191.931C109.856 189.469 110.147 187.023 110.543 184.6Z" fill="#8EC63F"/>
<path d="M126.956 251.183C124.989 253.64 122.635 255.644 120.151 257.262C121.088 253.868 121.468 250.383 120.986 246.849C120.491 243.129 118.672 239.189 115.171 237.84C109.749 235.766 104.303 240.941 101.53 246.052C98.7514 251.15 96.2882 257.303 90.7999 259.221C84.1732 261.54 76.9641 255.63 75.2085 248.823C73.4611 242.017 75.5592 234.886 77.6368 228.169C79.7514 221.317 81.8803 214.457 83.9948 207.605C85.3976 203.099 86.8108 198.402 86.136 193.722C85.4571 189.05 82.0505 184.412 77.3538 183.955C73.0858 183.532 69.753 186.357 66.3894 189.365C63.3191 192.122 60.2078 195.024 56.3233 195.701C56.0424 195.752 55.7573 195.789 55.4783 195.807C55.0456 193.018 54.4672 190.1 53.6899 187.054C52.5722 182.64 51.8564 178.764 51.4421 175.368C51.319 174.348 51.2247 173.372 51.1611 172.439C51.1201 171.902 51.0914 171.391 51.0647 170.882C51.0524 170.718 51.0544 170.548 51.0421 170.386C51.0216 169.662 51.0134 168.965 51.0134 168.304C51.0155 168.169 51.0175 168.033 51.0278 167.9C51.1837 159.551 53.7371 155.363 56.1388 153.26C56.3233 153.086 56.5223 152.94 56.7089 152.799C57.0002 152.582 57.2811 152.395 57.5416 152.235C57.7262 152.128 57.8964 152.028 58.0749 151.942L58.321 151.823C59.0593 151.464 59.6726 151.302 60.013 151.238C60.0499 151.228 60.0848 151.228 60.1094 151.226L60.1115 151.216L60.132 151.222C60.2694 151.191 60.3535 151.175 60.3535 151.175C60.3535 151.175 72.7228 141.939 89.2883 173.409C95.5519 185.294 102.736 193.141 109.425 199.602C109.527 207.996 110.848 216.426 113.42 224.654C116.431 234.341 121.033 243.273 126.956 251.183Z" fill="#8EC63F"/>
<path d="M29.0524 141.496C38.5216 144.891 49.1312 139.462 49.1312 139.462C49.1312 139.462 44.3894 128.526 34.9201 125.132C25.4509 121.737 14.8413 127.166 14.8413 127.166C14.8413 127.166 19.5831 138.102 29.0524 141.496Z" fill="#8EC63F"/>
<path d="M56.775 144.647C55.6469 144.647 54.5845 143.962 54.158 142.846L46.4669 122.782C45.9131 121.336 46.6351 119.716 48.081 119.162C49.5269 118.604 51.1472 119.332 51.7009 120.774L59.392 140.841C59.9457 142.287 59.2218 143.907 57.7779 144.461C57.4477 144.588 57.1072 144.647 56.775 144.647Z" fill="#8EC63F"/>
<path d="M66.3893 189.365C63.319 192.122 60.2077 195.024 56.3232 195.7C56.0423 195.752 55.7572 195.789 55.4782 195.807C55.0455 193.018 54.4651 190.099 53.6898 187.056C52.572 182.64 51.8563 178.764 51.442 175.367C51.3189 174.348 51.2246 173.372 51.161 172.439C51.12 171.901 51.0913 171.391 51.0646 170.882C51.0523 170.718 51.0543 170.548 51.042 170.386C51.0215 169.662 51.0113 168.964 51.0133 168.306C51.0154 168.168 51.0174 168.033 51.0277 167.9C51.0954 164.251 51.6225 161.394 52.3957 159.159C53.3883 156.285 54.7871 154.444 56.1386 153.26C56.3232 153.086 56.5222 152.94 56.7088 152.799C57.0001 152.581 57.281 152.395 57.5415 152.235C57.7261 152.128 57.8963 152.027 58.0747 151.941L58.3209 151.822C59.0592 151.463 59.6724 151.301 60.0129 151.238C60.0498 151.228 60.0888 151.219 60.1113 151.215L60.1072 151.226C56.0423 160.654 58.9156 172.147 63.0504 181.838C64.1189 184.336 65.251 186.844 66.3893 189.365Z" fill="#7EAD32"/>
<path d="M119.987 118C113.011 130.083 102.701 137.71 93.8063 134.695C82.0605 142.757 60.5008 128.118 50.9988 107.104L52.9492 95.0523L56.9732 70.164L57.0737 69.5733C57.207 69.518 57.3383 69.4729 57.4695 69.4154C64.0223 66.9215 71.5883 67.8629 74.5581 69.0729C80.715 71.5853 85.0466 71.4254 85.0466 71.4254C85.0466 71.4254 88.683 70.6173 93.9211 66.5297C99.1593 62.4442 124.195 53.9389 127.75 81.8647C129.372 94.6073 125.854 107.867 119.987 118Z" fill="#EF4051"/>
<path d="M99.9368 60.1541C94.35 67.5354 83.5005 68.7373 83.5005 68.7373C83.5005 68.7373 81.71 57.9698 87.2968 50.5864C92.8836 43.205 103.733 42.0052 103.733 42.0052C103.733 42.0052 105.524 52.7727 99.9368 60.1541Z" fill="#8EC63F"/>
<path d="M185.84 111.432C157.272 114.707 131.041 132.011 117.461 159.135C115.056 163.942 113.138 168.918 111.663 173.99C109.504 171.036 107.588 167.96 105.857 164.689C101.349 156.107 96.5089 149.14 91.3938 143.818C92.608 143.535 93.7832 143.158 94.8968 142.668C101.37 143.615 108.269 141.367 114.656 136.133C127.072 125.971 138.123 103.747 135.212 80.9114C135.024 79.3916 134.767 77.96 134.476 76.6085C140.35 76.6885 146.312 77.6975 152.17 79.73C168.017 85.2245 179.868 97.0667 185.84 111.432Z" fill="#92278F"/>
<path d="M196.384 73.9822C196.882 86.5114 186.56 97.0944 186.56 97.0944C186.56 97.0944 175.429 87.3646 174.931 74.8354C174.432 62.3061 184.755 51.7232 184.755 51.7232C184.755 51.7232 195.885 61.4529 196.384 73.9822Z" fill="#8EC63F"/>
<path d="M250.586 121.597C232.113 124.153 214.949 110.409 214.949 110.409C214.949 110.409 227.737 92.5231 246.21 89.9655C264.683 87.41 281.847 101.153 281.847 101.153C281.847 101.153 269.059 119.042 250.586 121.597Z" fill="#8EC63F"/>
<path d="M119.987 118C113.011 130.083 102.701 137.71 93.8063 134.695C82.0605 142.757 60.5008 128.118 50.9988 107.104L52.9492 95.0523C53.8188 98.7092 55.3365 102.204 57.4982 105.285C61.3069 110.734 66.7255 114.819 72.1482 118.667C75.3867 120.972 78.7195 123.265 82.5178 124.479C87.3109 126.005 92.4711 125.689 97.4959 125.363C102.104 125.062 106.969 124.678 110.764 122.035C112.981 120.496 114.878 118.173 117.56 117.785C118.397 117.666 119.211 117.744 119.987 118Z" fill="#DB354D"/>
<path d="M119.171 75.7347C118.381 78.0133 116.244 72.5168 111.794 70.9744C107.343 69.4301 102.263 72.4245 103.055 70.1459C103.844 67.8693 108.795 65.242 113.246 66.7864C117.696 68.3287 119.961 73.4561 119.171 75.7347Z" fill="white"/>
<path d="M156.998 89.1699C156.5 90.5092 153.353 86.4955 148.329 84.625C143.304 82.7525 138.299 83.7308 138.798 82.3915C139.296 81.0522 144.221 80.2913 149.245 82.1638C154.27 84.0343 157.496 87.8306 156.998 89.1699Z" fill="white"/>
<path d="M156.998 89.1699C156.5 90.5092 153.353 86.4955 148.329 84.625C143.304 82.7525 138.299 83.7308 138.798 82.3915C139.296 81.0522 144.221 80.2913 149.245 82.1638C154.27 84.0343 157.496 87.8306 156.998 89.1699Z" fill="white"/>
<path d="M78.1417 168.017C77.1141 169.009 76.0066 164.034 72.28 160.178C68.5535 156.32 63.6168 155.044 64.6443 154.052C65.6719 153.059 70.4424 154.495 74.169 158.352C77.8955 162.208 79.1692 167.024 78.1417 168.017Z" fill="white"/>
<path d="M104.392 310.435C105.289 309.322 105.791 313.145 108.472 315.302C111.152 317.46 114.994 317.136 114.1 318.247C113.203 319.361 109.505 319.507 106.825 317.349C104.144 315.192 103.496 311.549 104.392 310.435Z" fill="white"/>
<path d="M144.248 285.07L150.374 283.536C150.395 284.32 150.368 285.118 150.303 285.893C149.839 291.332 147.958 296.425 145.626 301.4C145.208 299.905 145.095 298.322 145.03 296.759C144.872 292.848 144.97 288.914 144.248 285.07Z" fill="#D33346"/>
<path d="M91.2402 276.041C92.4934 270.442 96.4968 266.182 105.511 263.922C114.106 261.768 125.756 261.801 136.209 264.043C136.925 264.195 137.627 264.355 138.324 264.535L138.418 264.556C145.835 266.931 150.219 275.407 150.373 283.535L144.249 285.069C144.241 285.057 144.245 285.037 144.237 285.024C143.494 281.164 141.827 277.329 138.767 274.868C135.738 272.423 131.749 271.609 127.917 270.873C120.501 269.431 112.927 267.999 105.435 268.937C100.061 269.62 94.5012 271.855 91.2402 276.041Z" fill="#DD1221"/>
<path d="M200.179 109.266C198.795 109.266 197.412 108.735 196.36 107.674C194.274 105.566 194.289 102.164 196.397 100.076L244.032 52.9017C245.037 51.905 246.399 51.3471 247.812 51.3471H247.849L298.904 51.704C301.871 51.7265 304.261 54.1466 304.238 57.1144C304.218 60.0821 301.82 62.5002 298.83 62.4489L250.007 62.1064L203.961 107.711C202.911 108.749 201.545 109.266 200.179 109.266Z" fill="#F15A29"/>
<path d="M74.4852 58.998C69.5629 56.824 64.9073 57.3368 62.2821 57.9521L49.0124 27.9056L3.44022 10.3905C0.650929 9.34449 -0.7027 6.20653 0.363796 3.43774C1.43029 0.668961 4.52723 -0.705177 7.29602 0.361317L54.9602 18.6763C54.9602 18.6968 54.9807 18.6968 54.9807 18.6968C56.3138 19.2096 57.3598 20.235 57.934 21.5271L74.4852 58.998Z" fill="#EF4051"/>
<path d="M68.085 221.619C66.3479 228.831 60.8164 235.964 55.6296 234.715C50.4427 233.466 47.5652 224.308 49.3003 217.097C51.0375 209.886 56.7289 207.353 61.9178 208.602C67.1047 209.851 69.8222 214.408 68.085 221.619Z" fill="#8EC63F"/>
<path d="M136.696 67.0522C136.696 67.0522 143.514 16.7814 118.4 19.5358C93.286 22.2902 133.622 30.9022 136.696 67.0522Z" fill="#EF4051"/>
<path d="M152.828 62.3295C152.828 62.3295 170.885 14.9217 191.622 29.3522C212.361 43.7827 172.819 32.0533 152.828 62.3295Z" fill="#92278F"/>
<path d="M215.925 162.051C215.925 162.051 251.319 125.706 264.623 147.182C277.93 168.659 246.292 142.198 215.925 162.051Z" fill="#FBB040"/>
<path d="M65.425 221.481C64.2108 222.231 65.0066 218.46 63.1956 215.533C61.3866 212.608 57.6539 211.636 58.8701 210.883C60.0843 210.133 63.6201 211.226 65.4311 214.151C67.2401 217.077 66.6391 220.73 65.425 221.481Z" fill="white"/>
<path d="M145.861 176.945C144.731 181.578 144.138 186.429 144.138 191.41C144.138 198.23 145.252 204.791 147.294 210.929L135.218 214.955C131.496 201.503 132.22 186.763 138.2 173.108L145.861 176.945Z" fill="#E5962E"/>
<path d="M147.743 170.674L141.096 167.344C148.12 154.921 158.849 145.753 171.171 140.542C160.471 147.782 152.173 158.309 147.743 170.674Z" fill="#E5962E"/>
<path d="M170.289 241.685L164.743 252.777C151.769 245.451 142.343 234.082 137.26 221.079L149.683 216.938C154.244 226.902 161.413 235.444 170.289 241.685Z" fill="#E5962E"/>
<path d="M284.404 256.781V124.95L346.279 212.899L408.339 124.95V256.781H394.017V166.997L346.279 235.298L298.723 166.997V256.781H284.404Z" fill="#EF4051"/>
<path d="M430.929 164.242H444.517V219.691C444.517 237.135 454.064 246.315 469.67 246.315C485.278 246.315 495.009 236.95 495.009 219.507V164.242H508.595V219.691C508.595 244.662 492.622 258.984 469.12 258.984C446.353 258.984 430.929 245.211 430.929 220.977V164.242Z" fill="#EF4051"/>
<path d="M524.939 128.807H538.527V256.782H524.939V128.807Z" fill="#EF4051"/>
<path d="M562.76 256.781V176.911H551.01V164.242H562.76V128.806H576.348V164.242H596.911V176.911H576.348V256.781H562.76Z" fill="#EF4051"/>
<path d="M609.032 164.243H622.62V256.782H609.032V164.243ZM609.399 146.25C605.728 142.577 605.728 136.701 609.399 133.214C613.073 129.541 618.582 129.541 622.253 133.214C625.926 136.701 625.926 142.577 622.253 146.25C618.582 149.739 613.073 149.739 609.399 146.25Z" fill="#EF4051"/>
<path d="M631.615 236.768C634.554 237.685 638.043 238.237 642.083 238.237C654.016 238.237 657.137 230.708 657.137 217.489V128.806H680.09V216.386C680.09 226.12 679.72 232.178 676.966 240.44C673.295 251.824 663.932 258.25 644.651 258.984C639.879 258.984 635.473 258.433 631.615 257.514V236.768Z" fill="#EF4051"/>
<path d="M697.532 164.243H719.748V218.224C719.748 232.178 727.644 238.973 739.946 238.973C752.248 238.973 760.142 231.994 760.142 218.039V164.243H782.358V219.507C782.358 232.361 778.319 242.277 770.241 249.07C762.162 255.863 752.063 259.167 739.761 259.167C727.46 259.167 717.361 255.863 709.465 249.07C701.571 242.277 697.532 232.73 697.532 220.059V164.243Z" fill="#EF4051"/>
<path d="M797.053 164.243H819.085V256.782H797.053V164.243ZM794.85 140.374C794.85 133.03 800.724 127.338 808.069 127.338C815.229 127.338 821.107 133.03 821.107 140.374C821.107 147.719 815.229 153.41 808.069 153.41C800.724 153.41 794.85 147.719 794.85 140.374Z" fill="#EF4051"/>
<path d="M911.074 170.67V192.701C903.18 185.174 893.633 181.318 882.615 181.318C873.987 181.318 866.827 184.073 861.133 189.582C855.442 195.088 852.687 202.068 852.687 210.329C852.687 218.59 855.442 225.57 861.133 231.076C866.827 236.585 873.987 239.338 882.615 239.338C893.815 239.338 903.362 235.484 911.074 227.955V249.988C903.362 256.231 893.448 259.351 881.331 259.351C867.009 259.351 855.075 254.761 845.343 245.398C835.611 236.034 830.839 224.466 830.839 210.329C830.839 196.19 835.611 184.624 845.343 175.258C855.075 165.895 867.009 161.305 881.331 161.305C893.263 161.305 903.18 164.427 911.074 170.67Z" fill="#EF4051"/>
<path d="M990.4 200.597C990.4 195.272 988.195 190.498 983.788 186.642C979.382 182.786 974.058 180.768 967.63 180.768C960.838 180.768 954.964 182.786 950.007 186.642C945.049 190.498 942.478 195.088 942.11 200.597H990.4ZM919.71 210.511C919.71 196.007 924.117 184.255 933.113 175.442C942.11 166.446 953.678 162.041 967.63 162.041C981.035 162.041 991.869 166.446 1000.13 175.442C1008.58 184.255 1012.8 195.272 1012.8 208.308C1012.8 211.063 1012.62 213.817 1012.43 216.202H941.561C942.293 230.891 953.126 240.256 969.468 240.256C983.972 240.256 994.988 236.769 1002.7 229.607V250.172C993.704 256.413 982.321 259.535 968.551 259.535C954.043 259.535 942.11 255.129 933.113 246.499C924.117 237.686 919.71 225.934 919.71 211.43V210.511Z" fill="#EF4051"/>
<path d="M1024 256.781V164.242H1045.85V178.015C1050.26 168.283 1060.36 162.407 1073.39 162.407C1075.96 162.407 1078.17 162.591 1080 162.956V184.256C1077.25 183.704 1074.13 183.337 1070.82 183.337C1055.58 183.337 1045.85 192.886 1045.85 208.125V256.781H1024Z" fill="#EF4051"/>
<path d="M52.7147 247.327C49.1891 244.991 46.8243 242.776 46.7074 240.979C46.7074 240.979 44.4186 249.829 44.4186 256.782V306.932L61.985 310.129C46.2111 296.583 49.468 267.607 52.7147 247.327Z" fill="#E5962E"/>
<path d="M52.715 247.327C49.4683 267.607 46.2114 296.583 61.9853 310.129L68.6078 311.333C68.6078 311.333 53.8676 308.659 62.6026 297.733C71.3376 286.808 73.3927 287.021 66.3374 279.33C59.2842 271.639 78.7723 275.554 86.9761 270.144C88.6743 269.024 74.5966 268.827 64.5059 262.334C58.4597 258.443 57.2373 250.323 52.715 247.327Z" fill="#FBB040"/>
</svg>
