<svg width="1280" height="640" viewBox="0 0 1280 640" fill="none" xmlns="http://www.w3.org/2000/svg">
<path d="M224.198 321.493C218.71 332.47 215.974 344.14 215.771 355.666C215.771 356.216 215.757 356.768 215.757 357.332C215.757 358.027 215.771 358.737 215.8 359.432C215.8 359.793 215.814 360.142 215.843 360.488C215.888 361.38 215.956 362.268 216.04 363.15C218.004 389.214 232.685 413.71 256.966 427.126L261.788 417.525C260.978 417.076 260.182 416.598 259.399 416.106C229.223 397.557 217.668 358.562 233.813 326.315C239.691 314.557 248.496 305.203 258.892 298.701C277.833 286.843 302.116 284.439 323.764 294.111L328.6 284.482C289.751 266.86 243.442 283.034 224.198 321.493Z" fill="#F15A29"/>
<path d="M320.76 299.813C307.115 293.829 292.373 293.103 278.913 296.833L296.231 348.837L320.76 299.813Z" fill="#FBB040"/>
<path d="M287.231 356.637L247.295 369.929L235.219 373.955C231.496 360.503 232.22 345.763 238.201 332.107L245.861 335.945L287.231 356.637Z" fill="#FBB040"/>
<path d="M290.112 350.874L247.744 329.675L241.097 326.344C248.119 313.92 258.85 304.754 271.172 299.543C271.707 299.311 272.244 299.093 272.794 298.876L290.112 350.874Z" fill="#FBB040"/>
<path d="M289.272 362.762L270.289 400.686L264.743 411.777C251.769 404.449 242.342 393.083 237.26 380.08L249.683 375.939L289.272 362.762Z" fill="#FBB040"/>
<path d="M178.071 440.554C178.071 440.554 179.862 446.653 184.189 450.868C183.74 450.94 183.291 451.02 182.842 451.132C174.593 453.2 169.674 461.935 169.674 461.935C169.674 461.935 178.131 467.318 186.379 465.251C186.829 465.138 187.261 464.999 187.69 464.849C185.863 470.608 187.159 476.831 187.159 476.831C187.159 476.831 193.966 474.737 197.124 468.473C199.471 463.822 199.147 458.184 198.825 455.589C199.292 454.896 199.547 454.449 199.547 454.449C199.547 454.449 199.112 454.176 198.371 453.786C197.432 451.346 195.061 446.22 190.799 443.226C185.061 439.192 178.071 440.554 178.071 440.554Z" fill="#8DC63F"/>
<path d="M191.24 435.042C192.493 429.442 196.497 425.183 205.511 422.922C214.106 420.769 225.756 420.802 236.21 423.043C236.925 423.195 237.627 423.355 238.324 423.536L238.418 423.556C245.835 425.931 250.22 434.408 250.373 442.536L244.249 444.07C244.971 447.915 244.873 451.849 245.031 455.76C245.094 457.323 245.209 458.906 245.627 460.402C243.938 464.019 242.01 467.563 240.236 471.11C240.123 471.327 240.022 471.548 239.909 471.766C233.375 476.102 226.277 479.428 220.058 480.987C209.049 483.748 203.245 480.353 199.506 473.792C198.603 472.195 197.818 470.412 197.104 468.493C195.81 464.967 194.77 460.957 193.712 456.734C192.524 451.978 191.433 447.485 190.998 443.383C190.67 440.37 190.682 437.57 191.24 435.042Z" fill="#ED1C24"/>
<path d="M193.712 456.733L198.921 455.423L198.933 455.425L207.728 453.216L244.249 444.071C244.971 447.914 244.873 451.848 245.031 455.759C245.094 457.322 245.209 458.905 245.627 460.401C243.937 464.018 242.01 467.565 240.235 471.109C240.123 471.328 240.022 471.547 239.909 471.765C233.377 476.103 226.277 479.429 220.058 480.988C209.049 483.749 203.244 480.352 199.506 473.791C198.603 472.196 197.818 470.413 197.104 468.494C195.81 464.966 194.77 460.956 193.712 456.733Z" fill="#ED3B48"/>
<path d="M191.24 435.041C192.493 429.442 196.497 425.182 205.511 422.922C214.106 420.769 225.756 420.801 236.21 423.043C236.925 423.195 237.627 423.355 238.324 423.535L238.418 423.556C245.835 425.931 250.22 434.407 250.373 442.535L244.249 444.07L207.728 453.215L198.931 455.424L198.921 455.422L193.712 456.734C192.524 451.978 191.433 447.484 190.998 443.382C190.67 440.37 190.682 437.57 191.24 435.041Z" fill="#ED1C24"/>
<path d="M210.543 343.6C206.601 339.129 202.712 333.846 199.205 327.193C182.408 295.28 165.965 295.856 157.653 299.035C157.202 299.222 156.752 299.407 156.303 299.614C155.834 299.759 155.37 299.915 154.921 300.092C151.75 301.3 147.942 303.595 144.943 307.912C141.122 313.423 138.614 322.232 140.398 336.305C140.638 338.174 140.946 340.134 141.348 342.196L141.354 342.21C141.536 342.864 141.729 343.523 141.959 344.171C143.311 347.983 146.098 351.587 149.562 353.472C149.213 351.519 148.776 349.503 148.257 347.423C140.488 316.661 150.347 307.842 156.919 305.321C157.442 305.127 157.911 304.983 158.324 304.876C158.701 304.675 159.148 304.468 159.661 304.269C166.238 301.763 179.469 301.72 194.244 329.795C199.014 338.865 204.384 345.457 209.673 350.931C209.856 348.469 210.147 346.023 210.543 343.6" fill="#8EC63F"/>
<path d="M226.956 410.183C224.989 412.64 222.635 414.644 220.151 416.262C221.088 412.868 221.468 409.383 220.986 405.849C220.491 402.129 218.672 398.189 215.171 396.84C209.749 394.766 204.303 399.941 201.53 405.052C198.751 410.15 196.288 416.303 190.8 418.221C184.173 420.54 176.964 414.63 175.209 407.823C173.461 401.017 175.559 393.886 177.637 387.169C179.751 380.317 181.88 373.457 183.995 366.605C185.398 362.099 186.811 357.402 186.136 352.722C185.457 348.05 182.05 343.412 177.354 342.955C173.086 342.532 169.753 345.357 166.389 348.365C163.319 351.122 160.208 354.024 156.323 354.701C156.042 354.752 155.757 354.789 155.478 354.807C155.046 352.018 154.467 349.1 153.69 346.054C152.572 341.64 151.856 337.764 151.442 334.368C151.319 333.348 151.225 332.372 151.161 331.439C151.12 330.902 151.091 330.391 151.065 329.882C151.052 329.718 151.054 329.548 151.042 329.386C151.022 328.662 151.013 327.965 151.013 327.304C151.015 327.169 151.018 327.033 151.028 326.9C151.184 318.551 153.737 314.363 156.139 312.26C156.323 312.086 156.522 311.94 156.709 311.799C157 311.582 157.281 311.395 157.542 311.235C157.726 311.128 157.896 311.028 158.075 310.942L158.321 310.823C159.059 310.464 159.673 310.302 160.013 310.238C160.05 310.228 160.085 310.228 160.109 310.226L160.111 310.216L160.132 310.222C160.269 310.191 160.353 310.175 160.353 310.175C160.353 310.175 172.723 300.939 189.288 332.409C195.552 344.294 202.736 352.141 209.425 358.602C209.527 366.996 210.848 375.426 213.42 383.654C216.431 393.341 221.033 402.273 226.956 410.183Z" fill="#8EC63F"/>
<path d="M129.052 300.496C138.522 303.891 149.131 298.462 149.131 298.462C149.131 298.462 144.389 287.526 134.92 284.132C125.451 280.737 114.841 286.166 114.841 286.166C114.841 286.166 119.583 297.102 129.052 300.496Z" fill="#8EC63F"/>
<path d="M156.775 303.647C155.647 303.647 154.585 302.962 154.158 301.846L146.467 281.782C145.913 280.336 146.635 278.716 148.081 278.162C149.527 277.604 151.147 278.332 151.701 279.774L159.392 299.841C159.946 301.287 159.222 302.907 157.778 303.461C157.448 303.588 157.107 303.647 156.775 303.647Z" fill="#8EC63F"/>
<path d="M166.389 348.365C163.319 351.122 160.208 354.024 156.323 354.7C156.042 354.752 155.757 354.789 155.478 354.807C155.045 352.018 154.465 349.099 153.69 346.056C152.572 341.64 151.856 337.764 151.442 334.367C151.319 333.348 151.225 332.372 151.161 331.439C151.12 330.901 151.091 330.391 151.065 329.882C151.052 329.718 151.054 329.548 151.042 329.386C151.022 328.662 151.011 327.964 151.013 327.306C151.015 327.168 151.017 327.033 151.028 326.9C151.095 323.251 151.622 320.394 152.396 318.159C153.388 315.285 154.787 313.444 156.139 312.26C156.323 312.086 156.522 311.94 156.709 311.799C157 311.581 157.281 311.395 157.542 311.235C157.726 311.128 157.896 311.027 158.075 310.941L158.321 310.822C159.059 310.463 159.672 310.301 160.013 310.238C160.05 310.228 160.089 310.219 160.111 310.215L160.107 310.226C156.042 319.654 158.916 331.147 163.05 340.838C164.119 343.336 165.251 345.844 166.389 348.365Z" fill="#7EAD32"/>
<path d="M219.987 277C213.011 289.083 202.701 296.71 193.806 293.695C182.06 301.757 160.501 287.118 150.999 266.104L152.949 254.052L156.973 229.164L157.074 228.573C157.207 228.518 157.338 228.473 157.47 228.415C164.022 225.921 171.588 226.863 174.558 228.073C180.715 230.585 185.047 230.425 185.047 230.425C185.047 230.425 188.683 229.617 193.921 225.53C199.159 221.444 224.195 212.939 227.75 240.865C229.372 253.607 225.854 266.867 219.987 277Z" fill="#EF4051"/>
<path d="M199.937 219.154C194.35 226.535 183.5 227.737 183.5 227.737C183.5 227.737 181.71 216.97 187.297 209.586C192.884 202.205 203.733 201.005 203.733 201.005C203.733 201.005 205.524 211.773 199.937 219.154Z" fill="#8EC63F"/>
<path d="M285.84 270.432C257.272 273.707 231.041 291.011 217.461 318.135C215.056 322.942 213.138 327.918 211.663 332.99C209.504 330.036 207.588 326.96 205.857 323.689C201.349 315.107 196.509 308.14 191.394 302.818C192.608 302.535 193.783 302.158 194.897 301.668C201.37 302.615 208.269 300.367 214.656 295.133C227.072 284.971 238.123 262.747 235.212 239.911C235.024 238.392 234.767 236.96 234.476 235.608C240.35 235.688 246.312 236.698 252.17 238.73C268.017 244.225 279.868 256.067 285.84 270.432Z" fill="#92278F"/>
<path d="M296.384 232.982C296.882 245.511 286.56 256.094 286.56 256.094C286.56 256.094 275.429 246.365 274.931 233.835C274.432 221.306 284.755 210.723 284.755 210.723C284.755 210.723 295.885 220.453 296.384 232.982" fill="#8EC63F"/>
<path d="M350.586 280.597C332.113 283.153 314.949 269.41 314.949 269.41C314.949 269.41 327.737 251.523 346.21 248.966C364.683 246.41 381.847 260.154 381.847 260.154C381.847 260.154 369.059 278.042 350.586 280.597Z" fill="#8EC63F"/>
<path d="M219.987 277C213.011 289.083 202.701 296.71 193.806 293.695C182.06 301.757 160.501 287.118 150.999 266.104L152.949 254.052C153.819 257.709 155.337 261.204 157.498 264.285C161.307 269.734 166.725 273.819 172.148 277.667C175.387 279.972 178.719 282.265 182.518 283.479C187.311 285.005 192.471 284.689 197.496 284.363C202.104 284.062 206.969 283.678 210.764 281.035C212.981 279.496 214.878 277.173 217.56 276.785C218.397 276.666 219.211 276.744 219.987 277Z" fill="#DB354D"/>
<path d="M219.171 234.735C218.381 237.013 216.244 231.517 211.794 229.974C207.343 228.43 202.263 231.424 203.055 229.146C203.844 226.869 208.795 224.242 213.246 225.786C217.696 227.329 219.961 232.456 219.171 234.735Z" fill="white"/>
<path d="M256.998 248.17C256.5 249.509 253.353 245.495 248.329 243.625C243.304 241.752 238.299 242.731 238.798 241.391C239.296 240.052 244.221 239.291 249.245 241.164C254.27 243.034 257.496 246.831 256.998 248.17Z" fill="white"/>
<path d="M256.998 248.17C256.5 249.509 253.353 245.495 248.329 243.625C243.304 241.752 238.299 242.731 238.798 241.391C239.296 240.052 244.221 239.291 249.245 241.164C254.27 243.034 257.496 246.831 256.998 248.17Z" fill="white"/>
<path d="M178.142 327.017C177.114 328.009 176.007 323.034 172.28 319.178C168.553 315.32 163.617 314.044 164.644 313.052C165.672 312.059 170.442 313.495 174.169 317.352C177.896 321.208 179.169 326.024 178.142 327.017Z" fill="white"/>
<path d="M204.392 469.435C205.289 468.322 205.791 472.145 208.472 474.302C211.152 476.46 214.994 476.136 214.1 477.247C213.203 478.361 209.505 478.507 206.825 476.349C204.144 474.192 203.496 470.549 204.392 469.435Z" fill="white"/>
<path d="M244.248 444.07L250.374 442.536C250.395 443.32 250.368 444.118 250.303 444.893C249.839 450.332 247.958 455.425 245.626 460.4C245.208 458.905 245.095 457.322 245.03 455.759C244.872 451.848 244.97 447.914 244.248 444.07Z" fill="#D33346"/>
<path d="M191.24 435.041C192.493 429.442 196.497 425.182 205.511 422.922C214.106 420.768 225.756 420.801 236.209 423.043C236.925 423.195 237.627 423.355 238.324 423.535L238.418 423.556C245.835 425.931 250.219 434.407 250.373 442.535L244.249 444.069C244.241 444.057 244.245 444.037 244.237 444.024C243.494 440.164 241.827 436.329 238.767 433.868C235.738 431.423 231.749 430.609 227.917 429.873C220.501 428.431 212.927 426.999 205.435 427.937C200.061 428.62 194.501 430.855 191.24 435.041Z" fill="#DD1221"/>
<path d="M300.179 268.266C298.795 268.266 297.412 267.735 296.36 266.675C294.274 264.566 294.289 261.164 296.397 259.076L344.032 211.902C345.037 210.905 346.399 210.347 347.812 210.347H347.849L398.904 210.704C401.871 210.727 404.261 213.147 404.238 216.114C404.218 219.082 401.82 221.5 398.83 221.449L350.007 221.107L303.961 266.711C302.911 267.749 301.545 268.266 300.179 268.266Z" fill="#F15A29"/>
<path d="M174.485 217.998C169.563 215.824 164.907 216.337 162.282 216.952L149.012 186.906L103.44 169.39C100.651 168.344 99.2973 165.207 100.364 162.438C101.43 159.669 104.527 158.295 107.296 159.361L154.96 177.676C154.96 177.697 154.981 177.697 154.981 177.697C156.314 178.21 157.36 179.235 157.934 180.527L174.485 217.998Z" fill="#EF4051"/>
<path d="M168.085 380.62C166.348 387.831 160.816 394.964 155.63 393.715C150.443 392.466 147.565 383.308 149.3 376.097C151.038 368.886 156.729 366.353 161.918 367.602C167.105 368.851 169.822 373.408 168.085 380.62Z" fill="#8EC63F"/>
<path d="M236.696 226.052C236.696 226.052 243.514 175.781 218.4 178.536C193.286 181.29 233.622 189.902 236.696 226.052Z" fill="#EF4051"/>
<path d="M252.828 221.329C252.828 221.329 270.885 173.922 291.622 188.352C312.361 202.783 272.819 191.053 252.828 221.329Z" fill="#92278F"/>
<path d="M315.925 321.051C315.925 321.051 351.319 284.706 364.623 306.182C377.93 327.659 346.292 301.198 315.925 321.051Z" fill="#FBB040"/>
<path d="M165.425 380.481C164.211 381.231 165.007 377.46 163.196 374.533C161.387 371.608 157.654 370.636 158.87 369.883C160.084 369.133 163.62 370.226 165.431 373.151C167.24 376.077 166.639 379.73 165.425 380.481Z" fill="white"/>
<path d="M245.861 335.945C244.731 340.578 244.138 345.428 244.138 350.41C244.138 357.23 245.252 363.791 247.294 369.929L235.218 373.955C231.496 360.503 232.22 345.763 238.2 332.107L245.861 335.945Z" fill="#E5962E"/>
<path d="M247.743 329.674L241.096 326.344C248.12 313.921 258.849 304.753 271.171 299.542C260.471 306.782 252.173 317.309 247.743 329.674Z" fill="#E5962E"/>
<path d="M270.289 400.685L264.743 411.777C251.769 404.451 242.343 393.082 237.26 380.079L249.683 375.938C254.244 385.902 261.413 394.444 270.289 400.685Z" fill="#E5962E"/>
<path d="M384.404 415.781V283.95L446.279 371.899L508.339 283.95V415.781H494.017V325.997L446.279 394.298L398.723 325.997V415.781H384.404Z" fill="#EF4051"/>
<path d="M530.929 323.242H544.517V378.691C544.517 396.135 554.064 405.315 569.67 405.315C585.278 405.315 595.009 395.95 595.009 378.507V323.242H608.595V378.691C608.595 403.662 592.622 417.984 569.12 417.984C546.353 417.984 530.929 404.211 530.929 379.977V323.242Z" fill="#EF4051"/>
<path d="M624.939 287.807H638.527V415.782H624.939V287.807Z" fill="#EF4051"/>
<path d="M662.76 415.781V335.911H651.01V323.242H662.76V287.806H676.348V323.242H696.911V335.911H676.348V415.781H662.76Z" fill="#EF4051"/>
<path d="M709.032 323.243H722.62V415.782H709.032V323.243ZM709.399 305.25C705.728 301.577 705.728 295.701 709.399 292.214C713.073 288.541 718.582 288.541 722.253 292.214C725.926 295.701 725.926 301.577 722.253 305.25C718.582 308.739 713.073 308.739 709.399 305.25" fill="#EF4051"/>
<path d="M731.615 395.768C734.554 396.685 738.043 397.237 742.083 397.237C754.016 397.237 757.137 389.708 757.137 376.49V287.806H780.09V375.386C780.09 385.12 779.72 391.178 776.966 399.44C773.295 410.825 763.932 417.25 744.651 417.984C739.879 417.984 735.473 417.433 731.615 416.514V395.768Z" fill="#EF4051"/>
<path d="M797.532 323.243H819.748V377.224C819.748 391.178 827.644 397.973 839.946 397.973C852.248 397.973 860.142 390.994 860.142 377.039V323.243H882.358V378.507C882.358 391.361 878.319 401.277 870.241 408.07C862.162 414.863 852.063 418.167 839.761 418.167C827.46 418.167 817.361 414.863 809.465 408.07C801.571 401.277 797.532 391.73 797.532 379.059V323.243Z" fill="#EF4051"/>
<path d="M897.053 323.243H919.085V415.782H897.053V323.243ZM894.85 299.374C894.85 292.03 900.724 286.338 908.069 286.338C915.229 286.338 921.107 292.03 921.107 299.374C921.107 306.719 915.229 312.41 908.069 312.41C900.724 312.41 894.85 306.719 894.85 299.374Z" fill="#EF4051"/>
<path d="M1011.07 329.67V351.701C1003.18 344.174 993.633 340.318 982.615 340.318C973.987 340.318 966.827 343.073 961.133 348.582C955.442 354.088 952.687 361.068 952.687 369.329C952.687 377.59 955.442 384.57 961.133 390.076C966.827 395.585 973.987 398.338 982.615 398.338C993.815 398.338 1003.36 394.484 1011.07 386.955V408.988C1003.36 415.231 993.448 418.351 981.331 418.351C967.009 418.351 955.075 413.761 945.343 404.398C935.611 395.034 930.839 383.466 930.839 369.329C930.839 355.19 935.611 343.624 945.343 334.258C955.075 324.895 967.009 320.305 981.331 320.305C993.263 320.305 1003.18 323.427 1011.07 329.67Z" fill="#EF4051"/>
<path d="M1090.4 359.597C1090.4 354.272 1088.2 349.498 1083.79 345.642C1079.38 341.786 1074.06 339.768 1067.63 339.768C1060.84 339.768 1054.96 341.786 1050.01 345.642C1045.05 349.498 1042.48 354.088 1042.11 359.597H1090.4ZM1019.71 369.511C1019.71 355.007 1024.12 343.255 1033.11 334.442C1042.11 325.446 1053.68 321.041 1067.63 321.041C1081.04 321.041 1091.87 325.446 1100.13 334.442C1108.58 343.255 1112.8 354.272 1112.8 367.308C1112.8 370.063 1112.62 372.817 1112.43 375.202H1041.56C1042.29 389.891 1053.13 399.256 1069.47 399.256C1083.97 399.256 1094.99 395.769 1102.7 388.607V409.172C1093.7 415.413 1082.32 418.535 1068.55 418.535C1054.04 418.535 1042.11 414.129 1033.11 405.499C1024.12 396.686 1019.71 384.934 1019.71 370.43V369.511Z" fill="#EF4051"/>
<path d="M1124 415.781V323.242H1145.85V337.014C1150.26 327.283 1160.36 321.407 1173.39 321.407C1175.96 321.407 1178.17 321.591 1180 321.956V343.255C1177.25 342.704 1174.13 342.337 1170.82 342.337C1155.58 342.337 1145.85 351.886 1145.85 367.124V415.781H1124Z" fill="#EF4051"/>
<path d="M152.715 406.327C149.189 403.991 146.824 401.776 146.707 399.979C146.707 399.979 144.419 408.829 144.419 415.782V465.932L161.985 469.129C146.211 455.583 149.468 426.607 152.715 406.327Z" fill="#E5962E"/>
<path d="M152.715 406.327C149.468 426.607 146.211 455.583 161.985 469.129L168.608 470.333C168.608 470.333 153.868 467.659 162.603 456.733C171.338 445.808 173.393 446.021 166.337 438.33C159.284 430.639 178.772 434.554 186.976 429.144C188.674 428.024 174.597 427.827 164.506 421.334C158.46 417.443 157.237 409.324 152.715 406.327Z" fill="#FBB040"/>
</svg>
