<svg width="256" height="256" viewBox="0 0 256 256" fill="none" xmlns="http://www.w3.org/2000/svg">
<path d="M109.844 128.119C106.394 135.019 104.674 142.355 104.547 149.601C104.547 149.947 104.538 150.294 104.538 150.648C104.538 151.085 104.547 151.531 104.565 151.968C104.565 152.195 104.574 152.415 104.592 152.632C104.62 153.193 104.663 153.752 104.716 154.306C105.951 170.69 115.18 186.09 130.444 194.523L133.475 188.488C132.966 188.206 132.465 187.905 131.973 187.596C113.003 175.935 105.739 151.422 115.889 131.15C119.584 123.758 125.119 117.878 131.654 113.791C143.561 106.336 158.826 104.825 172.435 110.905L175.475 104.852C151.053 93.7743 121.942 103.942 109.844 128.119Z" fill="#F15A29"/>
<path d="M170.548 114.487C161.97 110.725 152.703 110.269 144.241 112.614L155.128 145.305L170.548 114.487Z" fill="#FBB040"/>
<path d="M149.466 150.209L124.361 158.565L116.77 161.096C114.43 152.639 114.885 143.373 118.644 134.789L123.46 137.201L149.466 150.209Z" fill="#FBB040"/>
<path d="M151.28 146.585L124.646 133.259L120.467 131.165C124.882 123.355 131.627 117.593 139.374 114.317C139.71 114.171 140.048 114.034 140.393 113.898L151.28 146.585Z" fill="#FBB040"/>
<path d="M150.754 154.058L138.82 177.899L135.334 184.872C127.177 180.265 121.252 173.12 118.057 164.945L125.866 162.342L150.754 154.058Z" fill="#FBB040"/>
<path d="M80.8491 202.963C80.8491 202.963 81.9747 206.797 84.6951 209.447C84.4127 209.492 84.1304 209.542 83.848 209.613C78.6624 210.913 75.5707 216.404 75.5707 216.404C75.5707 216.404 80.8865 219.788 86.0721 218.489C86.3544 218.418 86.6265 218.33 86.8959 218.236C85.7472 221.857 86.562 225.768 86.562 225.768C86.562 225.768 90.8412 224.452 92.8268 220.514C94.3017 217.59 94.098 214.046 93.8956 212.415C94.1896 211.979 94.3494 211.698 94.3494 211.698C94.3494 211.698 94.0761 211.527 93.6107 211.282C93.0202 209.747 91.5297 206.525 88.8505 204.643C85.2431 202.107 80.8491 202.963 80.8491 202.963Z" fill="#8DC63F"/>
<path d="M89.1256 199.497C89.9134 195.977 92.4301 193.299 98.0966 191.878C103.5 190.524 110.823 190.545 117.395 191.954C117.845 192.049 118.286 192.15 118.724 192.264L118.784 192.276C123.446 193.769 126.202 199.098 126.299 204.208L122.449 205.172C122.903 207.59 122.841 210.062 122.94 212.521C122.98 213.504 123.053 214.499 123.316 215.439C122.253 217.713 121.041 219.941 119.926 222.17C119.855 222.307 119.792 222.446 119.721 222.583C115.613 225.309 111.151 227.4 107.242 228.38C100.321 230.115 96.6719 227.981 94.3215 223.857C93.7542 222.852 93.2604 221.732 92.8117 220.525C91.9982 218.309 91.3445 215.788 90.6792 213.134C89.9327 210.144 89.2468 207.319 88.9735 204.74C88.7672 202.846 88.7749 201.086 89.1256 199.497Z" fill="#ED1C24"/>
<path d="M90.6803 213.132L93.9551 212.309L93.9629 212.31L99.4914 210.921L122.45 205.172C122.904 207.588 122.842 210.061 122.941 212.52C122.981 213.503 123.053 214.498 123.316 215.438C122.254 217.712 121.042 219.941 119.927 222.169C119.856 222.307 119.793 222.445 119.722 222.582C115.615 225.309 111.152 227.4 107.243 228.38C100.322 230.115 96.673 227.98 94.3226 223.856C93.7553 222.853 93.2615 221.732 92.8128 220.525C91.9993 218.308 91.3456 215.787 90.6803 213.132Z" fill="#ED3B48"/>
<path d="M89.1256 199.498C89.9134 195.978 92.4301 193.3 98.0966 191.88C103.5 190.526 110.823 190.546 117.395 191.956C117.845 192.051 118.286 192.152 118.724 192.265L118.784 192.278C123.446 193.771 126.202 199.1 126.299 204.209L122.449 205.174L99.4904 210.923L93.9605 212.311L93.9541 212.31L90.6792 213.135C89.9327 210.145 89.2468 207.32 88.9735 204.742C88.7672 202.848 88.7749 201.088 89.1256 199.498Z" fill="#ED1C24"/>
<path d="M101.261 142.015C98.7829 139.204 96.3384 135.883 94.1337 131.701C83.5743 111.639 73.2379 112.001 68.0123 114C67.7287 114.117 67.4463 114.233 67.164 114.363C66.8687 114.455 66.5773 114.553 66.295 114.664C64.3017 115.423 61.9075 116.866 60.0225 119.58C57.6205 123.044 56.0437 128.582 57.1654 137.429C57.3163 138.604 57.5096 139.836 57.7624 141.132L57.7662 141.141C57.881 141.552 58.0022 141.966 58.1466 142.373C58.9962 144.77 60.7484 147.036 62.926 148.22C62.7068 146.993 62.4322 145.726 62.106 144.418C57.2221 125.08 63.4198 119.536 67.5508 117.951C67.8795 117.829 68.1748 117.739 68.4339 117.672C68.6712 117.545 68.9522 117.415 69.2746 117.29C73.4094 115.714 81.7267 115.687 91.0149 133.337C94.0138 139.038 97.3892 143.182 100.714 146.623C100.829 145.076 101.012 143.538 101.261 142.015" fill="#8EC63F"/>
<path d="M111.576 183.872C110.339 185.417 108.859 186.676 107.298 187.694C107.887 185.56 108.125 183.369 107.822 181.148C107.512 178.809 106.368 176.332 104.167 175.484C100.758 174.181 97.3351 177.433 95.5919 180.646C93.8449 183.852 92.2965 187.72 88.8463 188.925C84.6805 190.383 80.1486 186.667 79.0449 182.388C77.9465 178.11 79.2654 173.627 80.5715 169.405C81.9008 165.097 83.2391 160.785 84.5683 156.477C85.4502 153.644 86.3386 150.692 85.9144 147.75C85.4876 144.813 83.3461 141.898 80.3936 141.61C77.7105 141.344 75.6154 143.12 73.5009 145.011C71.5708 146.744 69.6149 148.568 67.173 148.994C66.9963 149.026 66.8171 149.049 66.6418 149.061C66.3697 147.308 66.0062 145.473 65.5175 143.558C64.8148 140.784 64.3649 138.347 64.1044 136.212C64.0271 135.571 63.9678 134.957 63.9278 134.371C63.902 134.033 63.884 133.712 63.8672 133.392C63.8595 133.289 63.8607 133.182 63.853 133.08C63.8401 132.625 63.835 132.187 63.835 131.771C63.8363 131.686 63.8375 131.601 63.844 131.517C63.942 126.269 65.5472 123.636 67.0569 122.314C67.173 122.205 67.298 122.113 67.4154 122.024C67.5985 121.888 67.7751 121.77 67.9388 121.67C68.0549 121.603 68.1619 121.539 68.2741 121.485L68.4288 121.411C68.8929 121.185 69.2784 121.083 69.4925 121.043C69.5157 121.037 69.5376 121.037 69.553 121.035L69.5543 121.029L69.5672 121.033C69.6536 121.013 69.7065 121.003 69.7065 121.003C69.7065 121.003 77.4823 115.197 87.8961 134.98C91.8336 142.452 96.3501 147.385 100.554 151.446C100.619 156.723 101.449 162.022 103.066 167.195C104.959 173.284 107.852 178.899 111.576 183.872Z" fill="#8EC63F"/>
<path d="M50.0265 114.919C55.9793 117.052 62.6489 113.64 62.6489 113.64C62.6489 113.64 59.668 106.765 53.7152 104.631C47.7625 102.497 41.0929 105.91 41.0929 105.91C41.0929 105.91 44.0738 112.785 50.0265 114.919Z" fill="#8EC63F"/>
<path d="M67.4567 116.901C66.7476 116.901 66.0797 116.47 65.8116 115.769L60.9767 103.155C60.6285 102.246 61.0824 101.228 61.9913 100.88C62.9003 100.529 63.9189 100.987 64.267 101.893L69.1019 114.508C69.45 115.417 68.9949 116.435 68.0872 116.783C67.8796 116.863 67.6656 116.901 67.4567 116.901Z" fill="#8EC63F"/>
<path d="M73.5008 145.008C71.5707 146.741 69.6149 148.566 67.1729 148.991C66.9963 149.023 66.8171 149.047 66.6417 149.058C66.3697 147.305 66.0048 145.47 65.5174 143.557C64.8148 140.781 64.3648 138.344 64.1043 136.209C64.027 135.568 63.9677 134.954 63.9277 134.368C63.9019 134.03 63.8839 133.709 63.8671 133.389C63.8594 133.286 63.8607 133.179 63.8529 133.077C63.84 132.622 63.8336 132.184 63.8349 131.77C63.8362 131.683 63.8375 131.598 63.8439 131.514C63.8865 129.221 64.2178 127.425 64.7039 126.019C65.3279 124.213 66.2072 123.055 67.0569 122.311C67.1729 122.202 67.298 122.11 67.4153 122.021C67.5984 121.885 67.775 121.767 67.9388 121.667C68.0548 121.6 68.1618 121.537 68.274 121.482L68.4287 121.408C68.8928 121.182 69.2783 121.08 69.4924 121.04C69.5156 121.034 69.5401 121.029 69.5543 121.026L69.5517 121.032C66.9963 126.959 68.8026 134.185 71.4018 140.277C72.0736 141.847 72.7853 143.424 73.5008 145.008Z" fill="#7EAD32"/>
<path d="M107.192 100.147C102.807 107.742 96.326 112.537 90.7343 110.642C83.3504 115.71 69.7972 106.507 63.8239 93.2965L65.05 85.7205L67.5796 70.0748L67.6428 69.7035C67.7266 69.6687 67.8091 69.6403 67.8916 69.6042C72.011 68.0364 76.7672 68.6282 78.6341 69.3889C82.5046 70.9683 85.2277 70.8677 85.2277 70.8677C85.2277 70.8677 87.5136 70.3597 90.8065 67.7902C94.0994 65.2219 109.838 59.8751 112.072 77.4303C113.092 85.4408 110.881 93.7761 107.192 100.147Z" fill="#EF4051"/>
<path d="M94.5869 63.7834C91.0748 68.4237 84.2544 69.1792 84.2544 69.1792C84.2544 69.1792 83.1288 62.4103 86.6409 57.7688C90.1529 53.1286 96.9734 52.3743 96.9734 52.3743C96.9734 52.3743 98.0989 59.1432 94.5869 63.7834Z" fill="#8EC63F"/>
<path d="M148.595 96.018C130.636 98.077 114.146 108.955 105.609 126.006C104.097 129.028 102.891 132.156 101.964 135.344C100.607 133.488 99.4023 131.554 98.3141 129.497C95.4802 124.103 92.4375 119.723 89.2219 116.377C89.9852 116.2 90.724 115.962 91.4241 115.654C95.4931 116.25 99.8304 114.837 103.845 111.546C111.651 105.158 118.598 91.1869 116.768 76.8318C116.649 75.8764 116.488 74.9765 116.305 74.1268C119.998 74.1771 123.746 74.8114 127.428 76.0891C137.391 79.5432 144.84 86.9877 148.595 96.018Z" fill="#92278F"/>
<path d="M155.224 72.4745C155.537 80.3508 149.048 87.0037 149.048 87.0037C149.048 87.0037 142.051 80.8872 141.738 73.0108C141.424 65.1344 147.913 58.4816 147.913 58.4816C147.913 58.4816 154.91 64.5981 155.224 72.4745" fill="#8EC63F"/>
<path d="M189.29 102.41C177.677 104.016 166.886 95.3767 166.886 95.3767C166.886 95.3767 174.925 84.1326 186.538 82.5249C198.151 80.9184 208.941 89.558 208.941 89.558C208.941 89.558 200.902 100.803 189.29 102.41Z" fill="#8EC63F"/>
<path d="M107.192 100.147C102.807 107.742 96.326 112.537 90.7343 110.642C83.3504 115.71 69.7972 106.507 63.8239 93.2965L65.05 85.7205C65.5967 88.0193 66.5507 90.2163 67.9097 92.1529C70.3039 95.5786 73.7103 98.1469 77.1192 100.566C79.155 102.015 81.2502 103.456 83.638 104.22C86.6511 105.179 89.895 104.98 93.0538 104.775C95.9509 104.586 99.0091 104.345 101.394 102.683C102.788 101.716 103.981 100.255 105.667 100.011C106.193 99.9364 106.705 99.9854 107.192 100.147Z" fill="#DB354D"/>
<path d="M106.678 73.5771C106.182 75.0095 104.838 71.5542 102.04 70.5846C99.2426 69.6138 96.049 71.4962 96.5466 70.0638C97.043 68.6326 100.155 66.981 102.953 67.9519C105.751 68.9214 107.174 72.1447 106.678 73.5771Z" fill="white"/>
<path d="M130.463 82.0232C130.15 82.8651 128.172 80.342 125.014 79.1661C121.855 77.989 118.709 78.604 119.022 77.762C119.335 76.9201 122.431 76.4418 125.59 77.6189C128.749 78.7948 130.777 81.1813 130.463 82.0232Z" fill="white"/>
<path d="M130.463 82.0232C130.15 82.8651 128.172 80.342 125.014 79.1661C121.855 77.989 118.709 78.604 119.022 77.762C119.335 76.9201 122.431 76.4418 125.59 77.6189C128.749 78.7948 130.777 81.1813 130.463 82.0232Z" fill="white"/>
<path d="M80.8917 131.587C80.2458 132.211 79.5495 129.083 77.2069 126.659C74.8642 124.234 71.7608 123.432 72.4068 122.808C73.0527 122.184 76.0517 123.087 78.3943 125.512C80.737 127.936 81.5377 130.963 80.8917 131.587Z" fill="white"/>
<path d="M97.3887 221.121C97.9522 220.421 98.268 222.825 99.9532 224.181C101.638 225.537 104.053 225.334 103.491 226.032C102.928 226.732 100.603 226.824 98.9178 225.468C97.2327 224.111 96.8253 221.821 97.3887 221.121Z" fill="white"/>
<path d="M122.447 205.175L126.298 204.21C126.311 204.703 126.294 205.204 126.253 205.692C125.962 209.111 124.779 212.312 123.313 215.44C123.05 214.5 122.98 213.505 122.938 212.522C122.839 210.064 122.901 207.591 122.447 205.175Z" fill="#D33346"/>
<path d="M89.1263 199.498C89.9141 195.978 92.4308 193.3 98.0974 191.879C103.501 190.525 110.824 190.546 117.396 191.955C117.846 192.051 118.287 192.151 118.725 192.265L118.784 192.277C123.446 193.77 126.203 199.099 126.3 204.209L122.45 205.173C122.445 205.165 122.447 205.152 122.442 205.145C121.975 202.718 120.927 200.307 119.004 198.76C117.099 197.223 114.591 196.711 112.183 196.249C107.521 195.342 102.76 194.442 98.0497 195.031C94.6717 195.461 91.1763 196.866 89.1263 199.498Z" fill="#DD1221"/>
<path d="M157.607 94.655C156.737 94.655 155.868 94.3211 155.207 93.6545C153.895 92.3291 153.904 90.1901 155.23 88.8776L185.175 59.2222C185.807 58.5956 186.663 58.2449 187.552 58.2449H187.575L219.669 58.4692C221.535 58.4834 223.037 60.0048 223.023 61.8704C223.01 63.7361 221.503 65.2562 219.623 65.2239L188.931 65.0086L159.985 93.6777C159.325 94.3301 158.466 94.655 157.607 94.655Z" fill="#F15A29"/>
<path d="M78.5931 63.0548C75.4988 61.6881 72.5721 62.0105 70.9218 62.3973L62.58 43.5089L33.9316 32.4982C32.1781 31.8407 31.3272 29.868 31.9976 28.1275C32.6681 26.3869 34.6149 25.5231 36.3555 26.1935L66.3189 37.707C66.3189 37.7199 66.3318 37.7199 66.3318 37.7199C67.1699 38.0422 67.8274 38.6869 68.1884 39.4992L78.5931 63.0548Z" fill="#EF4051"/>
<path d="M74.5685 165.286C73.4765 169.819 69.9992 174.303 66.7386 173.518C63.4779 172.733 61.669 166.976 62.7598 162.443C63.8518 157.91 67.4296 156.317 70.6916 157.102C73.9522 157.888 75.6606 160.752 74.5685 165.286Z" fill="#8EC63F"/>
<path d="M117.702 68.1195C117.702 68.1195 121.987 36.5173 106.2 38.2488C90.4123 39.9804 115.769 45.3942 117.702 68.1195Z" fill="#EF4051"/>
<path d="M127.838 65.1516C127.838 65.1516 139.189 35.3493 152.225 44.4208C165.263 53.4924 140.405 46.1189 127.838 65.1516Z" fill="#92278F"/>
<path d="M167.503 127.838C167.503 127.838 189.752 104.99 198.116 118.49C206.481 131.992 186.592 115.357 167.503 127.838Z" fill="#FBB040"/>
<path d="M72.8918 165.199C72.1285 165.67 72.6288 163.299 71.4903 161.46C70.3531 159.621 68.0066 159.01 68.7712 158.537C69.5344 158.065 71.7572 158.752 72.8956 160.591C74.0328 162.43 73.655 164.727 72.8918 165.199Z" fill="white"/>
<path d="M123.46 137.201C122.749 140.114 122.377 143.163 122.377 146.295C122.377 150.582 123.077 154.706 124.361 158.565L116.77 161.096C114.43 152.639 114.885 143.373 118.644 134.789L123.46 137.201Z" fill="#E5962E"/>
<path d="M124.646 133.261L120.467 131.168C124.883 123.358 131.627 117.595 139.374 114.319C132.647 118.87 127.431 125.488 124.646 133.261Z" fill="#E5962E"/>
<path d="M138.82 177.899L135.333 184.871C127.177 180.266 121.252 173.119 118.057 164.945L125.866 162.342C128.734 168.605 133.24 173.975 138.82 177.899Z" fill="#E5962E"/>
<path d="M64.9066 181.449C62.6903 179.98 61.2038 178.588 61.1303 177.458C61.1303 177.458 59.6914 183.022 59.6914 187.393V218.919L70.7343 220.929C60.8183 212.413 62.8657 194.198 64.9066 181.449Z" fill="#E5962E"/>
<path d="M64.9009 181.445C62.8599 194.194 60.8125 212.409 70.7286 220.925L74.8917 221.682C74.8917 221.682 65.6255 220.001 71.1166 213.132C76.6078 206.264 77.8997 206.398 73.4645 201.563C69.0305 196.729 81.2815 199.19 86.4388 195.789C87.5063 195.085 78.6565 194.961 72.3131 190.879C68.5122 188.433 67.7438 183.329 64.9009 181.445Z" fill="#FBB040"/>
</svg>
