<svg width="198" height="210" viewBox="0 0 198 210" fill="none" xmlns="http://www.w3.org/2000/svg">
<path d="M80.7419 105.638C77.1739 112.774 75.3952 120.36 75.2632 127.854C75.2632 128.211 75.2539 128.57 75.2539 128.936C75.2539 129.388 75.2632 129.85 75.2819 130.302C75.2819 130.536 75.2912 130.763 75.3099 130.988C75.3392 131.568 75.3832 132.146 75.4379 132.719C76.7152 149.663 86.2592 165.588 102.045 174.31L105.179 168.068C104.653 167.776 104.135 167.466 103.626 167.146C84.0086 155.087 76.4966 129.736 86.9926 108.772C90.8139 101.128 96.5379 95.0472 103.297 90.8205C115.61 83.1112 131.397 81.5485 145.47 87.8365L148.614 81.5765C123.358 70.1205 93.2526 80.6352 80.7419 105.638Z" fill="#F15A29"/>
<path d="M143.517 91.5438C134.647 87.6531 125.063 87.1811 116.312 89.6064L127.571 123.414L143.517 91.5438Z" fill="#FBB040"/>
<path d="M121.719 128.485L95.7568 137.126L87.9061 139.743C85.4861 130.998 85.9568 121.415 89.8448 112.538L94.8248 115.033L121.719 128.485Z" fill="#FBB040"/>
<path d="M123.593 124.738L96.0487 110.957L91.7274 108.791C96.2928 100.714 103.269 94.7552 111.279 91.3672C111.627 91.2166 111.977 91.0752 112.334 90.9339L123.593 124.738Z" fill="#FBB040"/>
<path d="M123.047 132.466L110.705 157.121L107.1 164.332C98.6654 159.568 92.5374 152.178 89.2334 143.725L97.3094 141.033L123.047 132.466Z" fill="#FBB040"/>
<path d="M50.7542 183.039C50.7542 183.039 51.9182 187.005 54.7315 189.745C54.4395 189.791 54.1475 189.843 53.8555 189.917C48.4929 191.261 45.2955 196.939 45.2955 196.939C45.2955 196.939 50.7929 200.439 56.1555 199.095C56.4475 199.022 56.7289 198.931 57.0075 198.834C55.8195 202.578 56.6622 206.623 56.6622 206.623C56.6622 206.623 61.0875 205.262 63.1409 201.19C64.6662 198.166 64.4555 194.501 64.2462 192.814C64.5502 192.363 64.7155 192.073 64.7155 192.073C64.7155 192.073 64.4329 191.895 63.9515 191.642C63.3409 190.055 61.7995 186.723 59.0289 184.777C55.2982 182.154 50.7542 183.039 50.7542 183.039Z" fill="#8DC63F"/>
<path d="M59.3156 179.456C60.1303 175.816 62.733 173.046 68.593 171.577C74.181 170.177 81.7543 170.198 88.5503 171.656C89.0156 171.754 89.4716 171.858 89.925 171.976L89.9863 171.989C94.8076 173.533 97.6583 179.044 97.7583 184.328L93.777 185.325C94.2463 187.825 94.1823 190.382 94.285 192.925C94.3263 193.941 94.401 194.97 94.673 195.942C93.5743 198.294 92.321 200.598 91.1676 202.904C91.0943 203.045 91.029 203.189 90.9556 203.33C86.7076 206.149 82.093 208.312 78.0503 209.325C70.893 211.12 67.1196 208.913 64.689 204.648C64.1023 203.609 63.5916 202.45 63.1276 201.202C62.2863 198.91 61.6103 196.304 60.9223 193.558C60.1503 190.466 59.441 187.545 59.1583 184.878C58.945 182.92 58.953 181.1 59.3156 179.456Z" fill="#ED1C24"/>
<path d="M60.9222 193.558L64.3089 192.706L64.3169 192.707L70.0342 191.271L93.7769 185.326C94.2462 187.824 94.1822 190.382 94.2849 192.924C94.3262 193.94 94.4009 194.97 94.6729 195.942C93.5742 198.294 92.3209 200.599 91.1676 202.903C91.0942 203.046 91.0289 203.188 90.9556 203.33C86.7089 206.15 82.0929 208.312 78.0502 209.326C70.8929 211.12 67.1196 208.912 64.6889 204.647C64.1022 203.61 63.5916 202.451 63.1276 201.203C62.2862 198.91 61.6102 196.303 60.9222 193.558Z" fill="#ED3B48"/>
<path d="M59.3156 179.456C60.1303 175.816 62.733 173.046 68.593 171.577C74.181 170.177 81.7543 170.198 88.5503 171.656C89.0156 171.754 89.4716 171.858 89.925 171.976L89.9863 171.989C94.8076 173.533 97.6583 179.044 97.7583 184.328L93.777 185.325L70.0343 191.27L64.3156 192.706L64.309 192.705L60.9223 193.558C60.1503 190.466 59.441 187.545 59.1583 184.878C58.945 182.92 58.953 181.1 59.3156 179.456Z" fill="#ED1C24"/>
<path d="M71.8643 120.01C69.3016 117.103 66.7736 113.668 64.4936 109.343C53.5736 88.5963 42.8843 88.971 37.4803 91.0377C37.187 91.159 36.895 91.279 36.603 91.4137C36.2976 91.5083 35.9963 91.6097 35.7043 91.7243C33.6429 92.5097 31.1669 94.0017 29.2176 96.8083C26.7336 100.391 25.103 106.118 26.263 115.267C26.419 116.482 26.619 117.756 26.8803 119.096L26.8843 119.106C27.0029 119.531 27.1283 119.959 27.2776 120.38C28.1563 122.859 29.9683 125.202 32.2203 126.427C31.9936 125.158 31.7096 123.847 31.3723 122.495C26.3216 102.496 32.731 96.763 37.003 95.1243C37.343 94.9977 37.6483 94.9043 37.9163 94.835C38.1616 94.7043 38.4523 94.5697 38.7856 94.4403C43.0616 92.811 51.663 92.783 61.2683 111.035C64.3696 116.931 67.8603 121.216 71.2989 124.775C71.4176 123.175 71.6069 121.584 71.8643 120.01" fill="#8EC63F"/>
<path d="M82.5347 163.295C81.2561 164.892 79.7254 166.195 78.1107 167.247C78.7201 165.04 78.9667 162.775 78.6534 160.478C78.3321 158.059 77.1494 155.498 74.8734 154.62C71.3481 153.272 67.8081 156.636 66.0054 159.959C64.1987 163.274 62.5974 167.274 59.0294 168.52C54.7214 170.028 50.0347 166.186 48.8934 161.76C47.7574 157.336 49.1214 152.7 50.4721 148.334C51.8467 143.879 53.2307 139.419 54.6054 134.964C55.5174 132.035 56.4361 128.982 55.9974 125.939C55.5561 122.902 53.3414 119.887 50.2881 119.59C47.5134 119.315 45.3467 121.151 43.1601 123.107C41.1641 124.899 39.1414 126.786 36.6161 127.226C36.4334 127.259 36.2481 127.283 36.0667 127.295C35.7854 125.482 35.4094 123.584 34.9041 121.604C34.1774 118.735 33.7121 116.215 33.4427 114.007C33.3627 113.344 33.3014 112.71 33.2601 112.103C33.2334 111.754 33.2147 111.422 33.1974 111.091C33.1894 110.984 33.1907 110.874 33.1827 110.768C33.1694 110.298 33.1641 109.844 33.1641 109.415C33.1654 109.327 33.1667 109.239 33.1734 109.152C33.2747 103.724 34.9347 101.002 36.4961 99.6351C36.6161 99.5218 36.7454 99.4271 36.8667 99.3351C37.0561 99.1938 37.2387 99.0725 37.4081 98.9685C37.5281 98.8991 37.6387 98.8338 37.7547 98.7778L37.9147 98.7005C38.3947 98.4671 38.7934 98.3618 39.0147 98.3205C39.0387 98.3138 39.0614 98.3138 39.0774 98.3125L39.0787 98.3058L39.0921 98.3098C39.1814 98.2898 39.2361 98.2791 39.2361 98.2791C39.2361 98.2791 47.2774 92.2751 58.0467 112.734C62.1187 120.46 66.7894 125.562 71.1374 129.762C71.2041 135.219 72.0627 140.699 73.7347 146.048C75.6921 152.346 78.6841 158.152 82.5347 163.295Z" fill="#8EC63F"/>
<path d="M18.8872 91.987C25.0432 94.1937 31.9405 90.6644 31.9405 90.6644C31.9405 90.6644 28.8578 83.555 22.7018 81.3484C16.5458 79.1417 9.6485 82.671 9.6485 82.671C9.6485 82.671 12.7312 89.7804 18.8872 91.987Z" fill="#8EC63F"/>
<path d="M36.9095 94.0359C36.1762 94.0359 35.4855 93.5906 35.2082 92.8652L30.2082 79.8212C29.8482 78.8812 30.3175 77.8279 31.2575 77.4679C32.1975 77.1052 33.2509 77.5786 33.6109 78.5159L38.6109 91.5612C38.9709 92.5012 38.5002 93.5546 37.5615 93.9146C37.3469 93.9972 37.1255 94.0359 36.9095 94.0359Z" fill="#8EC63F"/>
<path d="M43.16 123.107C41.164 124.899 39.1414 126.786 36.616 127.226C36.4334 127.259 36.248 127.283 36.0667 127.295C35.7854 125.482 35.408 123.584 34.904 121.606C34.1774 118.735 33.712 116.215 33.4427 114.007C33.3627 113.344 33.3014 112.71 33.26 112.103C33.2334 111.754 33.2147 111.422 33.1974 111.091C33.1894 110.984 33.1907 110.874 33.1827 110.768C33.1694 110.298 33.1627 109.844 33.164 109.416C33.1654 109.327 33.1667 109.239 33.1734 109.152C33.2174 106.78 33.56 104.923 34.0627 103.47C34.708 101.602 35.6174 100.404 36.496 99.6351C36.616 99.5218 36.7454 99.4271 36.8667 99.3351C37.056 99.1938 37.2387 99.0724 37.408 98.9684C37.528 98.8991 37.6387 98.8338 37.7547 98.7778L37.9147 98.7004C38.3947 98.4671 38.7934 98.3618 39.0147 98.3204C39.0387 98.3138 39.064 98.3084 39.0787 98.3058L39.076 98.3124C36.4334 104.442 38.3014 111.914 40.9894 118.214C41.684 119.838 42.42 121.468 43.16 123.107Z" fill="#7EAD32"/>
<path d="M78.0039 76.7126C73.4693 84.5673 66.7666 89.5259 60.9839 87.5659C53.3479 92.8073 39.3319 83.2899 33.1546 69.6286L34.4226 61.7939L37.0386 45.6139L37.1039 45.2299C37.1906 45.1939 37.2759 45.1646 37.3613 45.1273C41.6213 43.5059 46.5399 44.1179 48.4706 44.9046C52.4733 46.5379 55.2893 46.4339 55.2893 46.4339C55.2893 46.4339 57.6533 45.9086 61.0586 43.2513C64.4639 40.5953 80.7399 35.0659 83.0506 53.2206C84.1053 61.5046 81.8186 70.1246 78.0039 76.7126Z" fill="#EF4051"/>
<path d="M64.9694 39.1064C61.3374 43.9051 54.2841 44.6864 54.2841 44.6864C54.2841 44.6864 53.1201 37.6864 56.7521 32.8864C60.3841 28.0877 67.4374 27.3077 67.4374 27.3077C67.4374 27.3077 68.6014 34.3077 64.9694 39.1064Z" fill="#8EC63F"/>
<path d="M120.815 72.4424C102.243 74.5717 85.1901 85.821 76.3621 103.454C74.7981 106.58 73.5514 109.814 72.5927 113.112C71.1887 111.192 69.9434 109.192 68.8181 107.065C65.8874 101.486 62.7407 96.957 59.4154 93.497C60.2047 93.313 60.9687 93.0677 61.6927 92.749C65.9007 93.365 70.3861 91.9037 74.5381 88.501C82.6101 81.8944 89.7941 67.4464 87.9021 52.601C87.7794 51.613 87.6127 50.6824 87.4234 49.8037C91.2421 49.8557 95.1181 50.5117 98.9261 51.833C109.229 55.405 116.933 63.1037 120.815 72.4424Z" fill="#92278F"/>
<path d="M127.67 48.0961C127.994 56.2414 121.283 63.1214 121.283 63.1214C121.283 63.1214 114.047 56.7961 113.723 48.6507C113.399 40.5054 120.11 33.6254 120.11 33.6254C120.11 33.6254 127.346 39.9507 127.67 48.0961" fill="#8EC63F"/>
<path d="M162.907 79.0509C150.898 80.7122 139.739 71.7775 139.739 71.7775C139.739 71.7775 148.053 60.1495 160.062 58.4869C172.071 56.8255 183.23 65.7602 183.23 65.7602C183.23 65.7602 174.917 77.3895 162.907 79.0509Z" fill="#8EC63F"/>
<path d="M78.0039 76.7126C73.4693 84.5673 66.7666 89.5259 60.9839 87.5659C53.3479 92.8073 39.3319 83.2899 33.1546 69.6286L34.4226 61.7939C34.9879 64.1713 35.9746 66.4433 37.3799 68.4459C39.8559 71.9886 43.3786 74.6446 46.9039 77.1459C49.0093 78.6446 51.1759 80.1353 53.6453 80.9246C56.7613 81.9166 60.1159 81.7113 63.3826 81.4993C66.3786 81.3033 69.5413 81.0539 72.0079 79.3353C73.4493 78.3353 74.6826 76.8246 76.4266 76.5726C76.9706 76.4953 77.4999 76.5459 78.0039 76.7126Z" fill="#DB354D"/>
<path d="M77.4736 49.2354C76.9603 50.7168 75.571 47.1434 72.6776 46.1408C69.7843 45.1368 66.4816 47.0834 66.9963 45.6021C67.5096 44.1221 70.7283 42.4141 73.6216 43.4181C76.515 44.4208 77.987 47.7541 77.4736 49.2354Z" fill="white"/>
<path d="M102.065 57.9697C101.741 58.8403 99.6957 56.231 96.429 55.015C93.1624 53.7977 89.909 54.4337 90.233 53.563C90.557 52.6923 93.7584 52.1977 97.025 53.415C100.292 54.631 102.389 57.099 102.065 57.9697Z" fill="white"/>
<path d="M102.065 57.9697C101.741 58.8403 99.6957 56.231 96.429 55.015C93.1624 53.7977 89.909 54.4337 90.233 53.563C90.557 52.6923 93.7584 52.1977 97.025 53.415C100.292 54.631 102.389 57.099 102.065 57.9697Z" fill="white"/>
<path d="M50.8002 109.228C50.1322 109.874 49.4122 106.639 46.9895 104.132C44.5669 101.624 41.3575 100.795 42.0255 100.15C42.6935 99.5042 45.7949 100.438 48.2175 102.946C50.6402 105.452 51.4682 108.583 50.8002 109.228Z" fill="white"/>
<path d="M67.8661 201.816C68.4488 201.092 68.7754 203.577 70.5181 204.98C72.2608 206.382 74.7581 206.172 74.1768 206.894C73.5941 207.618 71.1901 207.713 69.4474 206.31C67.7048 204.908 67.2834 202.54 67.8661 201.816Z" fill="white"/>
<path d="M93.7764 185.326L97.759 184.328C97.7724 184.838 97.755 185.356 97.7124 185.86C97.411 189.396 96.1884 192.707 94.6724 195.942C94.4004 194.97 94.327 193.94 94.2844 192.924C94.1817 190.382 94.2457 187.824 93.7764 185.326Z" fill="#D33346"/>
<path d="M59.3157 179.456C60.1303 175.816 62.733 173.046 68.593 171.577C74.181 170.177 81.7543 170.198 88.5503 171.656C89.0157 171.754 89.4717 171.858 89.925 171.976L89.9863 171.989C94.8077 173.533 97.6583 179.044 97.7583 184.328L93.777 185.325C93.7717 185.317 93.7743 185.304 93.769 185.296C93.2863 182.786 92.2023 180.293 90.213 178.693C88.2437 177.104 85.6503 176.574 83.1597 176.096C78.3383 175.158 73.4143 174.228 68.5437 174.837C65.0503 175.281 61.4357 176.734 59.3157 179.456Z" fill="#DD1221"/>
<path d="M130.137 71.0345C129.237 71.0345 128.338 70.6892 127.654 69.9998C126.298 68.6292 126.308 66.4172 127.678 65.0598L158.646 34.3918C159.3 33.7438 160.185 33.3812 161.104 33.3812H161.128L194.318 33.6132C196.248 33.6278 197.801 35.2012 197.786 37.1305C197.773 39.0598 196.214 40.6318 194.27 40.5985L162.53 40.3758L132.596 70.0238C131.913 70.6985 131.025 71.0345 130.137 71.0345Z" fill="#F15A29"/>
<path d="M48.4232 38.3549C45.2232 36.9415 42.1965 37.2749 40.4898 37.6749L31.8632 18.1415L2.23651 6.75486C0.423172 6.07486 -0.456828 4.03486 0.236505 2.23486C0.929838 0.43486 2.94317 -0.458473 4.74317 0.23486L35.7298 12.1415C35.7298 12.1549 35.7432 12.1549 35.7432 12.1549C36.6098 12.4882 37.2898 13.1549 37.6632 13.9949L48.4232 38.3549Z" fill="#EF4051"/>
<path d="M44.2625 144.076C43.1331 148.764 39.5371 153.401 36.1651 152.589C32.7931 151.777 30.9225 145.824 32.0505 141.136C33.1798 136.448 36.8798 134.801 40.2531 135.613C43.6251 136.425 45.3918 139.388 44.2625 144.076Z" fill="#8EC63F"/>
<path d="M88.8668 43.5909C88.8668 43.5909 93.2988 10.9096 76.9722 12.7002C60.6455 14.4909 86.8682 20.0896 88.8668 43.5909Z" fill="#EF4051"/>
<path d="M99.3546 40.5206C99.3546 40.5206 111.093 9.70057 124.575 19.0819C138.057 28.4632 112.351 20.8379 99.3546 40.5206Z" fill="#92278F"/>
<path d="M140.374 105.35C140.374 105.35 163.383 81.7222 172.033 95.6836C180.683 109.646 160.115 92.4436 140.374 105.35Z" fill="#FBB040"/>
<path d="M42.533 143.985C41.7437 144.473 42.261 142.021 41.0837 140.119C39.9077 138.217 37.481 137.585 38.2717 137.096C39.061 136.608 41.3597 137.319 42.537 139.22C43.713 141.123 43.3224 143.497 42.533 143.985Z" fill="white"/>
<path d="M94.8247 115.033C94.0901 118.045 93.7047 121.198 93.7047 124.437C93.7047 128.87 94.4287 133.135 95.7567 137.126L87.9061 139.743C85.4861 130.998 85.9567 121.415 89.8447 112.538L94.8247 115.033Z" fill="#E5962E"/>
<path d="M96.0485 110.956L91.7272 108.791C96.2938 100.715 103.269 94.7551 111.279 91.3671C104.323 96.0738 98.9285 102.918 96.0485 110.956Z" fill="#E5962E"/>
<path d="M110.706 157.121L107.1 164.331C98.6655 159.569 92.5375 152.178 89.2335 143.725L97.3095 141.033C100.275 147.51 104.935 153.063 110.706 157.121Z" fill="#E5962E"/>
<path d="M34.27 160.788C31.978 159.27 30.4407 157.83 30.3647 156.662C30.3647 156.662 28.8767 162.415 28.8767 166.935V199.538L40.2967 201.616C30.042 192.81 32.1594 173.972 34.27 160.788Z" fill="#E5962E"/>
<path d="M34.2701 160.788C32.1594 173.972 30.0421 192.81 40.2967 201.616L44.6021 202.399C44.6021 202.399 35.0194 200.66 40.6981 193.558C46.3767 186.455 47.7127 186.594 43.1261 181.594C38.5407 176.594 51.2101 179.139 56.5434 175.622C57.6474 174.894 48.4954 174.766 41.9354 170.544C38.0047 168.015 37.2101 162.736 34.2701 160.788Z" fill="#FBB040"/>
</svg>
