<svg width="703" height="211" viewBox="0 0 703 211" fill="none" xmlns="http://www.w3.org/2000/svg">
<path d="M81.3513 106.328C77.7833 113.464 76.0046 121.051 75.8726 128.544C75.8726 128.901 75.8633 129.26 75.8633 129.627C75.8633 130.079 75.8726 130.54 75.8913 130.992C75.8913 131.227 75.9006 131.453 75.9193 131.679C75.9486 132.259 75.9926 132.836 76.0473 133.409C77.3246 150.353 86.8686 166.279 102.654 175L105.789 168.759C105.262 168.467 104.745 168.156 104.235 167.836C84.618 155.777 77.106 130.427 87.602 109.463C91.4233 101.819 97.1473 95.7373 103.906 91.5107C116.219 83.8013 132.006 82.2387 146.079 88.5267L149.223 82.2667C123.967 70.8107 93.862 81.3253 81.3513 106.328Z" fill="#F15A29"/>
<path d="M144.127 92.2339C135.256 88.3433 125.672 87.8713 116.921 90.2966L128.18 124.105L144.127 92.2339Z" fill="#FBB040"/>
<path d="M122.329 129.175L96.3662 137.816L88.5155 140.433C86.0955 131.688 86.5662 122.105 90.4542 113.228L95.4342 115.723L122.329 129.175Z" fill="#FBB040"/>
<path d="M124.202 125.428L96.6582 111.647L92.3368 109.481C96.9022 101.404 103.878 95.4454 111.889 92.0574C112.237 91.9068 112.586 91.7654 112.943 91.6241L124.202 125.428Z" fill="#FBB040"/>
<path d="M123.656 133.157L111.315 157.811L107.709 165.022C99.2748 160.258 93.1468 152.869 89.8428 144.415L97.9188 141.723L123.656 133.157Z" fill="#FBB040"/>
<path d="M51.3636 183.73C51.3636 183.73 52.5276 187.695 55.3409 190.435C55.0489 190.482 54.7569 190.534 54.4649 190.607C49.1023 191.951 45.9049 197.63 45.9049 197.63C45.9049 197.63 51.4023 201.13 56.7649 199.786C57.0569 199.712 57.3383 199.622 57.6169 199.524C56.4289 203.268 57.2716 207.314 57.2716 207.314C57.2716 207.314 61.6969 205.952 63.7503 201.88C65.2756 198.856 65.0649 195.191 64.8556 193.504C65.1596 193.054 65.3249 192.763 65.3249 192.763C65.3249 192.763 65.0423 192.586 64.5609 192.332C63.9503 190.746 62.4089 187.414 59.6383 185.467C55.9076 182.844 51.3636 183.73 51.3636 183.73Z" fill="#8DC63F"/>
<path d="M59.9251 180.146C60.7397 176.506 63.3424 173.737 69.2024 172.267C74.7904 170.867 82.3637 170.889 89.1597 172.346C89.6251 172.445 90.0811 172.549 90.5344 172.666L90.5957 172.679C95.417 174.223 98.2677 179.734 98.3677 185.018L94.3864 186.015C94.8557 188.515 94.7917 191.073 94.8944 193.615C94.9357 194.631 95.0104 195.661 95.2824 196.633C94.1837 198.985 92.9304 201.289 91.777 203.594C91.7037 203.735 91.6384 203.879 91.565 204.021C87.317 206.839 82.7024 209.002 78.6597 210.015C71.5024 211.81 67.7291 209.603 65.2984 205.338C64.7117 204.299 64.2011 203.141 63.7371 201.893C62.8957 199.601 62.2197 196.994 61.5317 194.249C60.7597 191.157 60.0504 188.235 59.7677 185.569C59.5544 183.61 59.5624 181.79 59.9251 180.146Z" fill="#ED1C24"/>
<path d="M61.5316 194.248L64.9183 193.396L64.9263 193.397L70.6436 191.961L94.3863 186.016C94.8556 188.515 94.7916 191.072 94.8943 193.615C94.9356 194.631 95.0103 195.66 95.2823 196.632C94.1836 198.984 92.9303 201.289 91.7769 203.593C91.7036 203.736 91.6383 203.879 91.5649 204.02C87.3183 206.84 82.7023 209.003 78.6596 210.016C71.5023 211.811 67.7289 209.603 65.2983 205.337C64.7116 204.3 64.2009 203.141 63.7369 201.893C62.8956 199.6 62.2196 196.993 61.5316 194.248Z" fill="#ED3B48"/>
<path d="M59.9251 180.146C60.7397 176.506 63.3424 173.737 69.2024 172.267C74.7904 170.867 82.3637 170.889 89.1597 172.346C89.6251 172.445 90.0811 172.549 90.5344 172.666L90.5957 172.679C95.417 174.223 98.2677 179.734 98.3677 185.018L94.3864 186.015L70.6437 191.961L64.9251 193.397L64.9184 193.395L61.5317 194.249C60.7597 191.157 60.0504 188.235 59.7677 185.569C59.5544 183.61 59.5624 181.79 59.9251 180.146Z" fill="#ED1C24"/>
<path d="M72.4737 120.7C69.911 117.793 67.383 114.359 65.103 110.033C54.183 89.2865 43.4937 89.6612 38.0897 91.7279C37.7964 91.8492 37.5044 91.9692 37.2124 92.1039C36.907 92.1985 36.6057 92.2999 36.3137 92.4145C34.2524 93.1999 31.7764 94.6919 29.827 97.4985C27.343 101.081 25.7124 106.808 26.8724 115.957C27.0284 117.172 27.2284 118.447 27.4897 119.787L27.4937 119.796C27.6124 120.221 27.7377 120.649 27.887 121.071C28.7657 123.549 30.5777 125.892 32.8297 127.117C32.603 125.848 32.319 124.537 31.9817 123.185C26.931 103.187 33.3404 97.4532 37.6124 95.8145C37.9524 95.6879 38.2577 95.5945 38.5257 95.5252C38.771 95.3945 39.0617 95.2599 39.395 95.1305C43.671 93.5012 52.2724 93.4732 61.8777 111.725C64.979 117.621 68.4697 121.907 71.9084 125.465C72.027 123.865 72.2164 122.275 72.4737 120.7" fill="#8EC63F"/>
<path d="M83.1441 163.985C81.8654 165.583 80.3348 166.885 78.7201 167.937C79.3294 165.731 79.5761 163.465 79.2628 161.168C78.9414 158.749 77.7588 156.188 75.4828 155.311C71.9574 153.963 68.4174 157.327 66.6148 160.649C64.8081 163.964 63.2068 167.964 59.6388 169.211C55.3308 170.719 50.6441 166.876 49.5028 162.451C48.3668 158.027 49.7308 153.391 51.0814 149.024C52.4561 144.569 53.8401 140.109 55.2148 135.655C56.1268 132.725 57.0454 129.672 56.6068 126.629C56.1654 123.592 53.9508 120.577 50.8974 120.28C48.1228 120.005 45.9561 121.841 43.7694 123.797C41.7734 125.589 39.7508 127.476 37.2254 127.916C37.0428 127.949 36.8574 127.973 36.6761 127.985C36.3948 126.172 36.0188 124.275 35.5134 122.295C34.7868 119.425 34.3214 116.905 34.0521 114.697C33.9721 114.035 33.9108 113.4 33.8694 112.793C33.8428 112.444 33.8241 112.112 33.8068 111.781C33.7988 111.675 33.8001 111.564 33.7921 111.459C33.7788 110.988 33.7734 110.535 33.7734 110.105C33.7748 110.017 33.7761 109.929 33.7828 109.843C33.8841 104.415 35.5441 101.692 37.1054 100.325C37.2254 100.212 37.3548 100.117 37.4761 100.025C37.6654 99.884 37.8481 99.7627 38.0174 99.6587C38.1374 99.5893 38.2481 99.524 38.3641 99.468L38.5241 99.3907C39.0041 99.1573 39.4028 99.052 39.6241 99.0107C39.6481 99.004 39.6708 99.004 39.6868 99.0027L39.6881 98.996L39.7014 99C39.7908 98.98 39.8454 98.9693 39.8454 98.9693C39.8454 98.9693 47.8868 92.9653 58.6561 113.424C62.7281 121.151 67.3988 126.252 71.7468 130.452C71.8134 135.909 72.6721 141.389 74.3441 146.739C76.3014 153.036 79.2934 158.843 83.1441 163.985Z" fill="#8EC63F"/>
<path d="M19.4965 92.6772C25.6525 94.8839 32.5499 91.3545 32.5499 91.3545C32.5499 91.3545 29.4672 84.2452 23.3112 82.0385C17.1552 79.8319 10.2579 83.3612 10.2579 83.3612C10.2579 83.3612 13.3405 90.4705 19.4965 92.6772Z" fill="#8EC63F"/>
<path d="M37.5189 94.7261C36.7856 94.7261 36.0949 94.2807 35.8176 93.5554L30.8176 80.5114C30.4576 79.5714 30.9269 78.5181 31.8669 78.1581C32.8069 77.7954 33.8603 78.2687 34.2203 79.2061L39.2203 92.2514C39.5803 93.1914 39.1096 94.2447 38.1709 94.6047C37.9563 94.6874 37.7349 94.7261 37.5189 94.7261Z" fill="#8EC63F"/>
<path d="M43.7694 123.797C41.7734 125.589 39.7508 127.476 37.2254 127.916C37.0428 127.949 36.8574 127.973 36.6761 127.985C36.3948 126.172 36.0174 124.275 35.5134 122.296C34.7868 119.425 34.3214 116.905 34.0521 114.697C33.9721 114.035 33.9108 113.4 33.8694 112.793C33.8428 112.444 33.8241 112.112 33.8068 111.781C33.7988 111.675 33.8001 111.564 33.7921 111.459C33.7788 110.988 33.7721 110.535 33.7734 110.107C33.7748 110.017 33.7761 109.929 33.7828 109.843C33.8268 107.471 34.1694 105.613 34.6721 104.16C35.3174 102.292 36.2268 101.095 37.1054 100.325C37.2254 100.212 37.3548 100.117 37.4761 100.025C37.6654 99.884 37.8481 99.7626 38.0174 99.6586C38.1374 99.5893 38.2481 99.524 38.3641 99.468L38.5241 99.3906C39.0041 99.1573 39.4028 99.052 39.6241 99.0106C39.6481 99.004 39.6734 98.9986 39.6881 98.996L39.6854 99.0026C37.0428 105.132 38.9108 112.604 41.5988 118.904C42.2934 120.528 43.0294 122.159 43.7694 123.797Z" fill="#7EAD32"/>
<path d="M78.6133 77.4028C74.0786 85.2575 67.376 90.2161 61.5933 88.2561C53.9573 93.4975 39.9413 83.9801 33.764 70.3188L35.032 62.4841L37.648 46.3041L37.7133 45.9201C37.8 45.8841 37.8853 45.8548 37.9706 45.8175C42.2306 44.1961 47.1493 44.8081 49.08 45.5948C53.0826 47.2281 55.8986 47.1241 55.8986 47.1241C55.8986 47.1241 58.2626 46.5988 61.668 43.9415C65.0733 41.2855 81.3493 35.7561 83.66 53.9108C84.7146 62.1948 82.428 70.8148 78.6133 77.4028Z" fill="#EF4051"/>
<path d="M65.5788 39.7966C61.9468 44.5953 54.8935 45.3766 54.8935 45.3766C54.8935 45.3766 53.7295 38.3766 57.3615 33.5766C60.9935 28.7779 68.0468 27.9979 68.0468 27.9979C68.0468 27.9979 69.2108 34.9979 65.5788 39.7966Z" fill="#8EC63F"/>
<path d="M121.425 73.1325C102.853 75.2619 85.7995 86.5112 76.9715 104.145C75.4075 107.27 74.1608 110.505 73.2021 113.802C71.7981 111.882 70.5528 109.882 69.4275 107.755C66.4968 102.177 63.3501 97.6472 60.0248 94.1872C60.8141 94.0032 61.5781 93.7579 62.3021 93.4392C66.5101 94.0552 70.9955 92.5939 75.1475 89.1912C83.2195 82.5845 90.4035 68.1365 88.5115 53.2912C88.3888 52.3032 88.2221 51.3725 88.0328 50.4939C91.8515 50.5459 95.7275 51.2019 99.5355 52.5232C109.838 56.0952 117.542 63.7939 121.425 73.1325Z" fill="#92278F"/>
<path d="M128.279 48.7863C128.603 56.9316 121.893 63.8116 121.893 63.8116C121.893 63.8116 114.657 57.4863 114.333 49.3409C114.009 41.1956 120.719 34.3156 120.719 34.3156C120.719 34.3156 127.955 40.6409 128.279 48.7863" fill="#8EC63F"/>
<path d="M163.517 79.7411C151.507 81.4024 140.349 72.4677 140.349 72.4677C140.349 72.4677 148.662 60.8397 160.671 59.1771C172.681 57.5157 183.839 66.4504 183.839 66.4504C183.839 66.4504 175.526 78.0797 163.517 79.7411Z" fill="#8EC63F"/>
<path d="M78.6133 77.4028C74.0786 85.2575 67.376 90.2161 61.5933 88.2561C53.9573 93.4975 39.9413 83.9801 33.764 70.3188L35.032 62.4841C35.5973 64.8615 36.584 67.1335 37.9893 69.1361C40.4653 72.6788 43.988 75.3348 47.5133 77.8361C49.6186 79.3348 51.7853 80.8255 54.2546 81.6148C57.3706 82.6068 60.7253 82.4015 63.992 82.1895C66.988 81.9935 70.1506 81.7441 72.6173 80.0255C74.0586 79.0255 75.292 77.5148 77.036 77.2628C77.58 77.1855 78.1093 77.2361 78.6133 77.4028Z" fill="#DB354D"/>
<path d="M78.083 49.9256C77.5697 51.407 76.1804 47.8336 73.287 46.831C70.3937 45.827 67.091 47.7736 67.6057 46.2923C68.119 44.8123 71.3377 43.1043 74.231 44.1083C77.1244 45.111 78.5964 48.4443 78.083 49.9256Z" fill="white"/>
<path d="M102.674 58.6598C102.35 59.5305 100.305 56.9212 97.0385 55.7052C93.7718 54.4878 90.5185 55.1238 90.8425 54.2532C91.1665 53.3825 94.3678 52.8878 97.6345 54.1052C100.901 55.3212 102.998 57.7892 102.674 58.6598Z" fill="white"/>
<path d="M102.674 58.6598C102.35 59.5305 100.305 56.9212 97.0385 55.7052C93.7718 54.4878 90.5185 55.1238 90.8425 54.2532C91.1665 53.3825 94.3678 52.8878 97.6345 54.1052C100.901 55.3212 102.998 57.7892 102.674 58.6598Z" fill="white"/>
<path d="M51.4096 109.918C50.7416 110.564 50.0216 107.329 47.5989 104.822C45.1762 102.314 41.9669 101.485 42.6349 100.84C43.3029 100.194 46.4042 101.128 48.8269 103.636C51.2496 106.142 52.0776 109.273 51.4096 109.918Z" fill="white"/>
<path d="M68.4755 202.506C69.0581 201.782 69.3848 204.267 71.1275 205.67C72.8701 207.072 75.3675 206.862 74.7861 207.584C74.2035 208.308 71.7995 208.403 70.0568 207C68.3141 205.598 67.8928 203.23 68.4755 202.506Z" fill="white"/>
<path d="M94.3857 186.016L98.3684 185.019C98.3817 185.528 98.3644 186.047 98.3217 186.551C98.0204 190.087 96.7977 193.397 95.2817 196.632C95.0097 195.66 94.9364 194.631 94.8937 193.615C94.7911 191.072 94.8551 188.515 94.3857 186.016Z" fill="#D33346"/>
<path d="M59.925 180.146C60.7397 176.506 63.3424 173.737 69.2024 172.267C74.7904 170.867 82.3637 170.889 89.1597 172.346C89.625 172.445 90.081 172.549 90.5344 172.666L90.5957 172.679C95.417 174.223 98.2677 179.734 98.3677 185.018L94.3864 186.015C94.381 186.007 94.3837 185.994 94.3784 185.986C93.8957 183.477 92.8117 180.983 90.8224 179.383C88.853 177.794 86.2597 177.265 83.769 176.786C78.9477 175.849 74.0237 174.918 69.153 175.527C65.6597 175.971 62.045 177.425 59.925 180.146Z" fill="#DD1221"/>
<path d="M130.747 71.7247C129.847 71.7247 128.948 71.3793 128.264 70.69C126.908 69.3193 126.917 67.1073 128.288 65.75L159.256 35.082C159.909 34.434 160.795 34.0713 161.713 34.0713H161.737L194.928 34.3033C196.857 34.318 198.411 35.8913 198.396 37.8207C198.383 39.75 196.824 41.322 194.88 41.2887L163.14 41.066L133.205 70.714C132.523 71.3887 131.635 71.7247 130.747 71.7247Z" fill="#F15A29"/>
<path d="M49.0325 39.045C45.8325 37.6317 42.8059 37.965 41.0992 38.365L32.4725 18.8317L2.84588 7.44504C1.03255 6.76504 0.152547 4.72505 0.84588 2.92505C1.53921 1.12505 3.55255 0.231713 5.35255 0.925046L36.3392 12.8317C36.3392 12.845 36.3525 12.845 36.3525 12.845C37.2192 13.1784 37.8992 13.845 38.2725 14.685L49.0325 39.045Z" fill="#EF4051"/>
<path d="M44.8718 144.766C43.7425 149.454 40.1465 154.091 36.7745 153.279C33.4025 152.467 31.5318 146.514 32.6598 141.826C33.7892 137.138 37.4892 135.491 40.8625 136.303C44.2345 137.115 46.0012 140.078 44.8718 144.766Z" fill="#8EC63F"/>
<path d="M89.4762 44.2811C89.4762 44.2811 93.9082 11.5997 77.5816 13.3904C61.2549 15.1811 87.4776 20.7797 89.4762 44.2811Z" fill="#EF4051"/>
<path d="M99.964 41.2108C99.964 41.2108 111.703 10.3908 125.184 19.7721C138.667 29.1534 112.96 21.5281 99.964 41.2108Z" fill="#92278F"/>
<path d="M140.983 106.04C140.983 106.04 163.993 82.4124 172.642 96.3737C181.293 110.336 160.725 93.1337 140.983 106.04Z" fill="#FBB040"/>
<path d="M43.1424 144.676C42.3531 145.164 42.8704 142.712 41.6931 140.809C40.5171 138.908 38.0904 138.276 38.8811 137.786C39.6704 137.298 41.9691 138.009 43.1464 139.91C44.3224 141.813 43.9317 144.188 43.1424 144.676Z" fill="white"/>
<path d="M95.4341 115.723C94.6994 118.735 94.3141 121.888 94.3141 125.127C94.3141 129.56 95.0381 133.825 96.3661 137.816L88.5154 140.433C86.0954 131.688 86.5661 122.105 90.4541 113.228L95.4341 115.723Z" fill="#E5962E"/>
<path d="M96.6579 111.647L92.3365 109.481C96.9032 101.405 103.878 95.4453 111.889 92.0573C104.933 96.7639 99.5379 103.608 96.6579 111.647Z" fill="#E5962E"/>
<path d="M111.315 157.811L107.71 165.022C99.2749 160.259 93.1469 152.868 89.8429 144.415L97.9189 141.723C100.884 148.2 105.544 153.754 111.315 157.811Z" fill="#E5962E"/>
<path d="M185.501 167.625V81.9211L225.727 139.097L266.072 81.9211V167.625H256.761V109.256L225.727 153.658L194.811 109.256V167.625H185.501Z" fill="#EF4051"/>
<path d="M280.759 107.465H289.592V143.513C289.592 154.853 295.799 160.821 305.944 160.821C316.091 160.821 322.417 154.733 322.417 143.393V107.465H331.249V143.513C331.249 159.746 320.865 169.057 305.587 169.057C290.785 169.057 280.759 160.103 280.759 144.349V107.465Z" fill="#EF4051"/>
<path d="M341.875 84.428H350.708V167.625H341.875V84.428Z" fill="#EF4051"/>
<path d="M366.462 167.625V115.701H358.824V107.465H366.462V84.4277H375.296V107.465H388.664V115.701H375.296V167.625H366.462Z" fill="#EF4051"/>
<path d="M396.544 107.465H405.377V167.625H396.544V107.465ZM396.783 95.768C394.396 93.38 394.396 89.5599 396.783 87.2933C399.171 84.9053 402.752 84.9053 405.139 87.2933C407.527 89.5599 407.527 93.38 405.139 95.768C402.752 98.036 399.171 98.036 396.783 95.768" fill="#EF4051"/>
<path d="M411.225 154.615C413.136 155.211 415.404 155.569 418.031 155.569C425.788 155.569 427.817 150.675 427.817 142.081V84.4279H442.739V141.364C442.739 147.692 442.499 151.631 440.708 157.001C438.321 164.403 432.235 168.58 419.7 169.057C416.597 169.057 413.733 168.699 411.225 168.101V154.615Z" fill="#EF4051"/>
<path d="M454.078 107.465H468.521V142.558C468.521 151.63 473.654 156.047 481.652 156.047C489.649 156.047 494.781 151.51 494.781 142.438V107.465H509.224V143.393C509.224 151.749 506.598 158.195 501.346 162.611C496.094 167.027 489.529 169.175 481.532 169.175C473.534 169.175 466.969 167.027 461.836 162.611C456.704 158.195 454.078 151.989 454.078 143.751V107.465Z" fill="#EF4051"/>
<path d="M518.777 107.465H533.1V167.625H518.777V107.465ZM517.345 91.948C517.345 87.1733 521.164 83.4733 525.939 83.4733C530.593 83.4733 534.415 87.1733 534.415 91.948C534.415 96.7226 530.593 100.423 525.939 100.423C521.164 100.423 517.345 96.7226 517.345 91.948Z" fill="#EF4051"/>
<path d="M592.902 111.643V125.966C587.77 121.073 581.564 118.566 574.401 118.566C568.792 118.566 564.137 120.357 560.436 123.938C556.736 127.518 554.945 132.055 554.945 137.426C554.945 142.797 556.736 147.334 560.436 150.914C564.137 154.495 568.792 156.285 574.401 156.285C581.682 156.285 587.889 153.779 592.902 148.885V163.209C587.889 167.267 581.444 169.295 573.566 169.295C564.256 169.295 556.497 166.311 550.17 160.225C543.844 154.137 540.741 146.617 540.741 137.426C540.741 128.234 543.844 120.715 550.17 114.626C556.497 108.539 564.256 105.555 573.566 105.555C581.324 105.555 587.77 107.585 592.902 111.643Z" fill="#EF4051"/>
<path d="M644.473 131.099C644.473 127.638 643.04 124.534 640.174 122.027C637.31 119.52 633.849 118.208 629.67 118.208C625.254 118.208 621.436 119.52 618.213 122.027C614.99 124.534 613.318 127.518 613.08 131.099H644.473ZM598.517 137.544C598.517 128.115 601.382 120.475 607.23 114.746C613.08 108.898 620.6 106.034 629.67 106.034C638.385 106.034 645.428 108.898 650.798 114.746C656.289 120.475 659.034 127.638 659.034 136.112C659.034 137.903 658.916 139.694 658.796 141.244H612.722C613.198 150.794 620.241 156.882 630.865 156.882C640.294 156.882 647.456 154.615 652.47 149.959V163.328C646.621 167.386 639.221 169.415 630.269 169.415C620.837 169.415 613.08 166.551 607.23 160.94C601.382 155.211 598.517 147.571 598.517 138.142V137.544Z" fill="#EF4051"/>
<path d="M666.318 167.625V107.465H680.522V116.418C683.387 110.092 689.952 106.272 698.426 106.272C700.098 106.272 701.53 106.392 702.724 106.629V120.476C700.932 120.117 698.903 119.878 696.755 119.878C686.847 119.878 680.522 126.086 680.522 135.993V167.625H666.318Z" fill="#EF4051"/>
<path d="M34.8794 161.479C32.5874 159.96 31.0501 158.52 30.9741 157.352C30.9741 157.352 29.4861 163.105 29.4861 167.625V200.228L40.9061 202.307C30.6514 193.5 32.7688 174.663 34.8794 161.479Z" fill="#E5962E"/>
<path d="M34.8795 161.479C32.7688 174.663 30.6515 193.5 40.9061 202.307L45.2115 203.089C45.2115 203.089 35.6288 201.351 41.3075 194.248C46.9861 187.145 48.3221 187.284 43.7355 182.284C39.1501 177.284 51.8195 179.829 57.1528 176.312C58.2568 175.584 49.1048 175.456 42.5448 171.235C38.6141 168.705 37.8195 163.427 34.8795 161.479Z" fill="#FBB040"/>
</svg>
